<?xml version="1.0" encoding="UTF-8" standalone="no"?>
<!-- Generator: Adobe Illustrator 19.2.1, SVG Export Plug-In . SVG Version: 6.00 Build 0)  -->

<svg
   xmlns:dc="http://purl.org/dc/elements/1.1/"
   xmlns:cc="http://creativecommons.org/ns#"
   xmlns:rdf="http://www.w3.org/1999/02/22-rdf-syntax-ns#"
   xmlns:svg="http://www.w3.org/2000/svg"
   xmlns="http://www.w3.org/2000/svg"
   xmlns:sodipodi="http://sodipodi.sourceforge.net/DTD/sodipodi-0.dtd"
   xmlns:inkscape="http://www.inkscape.org/namespaces/inkscape"
   version="1.1"
   x="0px"
   y="0px"
   width="500px"
   height="500px"
   viewBox="0 0 500 500"
   style="enable-background:new 0 0 500 500;"
   xml:space="preserve"
   id="svg3362"
   inkscape:version="0.91 r13725"
   sodipodi:docname="10-min.svg"><metadata
     id="metadata3390"><rdf:RDF><cc:Work
         rdf:about=""><dc:format>image/svg+xml</dc:format><dc:type
           rdf:resource="http://purl.org/dc/dcmitype/StillImage" /><dc:title></dc:title></cc:Work></rdf:RDF></metadata><defs
     id="defs3388" /><sodipodi:namedview
     pagecolor="#ffffff"
     bordercolor="#666666"
     borderopacity="1"
     objecttolerance="10"
     gridtolerance="10"
     guidetolerance="10"
     inkscape:pageopacity="0"
     inkscape:pageshadow="2"
     inkscape:window-width="1920"
     inkscape:window-height="1017"
     id="namedview3386"
     showgrid="false"
     inkscape:zoom="0.472"
     inkscape:cx="-13.771186"
     inkscape:cy="250"
     inkscape:window-x="-8"
     inkscape:window-y="-8"
     inkscape:window-maximized="1"
     inkscape:current-layer="svg3362" /><style
     type="text/css"
     id="style3364">
	.st0{display:none;}
	.st1{display:inline;}
	.st2{fill:#3186CF;}
	.st3{fill:#3286CF;}
	.st4{fill:#3286CE;}
</style><g
     id="Layer_2" /><g
     style="display:none"
     class="st0"
     id="Layer_1_1_"><g
       style="display:inline"
       class="st1"
       id="BG"><rect
         style="fill:#3186cf"
         y="0"
         x="0"
         id="rect3370"
         height="500"
         width="500"
         class="st2" /></g></g><path
     class="st3"
     d="m 171.6,80.7 c -5.3,-2.9 -10,-6.6 -15.3,-9.3 -6.8,-3.4 -7.1,-11.6 -0.8,-15.8 2.4,-1.6 4.7,-3.5 7.7,-3.6 3.3,0 6.7,-0.1 9.9,0.9 5,1.4 9.8,3.6 14.4,5.8 2.1,1 4.4,1.7 6.6,2.4 3.5,1 6.7,2.6 10,3.9 6.4,2.6 12.2,6.1 16.3,11.8 2.8,3.9 3.1,8.2 1.6,12.7 -1.1,3.1 -1.8,6.4 -2.5,9.6 -0.8,3.4 -1.7,6.8 -2.4,10.2 -0.7,3.3 -1.8,6.4 -2.5,9.6 -1.7,8.1 -9,13 -16.7,11 -7.7,-2 -11.9,-9.9 -9.2,-17.7 0.8,-2.3 0.6,-4.7 1.8,-7.3 -1.3,0.4 -2.1,0.5 -2.9,0.9 -6,2.8 -12,5.3 -17.4,9.2 -3.7,2.7 -8.1,4.3 -11.5,7.2 -4.4,3.7 -9.8,6 -14.1,10.1 -3.9,3.7 -8.5,6.9 -12.4,10.6 -6.6,6.2 -13.8,12 -19.2,19.3 -3.2,4.4 -6.9,8.4 -9.7,13.1 -2.5,4.3 -5.2,8.5 -7.5,13 -1.1,2.1 -1.8,4.4 -2.8,6.6 -2.9,6.5 -5.1,13.2 -5.7,20.3 -0.2,2.1 -1.2,4 -1.4,6.1 -0.6,5.9 -1.6,11.7 -2.8,17.5 -0.4,2 -0.7,4 -0.5,6 0.3,3.3 -0.2,6.6 0.1,9.9 0.2,3.4 0,6.9 -0.1,10.3 -0.1,3.1 0,6.2 0.4,9.3 0.4,3.5 0.8,7 1.4,10.4 0.6,3.2 1.1,6.4 1.5,9.6 0.4,3.7 1,7.3 1.7,11 0.5,2.8 1.2,5.6 1.9,8.4 1.4,5.5 3.1,10.9 5.5,16 1.3,2.7 2.8,5.4 4.3,8.1 1.9,3.6 3.9,7.2 5.7,10.9 2.4,4.8 4.2,9.9 7.5,14.3 1.7,2.3 2.7,5 4.4,7.4 2.2,3 4.3,6.2 7,8.9 1.7,1.7 2.5,3.9 4.2,5.6 3.4,3.5 6.8,6.9 10.5,10.2 1.5,1.4 3.5,2.1 5,3.4 1.4,1.2 2.4,2.7 4,3.7 4.1,2.7 8.2,5.6 12.7,7.6 3.6,1.5 6.9,3.5 10.5,5.1 2.2,1 4,2.6 6.2,3.6 7.2,3.5 15,5.6 22.7,7.6 5.2,1.4 10.5,2.5 15.9,2.7 2.8,0.1 5.7,0.6 8.5,0.8 1.5,0.2 3,-0.4 4.4,-0.2 3.9,0.5 7.9,-0.3 11.9,0.3 1.7,0.3 3.5,0.1 5.2,-0.3 3.5,-0.7 7.1,-0.6 10.7,-1 2.9,-0.4 5.8,-0.3 8.7,-0.8 6.5,-1.2 13.1,-1.6 19.5,-3.4 3.2,-0.9 6.6,-1.4 9.9,-2.3 3,-0.7 5.9,-1.6 8.8,-2.4 6.8,-1.9 13.4,-4.5 20.3,-6.3 7,-1.9 13.6,-5 19.8,-9 4.1,-2.7 8.4,-5.2 12.3,-8.3 2.3,-1.8 4.4,-4 6.5,-6.1 2.8,-2.8 5.4,-6 8.4,-8.6 2.1,-1.8 4,-3.9 5.9,-5.9 3.8,-4 7.8,-7.8 11.3,-12.1 2.9,-3.5 6.1,-6.8 8.4,-10.7 2.6,-4.6 5.6,-9.1 7.3,-14.2 1,-3 2.7,-5.6 4,-8.5 1.4,-3.3 3,-6.6 4.2,-10 0.9,-2.5 2.2,-4.9 2.9,-7.4 0.9,-3.1 1.8,-6.1 2.3,-9.2 0.4,-2.6 1.4,-5 1.7,-7.6 0.8,-5.6 1.9,-11.1 1.7,-16.8 -0.1,-2.3 0.5,-4.5 0.7,-6.8 0.5,-6.3 0.4,-12.6 0.6,-18.9 0.2,-5.6 -0.3,-11 -1.3,-16.5 -0.6,-3 -1.5,-5.9 -2.3,-8.9 -0.8,-2.9 -1.5,-5.8 -2.3,-8.7 -1.7,-6 -3.3,-12.1 -6.9,-17.3 -1.3,-1.9 -1.7,-4.1 -2.6,-6.1 -2.9,-6.3 -6.3,-12.4 -8.9,-18.8 -1.4,-3.6 -3.8,-6.7 -5.9,-9.8 -2.5,-3.8 -5.2,-7.5 -8.1,-11 -3.1,-3.7 -5.9,-7.6 -8.8,-11.4 -2.7,-3.5 -5.2,-7.1 -7.7,-10.8 -5,-7.4 -10.2,-14.6 -17.9,-19.6 -1.6,-1.1 -3.4,-2 -5.1,-2.9 -3.9,-2.1 -7,-5.2 -10.8,-7.3 -4.5,-2.4 -9,-4.7 -13.9,-6.2 -3.5,-1.1 -6.9,-2.6 -10.5,-3.8 -6.5,-2.2 -12.9,-4.5 -19.5,-6.3 -5.7,-1.5 -11.7,-2.1 -16.9,-5.2 -1.6,-0.9 -3.6,-1.1 -5.4,-1.6 -1.7,-0.5 -2.9,-1.5 -3,-3.4 -0.1,-1.9 1,-3.1 2.7,-3.7 6.6,-2.2 13,-5.5 20.3,-4.6 0.2,0 0.4,0 0.6,0 5.5,1.3 11.1,2 16.5,3.8 5,1.7 10,3.3 15,5 7.2,2.5 14.5,4.9 21.3,8.5 6.6,3.5 12.9,7.3 19.4,10.8 4.2,2.2 7.9,5.2 11.4,8.4 6.1,5.4 10.7,12 15.6,18.4 4.9,6.4 9.6,12.9 14.8,19.1 3.2,3.7 6.2,7.7 8.9,11.8 1.5,2.3 3.1,4.7 4.7,6.9 1.6,2.2 2.7,4.7 4,7.1 2.6,4.9 5.1,9.9 7.8,14.8 1.1,2 1.5,4.3 2.7,6.3 1.9,3.2 3.5,6.5 5.1,9.9 1,2.1 1.5,4.3 2.3,6.4 1.1,3.2 2.4,6.4 3.2,9.8 1.1,4.9 2.6,9.7 4,14.4 0.9,2.9 0.8,5.9 1.4,8.9 1,5.6 1.1,11.2 1.1,16.8 0,5.1 0.2,10.1 0.1,15.2 0,3.2 -0.5,6.3 -0.6,9.5 0,3.1 -0.1,6.2 -0.5,9.3 -0.5,4.4 -0.9,8.8 -1.8,13.1 -0.6,2.8 -1.2,5.6 -1.7,8.4 -0.8,4.1 -1.8,8.2 -3.3,12.2 -1.1,2.9 -2.1,5.9 -3.2,8.8 -1.4,3.6 -2.7,7.3 -4.4,10.8 -1.1,2.2 -1.8,4.5 -2.7,6.7 -1.2,3.3 -2.8,6.5 -4.4,9.5 -2.2,4 -4.1,8.2 -6.9,12 -2.2,2.9 -4.4,5.8 -6.8,8.5 -2.7,3.1 -5.2,6.3 -8.2,9.2 -2.3,2.2 -4.5,4.4 -6.6,6.8 -2.2,2.5 -4.6,4.7 -6.8,7.2 -2.8,3.2 -5.7,6.4 -8.8,9.3 -3.4,3.2 -6.6,6.7 -10.8,9.1 -2.7,1.6 -5.4,3.4 -7.9,5.4 -3.2,2.6 -7.1,4.1 -10.6,6.2 -1.4,0.8 -2.9,1.5 -4.2,2.4 -0.7,0.5 -1.6,1.1 -2.4,1.2 -3.9,0.8 -7.4,2.7 -11.3,3.7 -3.3,0.9 -6.6,2 -9.8,3 -4.1,1.2 -8,2.9 -12.3,3.8 -3.1,0.7 -6.3,1.6 -9.4,2.5 -3.8,1.2 -7.8,1.9 -11.7,2.7 -0.9,0.2 -1.9,0.2 -2.9,0.6 -3.7,1.5 -7.7,1.3 -11.5,2.1 -4.4,0.9 -8.9,1.1 -13.3,1.7 -2.8,0.4 -5.7,0.4 -8.5,0.6 -3,0.2 -6,1 -9.1,0.9 -4.8,-0.1 -9.6,0 -14.4,0 -7,0 -13.9,-0.4 -20.9,-1.6 -3.5,-0.6 -7.1,-1.1 -10.5,-1.8 -4.1,-0.8 -8.3,-1.6 -12.2,-3.1 -2.4,-0.9 -4.9,-1.3 -7.3,-2.1 -3.6,-1.2 -7.2,-2.6 -10.8,-3.9 -1.9,-0.7 -3.6,-1.7 -5.4,-2.6 -4.9,-2.7 -9.5,-5.8 -14.8,-7.7 -1,-0.3 -2.1,-0.6 -2.9,-1.2 -2.9,-2.4 -6.6,-3.7 -9.4,-6.2 -1.4,-1.2 -3.3,-1.5 -4.7,-2.8 -2.3,-2.1 -4.7,-4.1 -7.1,-6.1 -1.5,-1.3 -3.4,-2 -4.7,-3.4 -2.7,-2.7 -5.2,-5.4 -7.9,-8.1 -1.5,-1.5 -3.3,-2.7 -4.4,-4.4 -3.3,-5.2 -7.5,-9.6 -11.2,-14.5 -3.2,-4.2 -5.4,-9 -8.4,-13.3 -3.7,-5.4 -5.8,-11.6 -8.9,-17.3 -2.2,-4 -4.4,-8 -6.3,-12 -1.8,-3.8 -3.8,-7.5 -5.1,-11.5 -1.1,-3.2 -2.2,-6.5 -3.4,-9.7 -1.2,-3.5 -1.9,-7.2 -2.7,-10.8 -1,-4.2 -1.8,-8.4 -2.4,-12.6 -0.4,-3.6 -0.9,-7.2 -1.5,-10.8 -0.5,-3.1 -1.1,-6.3 -1.5,-9.4 -0.6,-4.7 -1,-9.4 -0.9,-14.2 0.1,-3.5 0.1,-7 -0.1,-10.5 -0.2,-2.5 0,-5.1 0.1,-7.6 0.1,-4.4 -0.2,-8.9 0.4,-13.4 0.8,-5.6 2.5,-11.1 2.5,-16.9 0,-3.3 1.6,-6.4 2.1,-9.7 0.6,-4.2 1.6,-8.3 2.5,-12.4 0.2,-1.1 0.5,-2.3 1,-3.4 2,-4.1 3.4,-8.4 5.2,-12.6 2.7,-6.1 5.5,-12.1 9.2,-17.8 1.8,-2.8 3.8,-5.6 5.4,-8.6 1.8,-3.3 4.7,-5.8 7,-8.9 2.4,-3.2 4.9,-6.2 7.7,-9 3.1,-3.1 6,-6.5 9.5,-9.2 2.2,-1.7 4.4,-3.5 6.1,-5.7 2.1,-2.8 5.1,-4.6 7.6,-6.9 3.7,-3.4 7.7,-6.4 11.4,-9.8 2,-1.8 4.5,-2.8 6.6,-4.5 4.7,-3.6 9.9,-6.6 14.9,-9.9 3.2,-2.1 6.6,-3.9 9.7,-6.2 1.5,-1.1 3.2,-1.8 4.9,-2.3 1,0.1 2,-0.9 3.4,-1.6 z"
     id="path3374"
     inkscape:connector-curvature="0"
     style="fill:#46b2ef;fill-opacity:0.94117647" /><path
     class="st4"
     d="m 350.7,222.7 c 0,12.5 -1.5,24.8 -6.7,36.4 -6.9,15.3 -18.4,24.7 -35.2,26.9 -23.5,3.2 -42.1,-8.2 -50.5,-30.5 -4.2,-11.2 -5.3,-22.7 -5.2,-34.5 0.1,-12 1.6,-23.6 6.5,-34.7 7.3,-16.4 19.6,-25.9 37.7,-27.4 12.8,-1 24.6,1.8 34.6,10.4 7.1,6.1 11.4,14 14.4,22.7 3.5,9.9 4.5,20.2 4.4,30.7 z m -29.7,-1 c 0.1,-4.7 -0.1,-10.3 -0.9,-15.7 -0.9,-6.3 -2.2,-12.6 -5.8,-18.1 -6.3,-9.5 -19.2,-9.3 -25.1,0.4 -3.4,5.5 -4.7,11.7 -5.4,18 -1.3,10.8 -1.3,21.7 0,32.5 0.8,6.5 2.1,12.9 5.7,18.5 5.7,8.9 18.2,9.2 24.3,0.5 1.6,-2.2 2.7,-4.6 3.6,-7.1 3.1,-9.1 3.6,-18.6 3.6,-29 z"
     id="path3376"
     inkscape:connector-curvature="0"
     style="fill:#46b2ef;fill-opacity:0.94117647" /><path
     class="st4"
     d="m 186,194.7 c -2.3,1.8 -4.7,3.7 -7,5.5 -2,1.6 -4,3.2 -6,4.7 -5,3.9 -10.9,3.2 -14.8,-1.7 -2.4,-3 -4.7,-6.1 -7.2,-9 -0.8,-1 -1,-1.5 0.2,-2.4 13,-10.3 25.9,-20.6 38.8,-31 0.8,-0.7 1.6,-0.9 2.7,-0.9 6.6,0 13.2,0.1 19.7,0 1.9,0 2.4,0.6 2.4,2.5 -0.1,33.4 0,66.7 0,100.1 0,2.9 -0.3,2.5 2.5,2.5 5.7,0 11.3,0.1 17,0 1.6,0 2,0.5 2,2 -0.1,5.3 -0.1,10.7 0,16 0,1.4 -0.3,2.1 -2,2.1 -23.9,0 -47.7,0 -71.6,0 -1.4,0 -1.9,-0.5 -1.9,-1.9 0.1,-5.4 0.1,-10.8 0,-16.2 0,-1.5 0.4,-2 2,-2 7,0.1 13.9,0 20.9,0.1 1.9,0 2.2,-0.6 2.2,-2.3 0,-20.3 0,-40.7 0,-61 0.1,-2.4 0.1,-4.6 0.1,-7.1 z"
     id="path3378"
     inkscape:connector-curvature="0"
     style="fill:#46b2ef;fill-opacity:0.94117647" /><path
     class="st4"
     d="m 191.7,345 c 3.2,-6.8 6.8,-13.2 10.3,-19.8 4,-7.7 8.2,-15.3 12.2,-22.9 1.2,-2.3 2.9,-3.5 5.6,-3.5 4.4,0.1 8.9,0 13.3,-0.1 1.3,0 1.9,0.4 1.8,1.8 0,23.3 0,46.7 0,70 0,1.4 -0.6,1.8 -1.9,1.8 -4.2,-0.1 -8.5,-0.1 -12.7,0 -1.8,0 -2.2,-0.6 -2.2,-2.3 0.1,-14.1 0.1,-28.1 0.2,-42.2 0,-0.2 0,-0.5 -0.3,-0.8 -0.9,1.6 -1.7,3.1 -2.6,4.7 -5.2,9.6 -10.4,19.1 -15.5,28.7 -1.8,3.3 -4.4,4.5 -8,4.5 -3.7,0 -6.6,-0.9 -8.4,-4.4 -5.6,-10.5 -11.3,-21 -17,-31.5 -0.3,-0.6 -0.5,-1.3 -1.4,-1.9 0,0.7 0,1.2 0,1.8 0,13.7 0,27.5 0.1,41.2 0,1.7 -0.5,2.1 -2.1,2.1 -4.2,-0.1 -8.5,-0.1 -12.7,0 -1.4,0 -1.9,-0.5 -1.9,-1.9 0,-23.2 0,-46.4 0,-69.6 0,-1.4 0.3,-2.1 1.8,-2 4.4,0.1 8.9,0.2 13.3,0.1 2.8,-0.1 4.4,1.2 5.7,3.6 5.9,11.2 11.9,22.4 17.8,33.6 1.6,3 3.1,6 4.6,9 z"
     id="path3380"
     inkscape:connector-curvature="0"
     style="fill:#46b2ef;fill-opacity:0.94117647" /><path
     class="st4"
     d="m 303.3,327.9 c 0,1.6 0,2.6 0,3.6 0,12.9 0,25.8 0,38.7 0,1.5 -0.4,2.1 -2,2.1 -4.3,-0.1 -8.6,-0.1 -12.9,0 -1.5,0 -1.9,-0.6 -1.9,-2 0,-23.2 0,-46.4 0,-69.6 0,-1.4 0.5,-2 1.9,-2 2.9,0.1 5.9,0.2 8.8,0.1 2.4,0 4.1,1.1 5.5,2.8 6.2,7.5 12.4,15 18.6,22.4 5,6.1 10.1,12.1 15.1,18.2 0.2,0.2 0.4,0.4 0.8,0.9 0,-1.3 0,-2.3 0,-3.3 0,-13 0,-26.1 -0.1,-39.1 0,-1.5 0.5,-2.1 2,-2 4.2,0.1 8.5,0.1 12.7,0 1.5,0 1.9,0.5 1.9,1.9 0,23.3 0,46.5 0,69.8 0,1.4 -0.4,1.8 -1.8,1.8 -2.7,-0.1 -5.3,-0.1 -8,0 -2.8,0.1 -5,-1.1 -6.8,-3.3 -10.7,-13 -21.4,-25.9 -32.2,-38.9 -0.2,-0.4 -0.8,-1 -1.6,-2.1 z"
     id="path3382"
     inkscape:connector-curvature="0"
     style="fill:#46b2ef;fill-opacity:0.94117647" /><path
     class="st3"
     d="m 251.4,335.6 c 0,-11.5 0,-22.9 0,-34.4 0,-1.9 0.6,-2.5 2.4,-2.5 4.8,0.1 9.5,0.1 14.3,0 1.6,0 2.2,0.4 2.2,2.1 0,23.2 0,46.4 0,69.6 0,1.4 -0.4,1.9 -1.9,1.9 -5,-0.1 -9.9,-0.1 -14.9,0 -1.6,0 -2.1,-0.5 -2.1,-2.1 0,-11.5 0,-23.1 0,-34.6 z"
     id="path3384"
     inkscape:connector-curvature="0"
     style="fill:#46b2ef;fill-opacity:0.94117647" /></svg>