<?xml version="1.0" encoding="UTF-8" standalone="no"?>
<!-- Generator: Adobe Illustrator 19.2.1, SVG Export Plug-In . SVG Version: 6.00 Build 0)  -->

<svg
   xmlns:dc="http://purl.org/dc/elements/1.1/"
   xmlns:cc="http://creativecommons.org/ns#"
   xmlns:rdf="http://www.w3.org/1999/02/22-rdf-syntax-ns#"
   xmlns:svg="http://www.w3.org/2000/svg"
   xmlns="http://www.w3.org/2000/svg"
   xmlns:sodipodi="http://sodipodi.sourceforge.net/DTD/sodipodi-0.dtd"
   xmlns:inkscape="http://www.inkscape.org/namespaces/inkscape"
   version="1.1"
   x="0px"
   y="0px"
   width="500px"
   height="500px"
   viewBox="0 0 500 500"
   style="enable-background:new 0 0 500 500;"
   xml:space="preserve"
   id="svg4136"
   inkscape:version="0.91 r13725"
   sodipodi:docname="3in1.svg"><metadata
     id="metadata4160"><rdf:RDF><cc:Work
         rdf:about=""><dc:format>image/svg+xml</dc:format><dc:type
           rdf:resource="http://purl.org/dc/dcmitype/StillImage" /><dc:title></dc:title></cc:Work></rdf:RDF></metadata><defs
     id="defs4158" /><sodipodi:namedview
     pagecolor="#ffffff"
     bordercolor="#666666"
     borderopacity="1"
     objecttolerance="10"
     gridtolerance="10"
     guidetolerance="10"
     inkscape:pageopacity="0"
     inkscape:pageshadow="2"
     inkscape:window-width="1920"
     inkscape:window-height="1017"
     id="namedview4156"
     showgrid="false"
     inkscape:zoom="1.696"
     inkscape:cx="250"
     inkscape:cy="250"
     inkscape:window-x="-8"
     inkscape:window-y="-8"
     inkscape:window-maximized="1"
     inkscape:current-layer="svg4136" /><style
     type="text/css"
     id="style4138">
	.st0{display:none;}
	.st1{display:inline;}
	.st2{fill:#3186CF;}
	.st3{fill:#3286CE;}
	.st4{fill:#3286CF;}
</style><g
     id="Layer_2" /><g
     style="display:none"
     class="st0"
     id="Layer_1_1_"><g
       style="display:inline"
       class="st1"
       id="BG"><rect
         style="fill:#3186cf"
         y="0"
         x="0"
         id="rect4144"
         height="500"
         width="500"
         class="st2" /></g></g><path
     class="st3"
     d="m 96.1,166.3 c 2.6,1.3 5.6,1.1 8.4,1.9 14.3,3.9 26.3,10.9 32.6,25 5.2,11.7 4.6,23.6 -0.5,35.2 -2.4,5.5 -6.6,9.6 -11.8,12.5 -2.5,1.4 -5.2,2.6 -8,4 2.5,1.2 5,2.3 7.3,3.6 14.6,8 20.1,20.6 19.3,36.8 -1,22.2 -16.2,40.7 -42.8,46.4 -12.3,2.6 -24.7,2.6 -37,0 -13.5,-2.9 -24.2,-9.9 -32.1,-21.3 -4.1,-5.9 -7.2,-12.2 -9.7,-18.9 -0.4,-1.1 -1.1,-2.2 0.6,-2.8 7.2,-2.4 13.9,-6.4 21.6,-7.3 6.1,-0.7 11.2,1.1 14.6,6.9 3.6,6.2 7.9,11.9 15,14.5 12.6,4.6 29.3,-0.6 32.1,-16.1 0.9,-4.8 0.5,-9.6 -0.8,-14.3 -1.1,-4.1 -4.2,-6.6 -8,-8.2 -7.4,-3.2 -15.2,-3.3 -23.1,-3.5 -2.4,-0.1 -3.3,-0.6 -3.2,-3.1 0.2,-6.3 0.2,-12.5 0,-18.8 -0.1,-2.4 0.7,-2.9 3,-3 5.8,-0.1 11.7,-0.6 17.3,-2.3 7.6,-2.3 12.2,-6.8 12.8,-15 0.3,-3.9 0.1,-7.7 -1,-11.5 -1.7,-5.5 -5.3,-9.2 -11,-10.5 -12.6,-2.9 -23.8,1.7 -28.3,13.8 -2.6,6.8 -6.5,9.2 -13.8,8.9 -7.5,-0.3 -14.8,-2.4 -22.3,-3.3 -1.8,-0.2 -1.4,-1.3 -1.2,-2.5 3.8,-24.2 21.5,-41.7 46,-45.7 1.7,-0.3 3.5,0 5,-1.2 6.5,-0.2 12.7,-0.2 19,-0.2 z"
     id="path4148"
     inkscape:connector-curvature="0"
     style="fill:#46b2e4;fill-opacity:1" /><path
     class="st3"
     d="m 478.5,331.8 c -31.8,0 -63.5,0 -95.3,0.1 -2.3,0 -3.3,-0.4 -3.2,-3.1 0.2,-6.7 0.2,-13.4 0,-20.1 -0.1,-2.5 0.8,-3 3.1,-2.9 8.8,0.1 17.5,-0.1 26.3,0.1 2.7,0.1 3.5,-0.6 3.5,-3.4 -0.1,-25.2 -0.1,-50.3 -0.1,-75.5 0,-4.6 0,-9.2 0,-14 -2.8,2.2 -5.6,4.4 -8.4,6.6 -3,2.4 -6,4.8 -9.1,7.2 -6.4,4.9 -13.7,4 -18.8,-2.3 -3.1,-3.9 -6.2,-7.9 -9.4,-11.8 -1.1,-1.3 -1.1,-2.1 0.3,-3.2 16.8,-13.4 33.6,-26.8 50.4,-40.3 1.3,-1 2.5,-1.2 4,-1.2 8.4,0 16.7,0.1 25.1,0 2.6,-0.1 3.3,0.7 3.3,3.3 -0.1,43.6 0,87.1 -0.1,130.7 0,3.1 0.7,4 3.9,4 7.9,-0.1 15.8,-0.5 23.8,0.2 0,7.1 0,14.1 0,21.2 0,1.1 -0.4,2.3 0.6,3.2 0.1,0.4 0.1,0.8 0.1,1.2 z"
     id="path4150"
     inkscape:connector-curvature="0"
     style="fill:#46b2e4;fill-opacity:1" /><path
     class="st4"
     d="m 478.5,330.6 c -1,-0.9 -0.6,-2.1 -0.6,-3.2 0,-7.1 0,-14.1 0,-21.2 0.2,0 0.4,0 0.6,-0.1 0,8.2 0,16.3 0,24.5 z"
     id="path4152"
     inkscape:connector-curvature="0"
     style="fill:#46b2e4;fill-opacity:1" /><path
     class="st4"
     d="m 223.3,299.1 c -15.3,0 -30.7,0.1 -46,0 -5.5,0 -6.8,-1.6 -6.8,-7 0.2,-21.3 0.5,-42.6 0.8,-63.9 0.1,-9.3 0.2,-9.2 9.3,-10 11.9,-0.9 23.8,-0.4 35.7,-0.6 16.6,-0.3 33.2,-0.4 49.8,-0.6 0.7,0 1.5,-0.1 2.2,-0.1 3.1,0.2 3.8,-0.8 3.7,-4.1 -0.4,-8.5 -0.2,-17.1 -0.3,-25.7 0,-1.9 0.8,-3.2 2.5,-4 1.6,-0.8 3.2,-0.4 4.3,0.7 6.4,6.6 13.9,11.9 21,17.8 20.7,17.1 41.6,34 62.3,51 4.2,3.5 4.2,5.4 0,8.9 -26.1,22 -52.3,44 -78.4,66 -1,0.8 -1.9,1.6 -2.6,2.7 -1.2,1.8 -3,2.7 -5.2,1.9 -2.4,-0.8 -3.4,-2.5 -3.4,-5 0,-7.8 0,-15.7 0.1,-23.5 0,-2.3 -0.3,-3.2 -3,-3.2 -15.4,0.1 -30.7,0.1 -46.1,0.1 0.1,-0.5 0.1,-0.9 0.1,-1.4 z m -1.9,-37.7 c 0.1,0 0.2,0 0.3,0 0,6.2 0,12.3 0,18.5 0,6.3 0,6.3 6.4,6.2 2.1,0 2.8,-0.4 2.7,-2.8 -0.3,-6 -0.3,-12.1 -0.4,-18.2 0,-1.4 0.2,-3.1 2,-3.6 1.8,-0.5 2.8,0.7 3.9,1.9 5.4,6.3 10,13.1 14,20.3 0.7,1.2 1.6,1.6 3,1.6 7.9,-0.2 7.8,-0.1 7.8,-7.7 -0.1,-12.5 -0.1,-25.1 0,-37.6 0,-2.5 -0.3,-3.7 -3.1,-3.2 -2,0.3 -4.2,0.2 -6.3,0.1 -2.1,-0.2 -2.6,0.7 -2.6,2.7 0.2,4.7 0.2,9.4 0.1,14.1 0,2.8 -1.8,3.7 -4.1,2.1 -0.8,-0.5 -1.5,-1.2 -2.1,-1.9 -4,-4.6 -8.1,-9 -11.7,-13.9 -2.1,-2.8 -4.4,-3.3 -7.5,-3.2 -2,0 -2.4,0.6 -2.4,2.5 0.1,7.5 0,14.8 0,22.1 z m -27.7,-0.2 c 0.1,0 0.1,0 0.2,0 0,7.7 0.1,15.4 0,23.2 0,2 0.6,2.5 2.5,2.4 3.1,-0.2 6.3,-0.3 9.4,-0.2 2.1,0 2.6,-0.7 2.6,-2.8 -0.2,-7.4 -0.3,-14.8 -0.3,-22.2 -0.1,-7.6 -0.1,-15.2 0,-22.8 0,-2.2 -0.7,-2.9 -2.8,-2.7 -2.7,0.2 -5.4,0.3 -8.1,0 -2.6,-0.2 -3.4,0.6 -3.3,3.2 -0.1,7.3 -0.2,14.6 -0.2,21.9 z"
     id="path4154"
     inkscape:connector-curvature="0"
     style="fill:#46b2e4;fill-opacity:1" /></svg>