<svg xmlns:inkscape="http://www.inkscape.org/namespaces/inkscape" xmlns:rdf="http://www.w3.org/1999/02/22-rdf-syntax-ns#" style="enable-background:new 0 0 500 500" xmlns="http://www.w3.org/2000/svg" sodipodi:docname="abc.svg" xml:space="preserve" height="500px" viewBox="0 0 500 500" width="500px" version="1.1" y="0px" x="0px" xmlns:cc="http://creativecommons.org/ns#" xmlns:dc="http://purl.org/dc/elements/1.1/" inkscape:version="0.91 r13725" xmlns:sodipodi="http://sodipodi.sourceforge.net/DTD/sodipodi-0.dtd"><sodipodi:namedview bordercolor="#666666" inkscape:pageshadow="2" guidetolerance="10" pagecolor="#ffffff" gridtolerance="10" inkscape:window-maximized="0" inkscape:zoom="0.472" objecttolerance="10" borderopacity="1" inkscape:current-layer="Layer_1" inkscape:cx="250" inkscape:cy="250" inkscape:window-y="117" inkscape:window-x="182" inkscape:window-width="640" showgrid="false" inkscape:pageopacity="0" inkscape:window-height="480"/><style type="text/css">
	.st0{fill:#4AB3E4;}
	.st1{fill:#E4F3FA;}
	.st2{fill:#C7E7F6;}
	.st3{fill:#4BB3E4;}
	.st4{fill:#FCFDFE;}
	.st5{fill:#FDFEFE;}
</style><path class="st0" d="m310.2 29.7h19.8c6.9 3.3 9.2 8.8 7.1 16.1-1.2 4.1 0.1 5.2 4.5 4.8 16-1.6 32-0.6 47.8 1.8 6.6 1 14.2 2.4 14.8 10.6 0.5 8 2.5 15.5 4.3 23.1 8.9 38.4 12.8 77.6 17.1 116.7 6.1 55.3 13.4 110.4 11.2 166.2-0.7 18.3 2.1 36.5 1.8 54.7-0.1 7.7-5.1 12.6-12 11.3-10-1.8-19.5 0.9-28.1 4.7-24.3 10.8-50.1 16.7-75.8 22.1-20 4.2-40.7 5.7-61.3 6.3-9.7 0-19.5-0.1-29.2-0.1-17.5-3-35.5-1.7-52.6-7.6-9.8-3.4-19.6-7.1-29.5-9.5-7.5-1.8-10.9-5.6-12.3-12.3-0.7-3.5-1.1-7-1.5-10.6-1.4-11.2-1.3-11.2-12.5-11.6-16.9-0.7-23.6-7.9-23.6-24.8 0-7.1-0.6-14.2-1.5-21.3-4.4-35.2-8.9-70.5-12.8-105.8-2.9-27-7-53.9-10.4-80.8-2.2-17.6-6.7-34.9-8.6-52.6-1.1-10.9-1.1-22.2-5.5-32.6v-12.2c3.2-2.8 5.6-6.4 10-7.8 23.9-7.6 48-14.7 72.7-19.3 25.2-4.7 50.5-8.7 75.1-15.8 27.3-7.9 54.9-12.3 83.3-11.7 2.7 0 5.7 0.8 7.7-2zm-70.2 22.9c-13.8 3.2-27.6 6.4-41.1 10.8-2 0.3-4 0.4-6 0.8-16.2 3.3-32.3 6.8-48.5 10-22.4 4.5-44.4 10.8-66.2 17.7-3.4 1.1-5.6 2.2-4.3 6.3 4.9 15.8 7.6 32.1 11.1 48.2 3.4 15.9 7.1 31.7 9.8 47.7 5.6 33.1 10.1 66.2 13.3 99.6 3 32.1 9.5 63.8 11.3 96 0.2 4.2 2.2 5.9 6 6.4 6 0.7 7-1.4 6.2-11.1-3.5-39.7-6.9-79.4-10.6-119.1-0.4-4.7 1.4-9.6-1.4-14.1 0.2-1.5 0.5-3 0.5-4.4-0.3-22.6-3.4-44.9-6.7-67.2-3.1-20.5-2.7-41.4-7.6-61.7-0.9-3.9-3.6-8.1-0.7-12.4 16-11.4 35.8-13 53.4-20.8 14.6-6.5 31-9.1 46.6-13.5 10.6-1.9 21.1-3.8 31.7-5.8 29.4-2.5 57.8-11.2 87.2-14.3 1.8-0.2 4.4 0.1 4-3.2-0.4-3.5-2.9-3.8-5.5-3.5-15.7 1.8-31.5 0.3-47.1 1.7-12.1 0.9-23.9 2.4-35.4 5.9zm-94.9 270.2c4 36.3 5.9 72.7 11.1 108.9 0.5 3.5 2.1 5.4 5.7 5.9 6.5 1 13 2 19.4 3.5 23.4 5.4 47.1 5.3 70.9 5 6.3-0.3 12.6-0.1 18.9-0.9 18.1-2.2 36.5-3 54-7.5 24.9-6.4 50-12.5 73.5-23.5 18.5-4.1 18.5-4.1 16.4-19.8 0-3.5 0.1-7.1 0.1-10.6 0.4-35 1.2-70.1-2.6-105.1-5-46-7.9-92.1-13.8-138-2.6-20.2-5.5-40.3-10-60.1-0.5-2.4-0.3-5.2-4-5.4-7.8-0.4-15.4-2.8-23.4-2.6-22.4 0.5-44.6 1.9-66.7 5.8-42 7.4-85 9.1-126.4 19.9-13.8 3.6-28.1 4.3-41.5 9.2-16.9 6.2-16.8 6.4-9.4 23.2 4 12.4 4 25.5 7 38.1 6.9 29.6 11.8 59.6 13.5 90.1 1.2 21.4 5 42.6 7.3 63.9z"/><path class="st1" d="m174.4 316.6c3.6 1.2 3.9 4.5 4.5 7.4 3.7 18.4 11.9 35.1 20.5 51.4 8.9 17 24.4 25.6 42.3 31 18.5 5.5 37.3 6.9 56.4 6.4 9.7-0.3 19.2 1.3 28.7 2.3 15.9 1.7 31.2-2.3 45.6-9.2 4.1-2 7.9-4.5 12.4-5.6 3.5-0.8 6.6-2.5 8.8-5.6 5.3-7.5 12.8-10.4 21.6-10.9 0 3.5-0.1 7.1-0.1 10.6-9.4 3.2-17.3 12.7-16.4 19.8-23.5 11.1-48.6 17.2-73.5 23.5-17.5 4.5-36 5.3-54 7.5-6.2 0.8-12.6 0.6-18.9 0.9 0.1-7-4.3-10.4-10.2-12.5-16.3-5.7-31.8-13.3-47.4-20.6-5.3-2.5-10.1-5.7-13.9-10.3-12.3-14.9-18.2-32.7-22.9-50.8-2.6-9.8-9.6-17.7-10.8-28 0-0.4-1.3-0.7-1.9-1-2.3-21.3-6.1-42.5-7.3-63.9-1.7-30.4-6.6-60.4-13.5-90.1-3-12.6-2.9-25.7-7-38.1 2.4-3.6 0.5-7.9 2.1-11.7 1.5-3.5 2.4-8 7-7.8 4.5 0.2 5.8 4.5 6.5 8.3 3.2 17.2 5.7 34.5 9.5 51.5 4.2 18.7 6.6 37.9 13.4 56 0.6 1.6 1.7 3 2.5 4.6-1.6 28.9-1.7 57.6 6 85.9 0.7 2.5 1.3 5.2 4.5 5.3 4.2 0.1 4.4-3.5 5.5-6.3z"/><path class="st2" d="m119.6 251.8c2.7 4.5 1 9.4 1.4 14.1 3.6 39.7 7 79.4 10.6 119.1 0.9 9.6-0.2 11.8-6.2 11.1-3.8-0.5-5.7-2.1-6-6.4-1.8-32.2-8.2-63.9-11.3-96-3.1-33.4-7.7-66.6-13.3-99.6-2.7-16-6.4-31.9-9.8-47.7-3.5-16.1-6.1-32.4-11.1-48.2-1.3-4.1 0.9-5.3 4.3-6.3 21.8-6.9 43.7-13.2 66.2-17.7 16.2-3.2 32.3-6.7 48.5-10 2-0.4 4-0.6 6-0.8 2.9 2.2 13.6-1.4 6.2 8.4-15.6 4.3-32 6.9-46.6 13.5-17.6 7.7-37.5 9.3-53.5 20.8-7.7 1.7-11.7 7.5-12.9 14.3-2.8 15.5-3.6 31.1 1.9 46.4 3.3 9.3 5.9 18.8 8.7 28.3 5.7 18.9 11.3 37.8 16.9 56.7z"/><path class="st2" d="m145.1 322.8c0.7 0.3 1.9 0.6 1.9 1 1.2 10.3 8.3 18.2 10.8 28 4.7 18.2 10.6 36 22.9 50.8 3.9 4.6 8.6 7.8 13.9 10.3 15.6 7.3 31.1 14.9 47.4 20.6 5.9 2.1 10.3 5.5 10.2 12.5-23.8 0.3-47.5 0.4-70.9-5-6.4-1.5-12.9-2.5-19.4-3.5-3.6-0.6-5.2-2.4-5.7-5.9-5.3-36.1-7.1-72.5-11.1-108.8z"/><path class="st1" d="m119.6 251.8l-16.8-56.7c-2.8-9.5-5.4-19-8.7-28.3-5.5-15.3-4.7-30.9-1.9-46.4 1.2-6.8 5.2-12.6 12.9-14.3-2.9 4.3-0.2 8.6 0.7 12.4 4.8 20.3 4.5 41.2 7.6 61.7 3.3 22.3 6.4 44.6 6.7 67.2 0 1.4-0.4 2.9-0.5 4.4z"/><path class="st1" d="m240 52.6c2.6 2.1 5.7 1.3 8.6 1.6 1.8 0.2 3.7 0.5 4 2.6 0.4 2.3-1.6 2.7-3.2 3.5-4.2 2.1-9.5 1.5-12.8 5.6-10.6 1.9-21.1 3.8-31.7 5.8 7.4-9.8-3.3-6.2-6.2-8.4 13.6-4.3 27.5-7.5 41.3-10.7z"/><path class="st2" d="m398.7 414.1c-0.9-7 6.9-16.5 16.4-19.8 2 15.7 2 15.7-16.4 19.8z"/><path class="st3" d="m252.2 309.1c-1.6-2.3-2.7-4.7-3-7.6-2.6-29.2-5.2-58.4-8.2-87.6-0.5-4.8 0.9-6.5 5-8.6 11.7-6 23.4-7.9 35.7-2.4 14.2 6.3 20 20.5 13.5 34.6-1.5 3.3-0.8 4.3 1.5 5.9 12.2 7.9 17.3 20 19.8 33.7-1.6 19.9-11.2 32.2-29.4 37.7-5.7 1.7-11.6 3.2-17.1 0.5-5.8-3-11.8-4.6-17.8-6.2zm13.9-19.9c0.4 0.8 0.9 1.5 1.3 2.3 0.2 0.5 0.5 0.8 1.1 0.8 8 7 14.4 6.5 23.3-1.8 6.9-6.2 7-16.8 0.3-26.1-5.7-9.6-13.4-12.6-26.1-10.1-4.9-1.3-6.6 0.8-5.7 5.4 1.9 9.9 3.9 19.7 5.8 29.5zm-3.3-75c-9.9 0.3-9.9 0.3-8 10.1 0.5 2.2 1.3 4.5 1.3 6.7-0.1 6.3 2.7 8 8.3 6 3.8-0.1 7.6-0.8 10.9-2.7 3.5-2 6.3-4.6 6.3-9.5-0.1-4.6-2.9-6.6-6.4-8.4-3.9-2-8-2.9-12.4-2.2z"/><path class="st3" d="m174.4 316.6c-1 2.7-1.2 6.4-5.5 6.2-3.2-0.1-3.8-2.8-4.5-5.3-7.7-28.2-7.6-57-6-85.9 6-11.6 13.6-20.8 28.2-21 12.8-0.2 21.1 5.9 26.3 17 6.6 14 8.2 29.3 10.1 44.3 1.3 9.7 0.2 19.7 2.2 29.5 1.2 6-1.2 10.4-7.3 11.2-6.2 0.8-9-3.4-9.7-9.3-0.4-3.8-1.4-7.5-1.8-11.3-1.1-11.3-1.1-11.3-12.1-11.9-4.3-0.3-8.6-1-12.8-1.7-5.8-1-8.2 0.5-7.6 7.1 1.2 10.4 2.9 20.8 0.5 31.1zm27.3-68.6c-0.3-4.4-1.9-8.4-3.6-12.3-3.2-7-10.1-7.9-16.1-7-5.2 0.8-7.7 6.2-7.7 11.7-0.1 6.6 0.1 13.1 0.2 19.7 6.7 3.8 14 1.3 21 1.6 9.1 0.4 9.1-0.1 6.9-9.5-0.2-0.9-0.3-1.9-0.5-2.8 0.1-0.4 0-0.9-0.2-1.4z"/><path class="st3" d="m329.4 220.9c4.6-10.3 10-19.8 21.3-24.3 9.2-3.6 17.3-1 25 4.1 2.2 1.5 3.5 3.8 2.5 6.5-1.1 2.9-3.3 4.4-6.5 4.2-4.3-0.2-8.5-0.3-12.8-0.5-5.2 0.3-8.1 3.9-10.5 7.9-8.7 14.4-7.2 29.2-0.3 43.6 2 4.2 5.2 8.3 10.9 8.3 6.4 1.9 10.4-0.7 13.3-6.5 5.3-10.4 12.9-10.6 19.8-0.9-0.1 8.1-3.6 14.7-9.4 20.1-17.7 16.3-46.4 6.4-53.6-17.9-4.3-15-4.3-29.8 0.3-44.6z"/><path class="st1" d="m252.2 309.1c6.1 1.6 12 3.3 17.8 6.1 5.5 2.7 11.5 1.2 17.1-0.5 18.2-5.5 27.8-17.8 29.4-37.7 4.3 2.8 3.8 7.6 4.1 11.6 1.5 17.1-14.2 35.8-31.4 37-8.8 0.6-17.7 1.3-26.4-2-6.8-2.6-11.3-6.6-10.6-14.5z"/><path class="st1" d="m329.4 220.9c-4.5 14.9-4.6 29.6-0.1 44.7 7.2 24.3 35.9 34.2 53.6 17.9 5.8-5.3 9.3-11.9 9.4-20.1 5 0.6 4.9 4.3 4.9 8 0.3 17.5-17.1 28.7-31.7 27.6-25-1.9-43.1-22.5-43-47.6 0-8.1-1-16.3 1.4-24.2 0.8-3.2 1.4-6.2 5.5-6.3z"/><path class="st1" d="m359.1 270.8c-5.7-0.1-8.9-4.1-10.9-8.3-6.9-14.4-8.4-29.2 0.3-43.6 2.4-4 5.3-7.6 10.5-7.9 0.1 2.9-0.7 5.5-2.4 7.9-9.3 13.1-7.7 26.7-1.8 40.4 1.7 4 4.7 6.5 8.3 8.5-0.5 2.4-3.2 1.4-4 3z"/><path class="st1" d="m266 254.3c2.7 10.8 2.3 22.1 5.5 32.8 0.8 2.6-0.2 4.4-3 5.2-0.6 0-0.9-0.3-1.1-0.8-0.4-0.8-0.9-1.5-1.3-2.3-2-9.8-4-19.7-5.9-29.5-0.8-4.6 0.9-6.7 5.8-5.4z"/><path class="st1" d="m262.8 214.2c2 7.5 1.5 15.2 1.6 22.8-5.6 1.9-8.5 0.2-8.3-6 0.1-2.2-0.8-4.5-1.3-6.7-1.9-9.8-1.9-9.8 8-10.1z"/><path class="st1" d="m291.8 290.5c-2.9-8.8-7.9-17.5 0.3-26.1 6.7 9.3 6.6 19.9-0.3 26.1z"/><path class="st4" d="m266.1 289.2c0.4 0.8 0.9 1.5 1.3 2.3-0.4-0.7-0.8-1.5-1.3-2.3z"/><path class="st1" d="m174.5 260.2c-0.1-6.6-0.3-13.1-0.2-19.7 0.1-5.5 2.6-10.9 7.7-11.7 6-1 12.9-0.1 16.1 7 1.8 3.9 3.3 7.9 3.6 12.3-0.1 0.2-0.2 0.4-0.2 0.5 0.1 0.3 0.2 0.7 0.4 1 0.2 0.9 0.3 1.9 0.5 2.8-5.3-0.8-8.8-4.4-12.4-7.9-1.7-1.6-2.2-5.4-5.4-4.3-2.4 0.8-2.9 3.9-3.8 6.2-1.8 4.7-1.1 10.6-6.3 13.8z"/><path class="st5" d="m201.9 249.5c-0.1-0.3-0.3-0.6-0.4-1 0-0.1 0.1-0.3 0.2-0.5 0.2 0.5 0.3 1 0.2 1.5z"/></svg>
