<?xml version="1.0" encoding="UTF-8" standalone="no"?>
<!-- Generator: Adobe Illustrator 19.2.1, SVG Export Plug-In . SVG Version: 6.00 Build 0)  -->

<svg
   xmlns:dc="http://purl.org/dc/elements/1.1/"
   xmlns:cc="http://creativecommons.org/ns#"
   xmlns:rdf="http://www.w3.org/1999/02/22-rdf-syntax-ns#"
   xmlns:svg="http://www.w3.org/2000/svg"
   xmlns="http://www.w3.org/2000/svg"
   xmlns:sodipodi="http://sodipodi.sourceforge.net/DTD/sodipodi-0.dtd"
   xmlns:inkscape="http://www.inkscape.org/namespaces/inkscape"
   version="1.1"
   x="0px"
   y="0px"
   width="500px"
   height="500px"
   viewBox="0 0 500 500"
   style="enable-background:new 0 0 500 500;"
   xml:space="preserve"
   id="svg4174"
   inkscape:version="0.91 r13725"
   sodipodi:docname="great-value-2.svg"><metadata
     id="metadata4262"><rdf:RDF><cc:Work
         rdf:about=""><dc:format>image/svg+xml</dc:format><dc:type
           rdf:resource="http://purl.org/dc/dcmitype/StillImage" /><dc:title></dc:title></cc:Work></rdf:RDF></metadata><defs
     id="defs4260" /><sodipodi:namedview
     pagecolor="#ffffff"
     bordercolor="#666666"
     borderopacity="1"
     objecttolerance="10"
     gridtolerance="10"
     guidetolerance="10"
     inkscape:pageopacity="0"
     inkscape:pageshadow="2"
     inkscape:window-width="1920"
     inkscape:window-height="1017"
     id="namedview4258"
     showgrid="false"
     inkscape:zoom="1.888"
     inkscape:cx="280.35962"
     inkscape:cy="275.17945"
     inkscape:window-x="-8"
     inkscape:window-y="-8"
     inkscape:window-maximized="1"
     inkscape:current-layer="svg4174" /><style
     type="text/css"
     id="style4176">
	.st0{display:none;}
	.st1{display:inline;}
	.st2{fill:#3186CF;}
	.st3{fill:#3588CF;}
	.st4{fill:#3487CF;}
	.st5{fill:#D8E7F5;}
	.st6{fill:#B9D5EE;}
	.st7{fill:#FCFDFE;}
	.st8{fill:#FEFEFE;}
</style><g
     id="Layer_2" /><g
     style="display:none"
     class="st0"
     id="Layer_1_1_"><g
       style="display:inline"
       class="st1"
       id="BG"><rect
         style="fill:#3186cf"
         y="0"
         x="0"
         id="rect4182"
         height="500"
         width="500"
         class="st2" /></g></g><path
     class="st3"
     d="m 320.3,53 c 4.5,2.7 5.2,6.6 4.5,11.5 -1,6.5 -1.4,13 -2.2,19.5 -0.6,4.6 -3.9,7.6 -7.8,7.3 -4.3,-0.3 -7.3,-4 -6.8,-8.7 0.8,-8 2.2,-16 4.4,-23.8 0.8,-2.8 2.9,-4.1 4.8,-5.7 1.1,-0.1 2.1,-0.1 3.1,-0.1 z"
     id="path4186"
     inkscape:connector-curvature="0"
     style="fill:#46b2e4;fill-opacity:1" /><path
     class="st3"
     d="m 48.2,180.8 c 2.7,-4.4 6.5,-5.1 11.1,-3.6 7.2,2.4 14.1,5.4 20.1,10.2 3.6,2.8 5,6.1 2.4,10.3 -2.2,3.6 -6.1,4.3 -10.4,1.8 -8.1,-4.7 -17,-8.2 -23.2,-15.6 0,-1.1 0,-2.1 0,-3.1 z"
     id="path4188"
     inkscape:connector-curvature="0"
     style="fill:#46b2e4;fill-opacity:1" /><path
     class="st4"
     d="m 187.4,402.1 c -5.9,-3.5 -11.7,-7.3 -17.8,-10.5 -12.9,-6.6 -23.7,-16.1 -35.2,-24.5 -7.2,-5.3 -6.4,-13.8 1.3,-20.1 2.5,-2.1 4.2,-3.3 0.6,-5.9 -1.7,-1.2 -2,-3.5 -2.1,-5.6 -1.1,-21.6 -3.2,-43 -6.2,-64.4 -3.5,-24.6 -5.1,-49.3 -6,-74.1 -0.5,-13.4 -2.5,-26.7 -3.5,-40.1 -0.5,-6.2 3,-10.3 9.1,-10.1 17.4,0.7 34.3,-2.1 51.4,-5.1 5.8,-1 11.9,-2.6 17.9,-0.9 2.9,0.8 2.6,-1.6 2.9,-3.1 0.9,-5.3 2.8,-10.3 4.3,-15.4 2.3,-7.9 9.3,-10.2 17,-8.5 8.1,1.7 15.7,5.1 23.5,8.2 2.9,1.1 5.9,2.1 8.8,3.1 3.1,1.1 5.6,0.8 7.1,-2.6 3,-6.8 13.7,-10.3 21,-7.2 17.8,7.4 34.9,15.7 50.4,27.3 9.3,6.9 19.5,12.4 28.6,19.6 15.6,12.3 32.6,22.7 48.6,34.3 6.3,4.6 10.2,17.9 7.1,25.1 -4.8,11.5 -11.7,21.8 -17.9,32.6 -8.3,14.4 -19,27.1 -27.5,41.4 -0.9,1.5 -1.7,2.9 -2.6,4.5 14.8,3.9 27.7,10.7 39.7,19.9 11.1,8.5 16,20.5 19.4,33.3 3,11.6 4.1,23.6 3,35.5 -1.4,15.4 -8.6,28.1 -21.2,37.1 -27.2,19.4 -52.7,18.7 -79.8,4.1 -9.7,-5.3 -18.1,-12 -24.3,-21.3 -2.3,-3.4 -2.8,-0.1 -3.6,1.2 -5.3,8.5 -10.2,17.2 -14.6,26.2 -0.2,0.3 -0.3,0.6 -0.5,0.9 -6.5,11.4 -12.7,13.4 -24.3,7.3 -10,-5.3 -20.8,-9.4 -29.9,-16.5 -3.8,-4.1 -8.6,-6.5 -13.5,-9 -10.5,-5.5 -20.8,-11.2 -31.2,-16.7 z m 126.6,-67.6 0.1,-0.1 c -1.6,1.4 -2.4,3.3 -2.9,5.3 -0.2,0.2 -0.3,0.4 -0.2,0.7 -1.6,3.1 -3.5,6 -2.9,9.7 -2.1,7.1 -1,14.4 -1.7,21.6 -1.8,18.6 6.7,32.8 21,42.9 16.2,11.4 34.2,17.8 54.4,10.8 2.9,-0.9 6.2,-0.9 8.4,-3.5 10.2,-3.8 18.4,-9.8 22.7,-20.2 0.5,-0.9 1,-1.8 1.5,-2.6 0.2,-0.7 0.4,-1.4 0.6,-2 0.3,-0.7 0.5,-1.4 0.8,-2.1 0.2,-0.6 0.4,-1.2 0.6,-1.8 1.8,-7.8 1.5,-15.7 0.7,-23.6 -2,-19.9 -8.3,-37.1 -27.4,-47.5 -9.8,-5.4 -20.1,-9.8 -30.9,-11 -11.4,-1.2 -22.6,2.4 -31.9,9.8 -3,4.8 -9,6.6 -11.6,11.8 -0.5,0.5 -0.9,1.1 -1.3,1.8 z M 219.1,136.1 c -0.9,4.1 -1.9,8.2 -2.8,12.4 -1,1.3 -1,2 0.9,2.4 6.1,1.1 15,-3.6 17.8,-9.4 0.9,-1.8 0.7,-2.8 -1.3,-3.5 -3.8,-1.3 -7.5,-2.7 -11.1,-4.2 -2.5,-1 -3.2,0.2 -3.5,2.3 z m 54.4,278.3 c 2,-3.5 3.9,-7 5.9,-10.5 -7.3,-1.5 -19.4,-1.4 -23.5,0.2 -2.9,0.3 -5,2.2 -7.1,3.9 -1.5,1.2 -2.2,2.6 0.2,3.9 4.3,2.4 8.5,5.1 12.7,7.6 6.6,3.8 6.6,3.8 10.4,-2.8 0.5,-0.8 0.9,-1.5 1.4,-2.3 z M 161.9,211.8 c -9,6.2 -11.9,15.8 -13,25.8 -0.7,6.6 -0.1,13.4 4.4,19 3.1,3.8 4.2,3.7 5.7,-1 3,-9.1 5.1,-18.5 9.6,-27.1 3.9,-7.9 6.9,-16.2 9.2,-24.9 -6.2,0.4 -12.2,3.6 -15.9,8.2 z m 55.6,-49.9 c -4.5,-2.3 -6.6,-0.8 -7.2,4.1 -0.6,4.4 -2.2,8.6 -3.8,12.9 -2.1,5.6 -3.9,11.4 -6,17.9 4.4,-2.1 7.6,-3.6 10.9,-5.1 4,-0.9 8.1,-2 12.2,-1.8 2.2,0.1 2.9,-1.1 3.6,-2.8 4.2,-9.2 8.8,-18.3 12.7,-27.6 1.7,-4.2 4.5,-8 6,-13.3 -13.8,13.7 -15.8,14.7 -28.4,15.7 z m -56.1,34.7 c 6.2,-1.2 12,-4.7 18.6,-3.2 1.8,0.4 2.5,-1.1 3,-2.3 3.8,-9.4 7.1,-19 9.7,-28.8 0.6,-2.5 -0.2,-3.5 -2.9,-3.1 -7.1,1 -14.3,1.9 -21.4,2.7 -1.7,0.2 -3.1,0.5 -2.9,2.7 0.7,7.3 -2.9,13.3 -6.1,19.4 -2.7,2.4 -5.5,4.7 -9,5.9 -3.5,1.2 -8.7,0.5 -10.3,3.4 -1.7,3.1 -0.6,7.7 -0.4,11.7 0.2,4.3 -0.8,8.6 0.9,14 4.6,-10.8 12.6,-16.7 20.8,-22.4 z M 264.3,162 c -4.4,-5.2 -4.4,-5.2 -7.3,0.8 -1.2,2.5 -2.1,5 -3.2,7.5 -2.2,2.7 -3.1,6 -4.2,9.2 -5.3,10.3 -9.9,20.9 -16.9,30.2 -0.7,1 -1.5,1.9 -2.1,2.9 -7.4,12 -14.7,24.1 -22.2,36.1 -10.1,16.1 -20.3,32.2 -30.5,48.2 -6.1,11.4 -13.2,22.2 -18.7,33.9 -1,2.1 -0.1,2.7 1.4,3.5 2.9,1.6 6,3.1 7.7,6 5.2,9.5 9.1,19.4 7.5,30.5 -0.3,2.4 1,3 2.5,3.8 5.4,2.7 11.1,5 16.1,8.3 10.3,6.7 21.5,11.8 32.3,17.4 4.4,2.3 8.8,4.4 11.7,-2.2 0.6,-1.3 2.1,-2.3 3.1,-3.4 2.8,-1.7 5.6,-3.4 8.4,-5.1 9.6,-3.2 19.4,-2.5 29.3,-2.2 10.3,0.4 11.7,-0.3 15.5,-9.7 1.2,-2.9 0.7,-5.8 0.6,-8.7 -0.2,-14.2 1.8,-27.9 8.8,-40.5 0.1,-0.4 0.3,-0.8 0.4,-1.2 -0.4,0.1 -0.8,0.3 -1.2,0.4 -10.6,6.2 -21.6,10 -34.4,7.8 -11,-1.9 -21.8,-4 -30.9,-10.7 -17.9,-13.3 -27.7,-30.9 -26.9,-53.6 2.3,-14.9 5.9,-29.3 15.9,-41.3 0.8,-1.1 1.6,-2.2 2.5,-3.3 5.9,-7.1 12,-13.7 21.7,-15.6 14.4,-2.8 28.5,-0.9 42.6,1.7 4.4,0.8 8.5,2.6 12.4,5.1 11.8,7.6 20.1,18.2 25.8,30.9 4.5,10.2 6.6,20.5 4.4,31.8 -1.7,8.9 -3.9,17.6 -8.8,25.7 3.1,0.2 4.8,-1.3 6.8,-2.3 3.7,-1.1 8.1,-0.4 10.6,-4.4 9.4,-14.7 18.4,-29.6 29,-43.4 1.8,-2.3 1.3,-3.6 -1,-5.2 -15.4,-10.5 -15.2,-37.6 -7,-50.4 3.7,-5.8 4,-5.7 -1.3,-9.8 -0.8,-0.6 -1.7,-1.1 -2.6,-1.6 -10,-8.3 -20.5,-15.9 -31.2,-23.2 -4.1,-3.1 -8.5,-5.9 -12.2,-9.4 -3.8,-3.5 -6.2,-3.7 -9.4,0.8 -4.2,5.9 -9.9,10.3 -17.3,11.2 -10.1,1.1 -19.3,-1 -27.7,-6.5 z m 52,108.1 c 0.5,-8 -4.1,-14.3 -7.6,-20.6 -5,-8.9 -12.6,-15.7 -23.2,-17.5 -5.9,-1 -12,-1.8 -18,-2.2 -6.9,-0.5 -13.9,-1 -19.3,4.8 -9,7.3 -16.3,15.6 -18.9,27.4 -0.6,2.7 -1.5,5.4 -2.9,7.7 -2.5,4.1 -2.3,8.2 -0.7,12.4 5.8,15.5 16.5,26.2 32.3,30.9 7.7,2.3 15.8,3.1 23.9,1.7 4.2,-0.7 7.3,-3.9 11,-5.5 17,-7.5 23.1,-21.5 23.4,-39.1 z m 61.2,-51.3 c -0.3,6.4 0.4,11.7 3.8,16.2 2.1,2.8 4.2,4.1 6.1,-0.5 1.9,-4.4 4.2,-8.6 7.1,-12.5 4.9,-6.7 4.8,-6.8 -2,-11.4 -1,-0.7 -1.8,-1.7 -2.9,-2.2 -2.9,-1.4 -5.1,-6.3 -8.1,-4.6 -2.7,1.5 -3.4,6.2 -4,9.7 -0.3,2.1 0,4.2 0,5.3 z M 286.1,153 c 0.1,0 1.5,0.1 2.9,-0.2 4.4,-1 7.7,-4.1 8.9,-7.9 1.1,-3.4 -4,-3.2 -5.9,-5.1 -0.7,-0.7 -1.8,-1 -2.7,-1.5 -4.3,-2.4 -9.2,-7.4 -12.9,-6.7 -4.3,0.9 -5.1,8.3 -8.1,12.4 -0.3,0.4 -0.5,0.9 -0.8,1.3 -1.3,1.5 -0.6,2.4 0.8,3.1 5.2,2.7 10.4,5.5 17.8,4.6 z m -106.2,91.2 c -3.6,14.9 -9.8,27.4 -11.1,41.3 5.5,-8.9 10.6,-18 15.8,-27 0.7,-1.3 0.3,-2.3 -0.3,-3.3 -1.9,-2.9 -2.7,-6.3 -4.4,-11 z m -27.2,-77.3 c 0.4,-2.5 -1.1,-2.9 -3.4,-2.8 -3.5,0.1 -6.8,1.8 -10.5,0.1 -1.9,-0.9 -2.5,1.5 -2.1,3 0.9,3.7 1,7.5 1,11.2 0,2.2 1,2.5 2.9,2.2 6.1,-0.9 12,-7.5 12.1,-13.7 z m -7.9,107.3 c 0.4,9.6 1,18.7 2.3,28.1 0.8,-0.7 1,-0.7 1,-0.9 1.1,-4.5 2.2,-9 3.3,-13.6 2.1,-7.9 1.8,-8.6 -6.6,-13.6 z m 53.5,-38.5 c 5.9,-10.5 11,-19.6 16.5,-29.4 -9.5,3.3 -17.1,16.6 -16.5,29.4 z m -36.7,128.7 c -0.6,-6.1 -2.4,-11.4 -5.1,-16.4 -1.4,-2.7 -3.1,-3 -4.3,0.5 -0.8,2.3 -2.1,4.3 -3.9,6 -1.5,1.4 -1.6,2.4 0.5,3.4 4.2,2 8.2,4.1 12.8,6.5 z"
     id="path4190"
     inkscape:connector-curvature="0"
     style="fill:#46b2e4;fill-opacity:1" /><path
     class="st3"
     d="m 170,81 c 0.2,3.8 -1,6.8 -4.6,7.9 -3.3,1 -5.5,-1.4 -7.1,-4 -4.4,-7.5 -6.1,-16 -7.4,-24.4 -0.5,-3.1 1.8,-5.1 4.7,-5.9 2.8,-0.8 5.4,0.2 6.6,2.7 3.8,7.5 5.4,15.7 7.8,23.7 z"
     id="path4192"
     inkscape:connector-curvature="0"
     style="fill:#46b2e4;fill-opacity:1" /><path
     class="st3"
     d="m 430.9,164.3 c -2.3,0 -3.9,-1 -4.9,-3.1 -1,-2 -0.3,-3.9 1,-5.2 4.6,-4.6 9.2,-9.3 14.1,-13.6 2.4,-2.2 5.6,-1.9 8.1,0.2 2.3,1.9 3.3,4.3 2.3,7.4 -1.8,4.8 -15.4,14.4 -20.6,14.3 z"
     id="path4194"
     inkscape:connector-curvature="0"
     style="fill:#46b2e4;fill-opacity:1" /><path
     class="st5"
     d="m 368.9,402.7 c 3.1,3.2 6.8,0.3 10.2,0.7 5.1,0.6 10.4,-1 14.9,-4.4 4.9,-3.7 10.7,-5.4 16.5,-6.9 2.3,-0.6 4,-0.3 5.9,0.8 -0.2,0.6 -0.4,1.2 -0.6,1.8 -1.5,0.2 -2.4,0.7 -0.8,2.1 -0.2,0.7 -0.4,1.4 -0.6,2 -1.4,0.4 -1.5,1.5 -1.5,2.6 -4.3,10.4 -12.5,16.4 -22.7,20.2 -3.2,0.4 -6.4,0.5 -8.4,3.5 -20.2,7 -38.2,0.6 -54.4,-10.8 -14.3,-10.1 -22.8,-24.3 -21,-42.9 0.7,-7.2 -0.4,-14.5 1.7,-21.6 3.3,-2.5 2.5,-6.3 2.9,-9.7 -0.1,-0.3 -0.1,-0.5 0.2,-0.7 2.9,-0.7 2.9,-3 2.9,-5.3 0,0 -0.1,0.1 -0.1,0.1 0.9,-0.3 1.1,-1.2 1.2,-2 2.7,-5.1 8.6,-7 11.6,-11.8 3.7,1.9 1.3,4.7 0.5,6.7 -4.3,10.1 -5.7,20.6 -6.2,31.6 -0.6,13.1 4.9,22.8 13.3,31.7 4.9,5.2 10.3,9.6 17.9,10.2 0.6,4.8 4.2,7.8 8.1,8.2 3.6,0.7 6.8,-2.4 8.5,-6.1 z"
     id="path4196"
     inkscape:connector-curvature="0"
     style="fill:#d8e7f5" /><path
     class="st5"
     d="m 232.7,209.7 c 2.6,1.8 0.2,3.3 -0.5,4.8 -2.2,5 -5,9.8 -5.3,15.4 -9.9,12 -13.6,26.3 -15.9,41.3 -3.5,2.3 -3,6.3 -3.7,9.5 -2.4,12.1 -5.6,24.2 -6,36.4 -0.6,16.7 1.3,33.1 13.6,46.7 8.3,9.1 18.7,14.9 28.6,21.5 2.1,1.4 4.3,2.9 6.4,4.3 -2.8,1.7 -5.6,3.4 -8.4,5.1 -13.7,-7.9 -27.5,-15.9 -41.2,-23.8 -1.8,-1 -3.4,-2 -4.9,-3.6 -5.1,-5.6 -7.6,-12.3 -9.2,-19.4 -2.3,-11 -3.4,-22.1 -3.2,-33.3 0.1,-6.2 0,-12.9 -5.2,-17.8 10.2,-16.1 20.4,-32.1 30.5,-48.2 7.5,-12 14.8,-24.1 22.2,-36.1 0.7,-0.9 1.5,-1.8 2.2,-2.8 z"
     id="path4198"
     inkscape:connector-curvature="0"
     style="fill:#d8e7f5" /><path
     class="st5"
     d="m 316.3,270.1 c -0.3,17.5 -6.4,31.6 -23.4,39.1 -3.7,1.7 -6.8,4.8 -11,5.5 -8.1,1.4 -16.2,0.5 -23.9,-1.7 -15.9,-4.7 -26.5,-15.4 -32.3,-30.9 -1.6,-4.2 -1.7,-8.3 0.7,-12.4 1.4,-2.3 2.3,-5 2.9,-7.7 2.5,-11.8 9.9,-20.1 18.9,-27.4 5.1,1.5 3.8,5 2.6,8.4 -0.6,-0.2 -1.3,-0.5 -1.9,-0.7 -2.2,-0.7 -4.6,-1.4 -6,1 -1.4,2.4 0.5,3.7 2.3,4.9 1,0.6 2.2,1.4 0.9,2.8 -1,1.1 -2,2 -3.5,1 -1.7,-1.1 -3.4,-1 -4.6,0.6 -1.6,2 -0.3,3.5 1,5 0.8,0.9 1.6,1.7 0.8,3.1 -1.9,3.9 -2.1,8.3 -3.1,12.5 -2,8.7 3.2,16.2 11.8,18.9 8.2,2.6 13.5,-1.4 18.6,-6.7 2.1,0.2 4.6,-0.4 5.6,2.4 -0.9,0.5 -1.8,1 -2.6,1.6 -2.4,1.9 -3.6,4.3 -2,7.2 1.5,2.7 3.9,4.1 6.9,2.9 3.5,-1.3 7.4,-1.8 10.5,-4.3 2.9,-2.4 5.7,-3.4 9.3,-1.1 2.1,1.4 4.4,0.8 6,-1.2 1.3,-1.7 1.2,-3.5 0,-5.3 -0.8,-1.2 -3.3,-1.6 -1.4,-4 2,-2.6 3.2,-0.4 4.8,0.3 2.4,1 4.4,0.6 5.9,-1.5 1.6,-2.3 0.8,-4.3 -1.1,-5.9 -1,-0.9 -2.2,-1.6 -3.3,-2.4 2.5,-3.6 6.3,-4.5 10.6,-4 z"
     id="path4200"
     inkscape:connector-curvature="0"
     style="fill:#d8e7f5" /><path
     class="st6"
     d="m 177.9,297 c 5.2,4.9 5.3,11.5 5.2,17.8 -0.2,11.3 0.8,22.4 3.2,33.3 1.5,7.1 4.1,13.8 9.2,19.4 1.5,1.6 3.1,2.6 4.9,3.6 13.8,7.9 27.5,15.8 41.2,23.8 -1.1,1.1 -2.6,2 -3.1,3.4 -2.9,6.6 -7.3,4.5 -11.7,2.2 -10.8,-5.7 -22,-10.7 -32.3,-17.4 -5,-3.3 -10.7,-5.6 -16.1,-8.3 -1.6,-0.8 -2.9,-1.4 -2.5,-3.8 1.6,-11.1 -2.3,-21 -7.5,-30.5 -1.6,-2.9 -4.8,-4.4 -7.7,-6 -1.5,-0.8 -2.4,-1.4 -1.4,-3.5 5.4,-11.9 12.5,-22.7 18.6,-34 z"
     id="path4202"
     inkscape:connector-curvature="0"
     style="fill:#b9d5ee" /><path
     class="st5"
     d="m 334.2,303.9 c 3.1,-14.3 8.7,-27.5 17.2,-39.5 1,-1.4 2,-2.8 3.1,-4.1 1.4,-1.7 1.2,-2.8 -0.6,-4.2 -19.5,-15.2 -14.6,-46.1 -0.7,-58.9 2.9,-2.7 5.8,-5.4 8.7,-8.1 0.9,0.5 1.8,1 2.6,1.6 5.3,4.1 5.1,3.9 1.3,9.8 -8.2,12.8 -8.4,39.9 7,50.4 2.3,1.6 2.8,2.9 1,5.2 -10.6,13.8 -19.6,28.7 -29,43.4 -2.5,4 -6.9,3.3 -10.6,4.4 z"
     id="path4204"
     inkscape:connector-curvature="0"
     style="fill:#d8e7f5" /><path
     class="st5"
     d="m 330.7,165.9 c -1,11.9 -8.9,20.6 -21.5,23 -12.8,2.5 -25.5,1.6 -38,-2.2 -4.3,-1.3 -7.7,-4.6 -10.6,-8 -3.1,-3.7 -5.8,-5.3 -8.5,0.3 -0.5,1 -1.2,2.5 -2.5,0.6 1.1,-3.2 2,-6.5 4.2,-9.2 1.6,2.3 3,3.1 4.7,-0.1 1.6,-2.9 3.8,-5.5 5.7,-8.2 8.4,5.5 17.7,7.6 27.5,6.4 7.4,-0.9 13.1,-5.3 17.3,-11.2 3.2,-4.5 5.6,-4.3 9.4,-0.8 3.8,3.5 8.2,6.3 12.3,9.4 z"
     id="path4206"
     inkscape:connector-curvature="0"
     style="fill:#d8e7f5" /><path
     class="st5"
     d="m 168.5,228.5 c -4.5,8.6 -6.6,18 -9.6,27.1 -1.5,4.7 -2.6,4.9 -5.7,1 -4.5,-5.6 -5.1,-12.4 -4.4,-19 1.1,-10 4,-19.6 13,-25.8 2.4,1.7 1.9,4.6 2.6,6.9 1.2,3.4 1.2,7.2 4.1,9.8 z"
     id="path4208"
     inkscape:connector-curvature="0"
     style="fill:#d8e7f5" /><path
     class="st7"
     d="m 377.5,218.8 c 0,-1.1 -0.3,-3.2 0.1,-5.2 0.6,-3.6 1.2,-8.2 4,-9.7 3.1,-1.7 5.2,3.2 8.1,4.6 1.1,0.5 1.9,1.5 2.9,2.2 6.8,4.6 6.9,4.7 2,11.4 -2.9,3.9 -5.3,8.1 -7.1,12.5 -1.9,4.6 -4,3.2 -6.1,0.5 -3.5,-4.6 -4.2,-9.9 -3.9,-16.3 z"
     id="path4210"
     inkscape:connector-curvature="0"
     style="fill:#fcfdfe" /><path
     class="st7"
     d="m 286.1,153 c -7.4,0.9 -12.6,-1.8 -17.8,-4.5 -1.5,-0.8 -2.2,-1.6 -0.8,-3.1 0.3,-0.4 0.5,-0.9 0.8,-1.3 3.1,-4.1 3.8,-11.5 8.1,-12.4 3.7,-0.8 8.5,4.2 12.9,6.7 0.9,0.5 2,0.8 2.7,1.5 1.9,1.9 7,1.7 5.9,5.1 -1.2,3.7 -4.5,6.9 -8.9,7.9 -1.4,0.2 -2.8,0.1 -2.9,0.1 z"
     id="path4212"
     inkscape:connector-curvature="0"
     style="fill:#fcfdfe" /><path
     class="st5"
     d="m 159.3,183.8 c 2.8,3.9 2,8.4 2,12.7 -8.2,5.8 -16.2,11.7 -20.8,22.3 -1.7,-5.4 -0.7,-9.7 -0.9,-14 -0.2,-3.9 -1.2,-8.6 0.4,-11.7 1.6,-3 6.8,-2.2 10.3,-3.4 3.6,-1.2 6.3,-3.5 9,-5.9 z"
     id="path4214"
     inkscape:connector-curvature="0"
     style="fill:#d8e7f5" /><path
     class="st6"
     d="m 273.5,414.4 c -0.4,0.7 -0.9,1.4 -1.3,2.2 -3.8,6.7 -3.9,6.7 -10.4,2.8 -4.3,-2.5 -8.4,-5.1 -12.7,-7.6 -2.4,-1.3 -1.7,-2.7 -0.2,-3.9 2.1,-1.7 4.2,-3.6 7.1,-3.9 1,1.4 2.8,1.7 4.1,1.8 6,0.6 9.9,4.2 13.4,8.6 z"
     id="path4216"
     inkscape:connector-curvature="0"
     style="fill:#b9d5ee" /><path
     class="st5"
     d="m 217.5,161.9 c -2.1,9.9 -4.1,19.8 -6.2,29.7 -3.3,1.5 -6.5,3.1 -10.9,5.1 2.2,-6.6 3.9,-12.3 6,-17.9 1.6,-4.2 3.2,-8.4 3.8,-12.9 0.7,-4.8 2.8,-6.4 7.3,-4 z"
     id="path4218"
     inkscape:connector-curvature="0"
     style="fill:#d8e7f5" /><path
     class="st5"
     d="m 179.9,244.2 c 1.7,4.7 2.5,8.1 4.3,10.9 0.7,1 1.1,2 0.3,3.3 -5.2,9 -10.3,18.1 -15.8,27 1.5,-13.8 7.6,-26.3 11.2,-41.2 z"
     id="path4220"
     inkscape:connector-curvature="0"
     style="fill:#d8e7f5" /><path
     class="st5"
     d="m 152.7,166.9 c 0,6.2 -6,12.8 -12.1,13.8 -1.9,0.3 -3,0 -2.9,-2.2 0.1,-3.8 -0.1,-7.5 -1,-11.2 -0.4,-1.5 0.2,-3.9 2.1,-3 3.7,1.7 7,0 10.5,-0.1 2.3,-0.2 3.8,0.2 3.4,2.7 z"
     id="path4222"
     inkscape:connector-curvature="0"
     style="fill:#d8e7f5" /><path
     class="st5"
     d="m 144.8,274.2 c 8.3,5 8.7,5.7 6.7,13.7 -1.1,4.5 -2.2,9 -3.3,13.6 0,0.1 -0.2,0.2 -1,0.9 -1.4,-9.5 -1.9,-18.6 -2.4,-28.2 z"
     id="path4224"
     inkscape:connector-curvature="0"
     style="fill:#d8e7f5" /><path
     class="st5"
     d="m 198.3,235.7 c -0.5,-12.9 7,-26.1 16.5,-29.4 -5.6,9.8 -10.7,19 -16.5,29.4 z"
     id="path4226"
     inkscape:connector-curvature="0"
     style="fill:#d8e7f5" /><path
     class="st6"
     d="m 161.6,364.4 c -4.6,-2.4 -8.6,-4.6 -12.7,-6.6 -2.1,-1 -2,-2 -0.5,-3.4 1.8,-1.7 3.1,-3.7 3.9,-6 1.2,-3.5 2.8,-3.1 4.3,-0.5 2.6,5.1 4.3,10.4 5,16.5 z"
     id="path4228"
     inkscape:connector-curvature="0"
     style="fill:#b9d5ee" /><path
     class="st5"
     d="m 273.5,414.4 c -3.5,-4.4 -7.4,-8 -13.4,-8.5 -1.4,-0.1 -3.1,-0.4 -4.1,-1.8 4.1,-1.6 16.1,-1.7 23.5,-0.2 -2.1,3.6 -4.1,7 -6,10.5 z"
     id="path4230"
     inkscape:connector-curvature="0"
     style="fill:#d8e7f5" /><path
     class="st6"
     d="m 264.3,162 c -1.9,2.7 -4.1,5.3 -5.7,8.2 -1.8,3.2 -3.1,2.4 -4.7,0.1 1,-2.5 2,-5.1 3.2,-7.5 2.7,-6 2.8,-5.9 7.2,-0.8 z"
     id="path4232"
     inkscape:connector-curvature="0"
     style="fill:#b9d5ee" /><path
     class="st5"
     d="m 219.1,136.1 c 2.7,1.8 3.3,7.7 1.6,11.6 -1.3,3 -2.9,1.4 -4.5,0.7 1,-4.1 2,-8.2 2.9,-12.3 z"
     id="path4234"
     inkscape:connector-curvature="0"
     style="fill:#d8e7f5" /><path
     class="st7"
     d="m 310.9,340.3 c -0.4,3.4 0.4,7.2 -2.9,9.7 -0.5,-3.6 1.4,-6.6 2.9,-9.7 z"
     id="path4236"
     inkscape:connector-curvature="0"
     style="fill:#fcfdfe" /><path
     class="st7"
     d="m 381.7,425.3 c 2,-3 5.3,-3.2 8.4,-3.5 -2.2,2.6 -5.5,2.6 -8.4,3.5 z"
     id="path4238"
     inkscape:connector-curvature="0"
     style="fill:#fcfdfe" /><path
     class="st7"
     d="m 314,334.4 c 0,2.3 0,4.6 -2.9,5.3 0.6,-2 1.3,-3.9 2.9,-5.3 z"
     id="path4240"
     inkscape:connector-curvature="0"
     style="fill:#fcfdfe" /><path
     class="st7"
     d="m 415,396.9 c -1.7,-1.4 -0.7,-1.9 0.8,-2.1 -0.3,0.7 -0.5,1.4 -0.8,2.1 z"
     id="path4242"
     inkscape:connector-curvature="0"
     style="fill:#fcfdfe" /><path
     class="st7"
     d="m 315.2,332.5 c -0.1,0.8 -0.2,1.7 -1.2,2 0.4,-0.7 0.8,-1.3 1.2,-2 z"
     id="path4244"
     inkscape:connector-curvature="0"
     style="fill:#fcfdfe" /><path
     class="st7"
     d="m 412.9,401.6 c 0,-1.2 0.2,-2.3 1.5,-2.6 -0.5,0.8 -1,1.7 -1.5,2.6 z"
     id="path4246"
     inkscape:connector-curvature="0"
     style="fill:#fcfdfe" /><path
     class="st8"
     d="m 303.3,327.8 c 0.4,-0.1 0.8,-0.3 1.2,-0.4 -0.1,0.4 -0.3,0.8 -0.4,1.2 -0.3,-0.3 -0.6,-0.6 -0.8,-0.8 z"
     id="path4248"
     inkscape:connector-curvature="0"
     style="fill:#fefefe" /><path
     class="st3"
     d="m 368.9,402.7 c -1.6,3.7 -4.9,6.8 -8.4,6.5 -3.9,-0.4 -7.5,-3.4 -8.1,-8.2 0.1,-7.8 0.2,-15.5 0.4,-23.3 0.1,-2.8 -1.1,-3.6 -3.7,-3.5 -5.2,0.1 -10.4,-0.1 -15.5,-0.2 -5.1,-0.1 -8.6,-3.4 -8.5,-7.8 0.1,-4.1 3.6,-7.3 8.4,-7.5 5,-0.2 10,-0.3 15,-0.2 3.2,0.1 4.7,-0.6 4.6,-4.2 -0.1,-6.6 0.5,-13.1 0.5,-19.7 0,-4 1.6,-6.8 5.6,-7.5 4.1,-0.7 6.5,1.6 7.7,5.3 2.1,6.2 1.2,12.7 1.5,19 0.3,7 0.2,7 7.3,6.5 3.3,-0.2 6.5,-0.5 9.8,-0.4 5.2,0.1 8.9,3.9 8.9,8.9 0,5 -3.8,8.6 -9,8.6 -4.1,0 -8.3,0.1 -12.4,-0.3 -3.3,-0.3 -4.1,1 -4.1,4.1 0.1,8 0,15.9 0,23.9 z"
     id="path4250"
     inkscape:connector-curvature="0"
     style="fill:#46b2e4;fill-opacity:1" /><path
     class="st3"
     d="m 250.7,243.1 c 1.9,2.4 4.2,2.6 6.9,1.3 2.4,-1.1 4.9,-1.6 7.6,-0.9 2.4,0.6 5,0.7 6,3.4 1.1,2.9 -0.5,4.9 -2.8,6.3 4.5,5.6 9.2,2.3 13.8,1 8.5,-2.4 14.9,-0.6 19.7,6 1.9,2.6 2.8,5.5 2.8,8.7 0,1.8 -0.9,3.8 0.9,5.4 1.1,0.8 2.3,1.6 3.3,2.4 1.9,1.6 2.7,3.6 1.1,5.9 -1.5,2.2 -3.6,2.5 -5.9,1.5 -1.5,-0.7 -2.8,-2.8 -4.8,-0.3 -1.9,2.5 0.6,2.9 1.4,4 1.2,1.8 1.4,3.5 0,5.3 -1.6,2.1 -3.9,2.6 -6,1.2 -3.6,-2.4 -6.4,-1.3 -9.3,1.1 -3,2.5 -6.9,3 -10.5,4.3 -3,1.1 -5.5,-0.2 -6.9,-2.9 -1.6,-2.9 -0.5,-5.3 2,-7.2 0.8,-0.6 1.7,-1.1 2.6,-1.6 2.1,-0.9 4.7,-0.8 6.6,-2.5 -7.8,-8 -7.9,-8 -12.2,0 -5.1,5.3 -10.4,9.3 -18.6,6.7 -8.6,-2.7 -13.8,-10.2 -11.8,-18.9 1,-4.2 1.1,-8.6 3.1,-12.5 0.7,-1.5 0,-2.2 -0.8,-3.1 -1.4,-1.4 -2.6,-3 -1,-5 1.3,-1.6 2.9,-1.7 4.6,-0.6 1.6,1 2.6,0.1 3.5,-1 1.3,-1.4 0.1,-2.2 -0.9,-2.8 -1.8,-1.2 -3.7,-2.5 -2.3,-4.9 1.4,-2.5 3.8,-1.7 6,-1 0.6,0.2 1.3,0.5 1.9,0.7 z m -3,32.8 c -0.1,3.6 1.7,5.5 5.1,5.6 2.5,0.1 7.7,-5 7.9,-7.8 0.1,-0.9 -8.6,-7.3 -9.7,-6.8 -4.1,2 -1.5,6.5 -3.3,9 z m 6.1,-16.3 c 3.4,1.8 6.4,3.4 9.4,5.1 1.3,0.7 2.3,1.5 3.4,-0.3 1.2,-2.1 -0.7,-2.3 -1.7,-3 -1.7,-1.1 -3.7,-2 -5.3,-3.2 -2.3,-1.8 -4,-1.4 -5.8,1.4 z m 36.1,17.7 c -0.2,-0.3 -0.3,-0.7 -0.5,-0.9 -3.9,-2.2 -7.8,-4.3 -11.8,-6.4 -0.3,-0.2 -1.1,0.1 -1.3,0.4 -0.6,0.6 -0.3,1.3 0.3,1.7 3.4,2.3 6.7,4.8 10.2,6.9 1.5,0.9 2.5,-0.3 3.1,-1.7 z"
     id="path4252"
     inkscape:connector-curvature="0"
     style="fill:#46b2e4;fill-opacity:1" /><path
     class="st5"
     d="m 253.8,259.6 c 1.7,-2.8 3.4,-3.2 5.8,-1.4 1.7,1.2 3.6,2.1 5.3,3.2 1,0.7 2.9,0.9 1.7,3 -1,1.9 -2.1,1.1 -3.4,0.3 -2.9,-1.7 -6,-3.3 -9.4,-5.1 z"
     id="path4254"
     inkscape:connector-curvature="0"
     style="fill:#d8e7f5" /><path
     class="st5"
     d="m 289.9,277.3 c -0.6,1.4 -1.5,2.6 -3.1,1.7 -3.5,-2.1 -6.8,-4.6 -10.2,-6.9 -0.6,-0.4 -0.9,-1.1 -0.3,-1.7 0.3,-0.3 1,-0.5 1.3,-0.4 3.9,2.1 7.9,4.2 11.8,6.4 0.2,0.2 0.3,0.6 0.5,0.9 z"
     id="path4256"
     inkscape:connector-curvature="0"
     style="fill:#d8e7f5" /></svg>