<?xml version="1.0" encoding="UTF-8" standalone="no"?>
<!-- Generator: Adobe Illustrator 19.2.1, SVG Export Plug-In . SVG Version: 6.00 Build 0)  -->

<svg
   xmlns:dc="http://purl.org/dc/elements/1.1/"
   xmlns:cc="http://creativecommons.org/ns#"
   xmlns:rdf="http://www.w3.org/1999/02/22-rdf-syntax-ns#"
   xmlns:svg="http://www.w3.org/2000/svg"
   xmlns="http://www.w3.org/2000/svg"
   xmlns:sodipodi="http://sodipodi.sourceforge.net/DTD/sodipodi-0.dtd"
   xmlns:inkscape="http://www.inkscape.org/namespaces/inkscape"
   version="1.1"
   x="0px"
   y="0px"
   width="500px"
   height="500px"
   viewBox="0 0 500 500"
   style="enable-background:new 0 0 500 500;"
   xml:space="preserve"
   id="svg4208"
   inkscape:version="0.91 r13725"
   sodipodi:docname="handshake.svg"><metadata
     id="metadata4698"><rdf:RDF><cc:Work
         rdf:about=""><dc:format>image/svg+xml</dc:format><dc:type
           rdf:resource="http://purl.org/dc/dcmitype/StillImage" /><dc:title></dc:title></cc:Work></rdf:RDF></metadata><defs
     id="defs4696" /><sodipodi:namedview
     pagecolor="#ffffff"
     bordercolor="#666666"
     borderopacity="1"
     objecttolerance="10"
     gridtolerance="10"
     guidetolerance="10"
     inkscape:pageopacity="0"
     inkscape:pageshadow="2"
     inkscape:window-width="1920"
     inkscape:window-height="1017"
     id="namedview4694"
     showgrid="false"
     inkscape:zoom="1.3350176"
     inkscape:cx="104.12756"
     inkscape:cy="300.24859"
     inkscape:window-x="-8"
     inkscape:window-y="-8"
     inkscape:window-maximized="1"
     inkscape:current-layer="svg4208" /><style
     type="text/css"
     id="style4210">
	.st0{display:none;}
	.st1{display:inline;}
	.st2{fill:#3186CF;}
	.st3{fill:#3487CF;}
	.st4{fill:#A7CBEA;}
	.st5{fill:#FEFEFE;}
	.st6{fill:#E1EDF7;}
	.st7{fill:#B9D5EE;}
	.st8{fill:#FDFDFE;}
</style><g
     id="Layer_2" /><g
     style="display:none"
     class="st0"
     id="Layer_1_1_"><g
       style="display:inline"
       class="st1"
       id="BG"><rect
         style="fill:#3186cf"
         y="0"
         x="0"
         id="rect4216"
         height="500"
         width="500"
         class="st2" /></g></g><path
     class="st3"
     d="m 282.8,131.7 c 0.2,0 0.5,-0.1 0.7,-0.1 0.7,0.2 1.4,0.3 1.9,-0.3 0.4,0 0.7,-0.1 1.1,-0.1 2.9,-0.2 5.9,0 8.7,-1 2.4,0 4.8,0 7.2,0 2.5,0.6 5,0.5 7.5,0.6 0.5,0 1,0.1 1.5,0.1 4.2,1.4 8.3,2.8 12.5,4.2 2.4,0.8 4.6,2.2 7.1,2.7 0.2,0.1 0.4,0.2 0.6,0.2 0.3,0.5 0.7,0.9 1.4,0.8 0.2,0.1 0.4,0.2 0.6,0.3 2.9,1.9 6.1,3.1 9.5,3.8 0.2,0 0.4,0.1 0.6,0.1 0.6,0.7 1.4,0.6 2.1,0.4 0.2,0 0.5,0.1 0.7,0.1 0.3,0.4 0.7,0.4 1.2,0.5 6.9,1.3 13.5,3.8 19.9,6.8 1.5,0.7 2.9,1.7 4.3,2.6 0.1,0.1 0.1,0.1 0.2,0.2 1.3,1.7 3.3,2.3 5,3.3 0.7,0.7 1.4,1.4 2.1,2 1.2,1.6 2.4,3.2 4.3,4 0.3,0.3 0.5,0.5 0.8,0.8 0.1,0.3 0.2,0.7 0.4,1 4,8.1 7.2,16.5 10,25 3.4,10 6.9,20.1 9.8,30.2 3,10.1 5.4,20.4 5.9,30.9 0,0.5 -0.1,1.2 0.4,1.6 0,0.2 0,0.5 0.1,0.7 0.1,3.7 0.4,7.3 1.4,11 1.6,6.2 2.3,12.3 -1.1,18.2 -1,1.8 -2.7,2.9 -4,4.4 -0.1,0 -0.2,0.1 -0.3,0.2 -1.6,0.7 -3,1.7 -4.3,2.8 -0.1,0 -0.2,0.1 -0.3,0.1 -3.6,1.5 -7.4,2.3 -11.4,1.7 -1.3,-0.2 -3,-1.1 -3.7,-0.1 -0.7,0.9 0.2,2.6 0.6,3.9 0,0 0.1,0.1 0.1,0.1 0,0.5 0,1 0,1.6 -0.5,2.4 -1.1,4.8 -1.6,7.3 -0.3,1.2 -0.7,2.4 -0.7,3.7 -0.1,3.3 -1.1,6.4 -2.3,9.4 -0.7,1.7 -2.1,3.1 -2.6,5 -0.1,0.1 -0.1,0.2 -0.1,0.3 -0.4,0.1 -0.7,0.4 -0.6,0.9 -0.7,0.7 -1.3,1.5 -2,2.2 -1.1,0.5 -1.8,1.3 -2.3,2.2 -0.1,0 -0.2,0.1 -0.2,0.2 -1.5,1.1 -3.1,2.2 -4.6,3.3 -0.1,0 -0.2,0.1 -0.3,0.1 -1.2,0.2 -2.1,0.8 -2.7,1.8 -0.2,0.2 -0.4,0.3 -0.7,0.5 -1,0.2 -1.8,0.5 -2.5,1.3 -0.2,0.1 -0.4,0.2 -0.6,0.2 -2.5,0.6 -4.4,2.3 -6.9,3 -5.5,1.5 -11.1,2 -16.8,1.9 -0.8,0 -1.7,-0.2 -1.8,0.8 -0.4,2.5 -1.9,4.5 -2.8,6.7 -0.2,0.2 -0.3,0.4 -0.5,0.7 -0.6,0.2 -1,0.5 -1,1.2 -0.2,0.2 -0.4,0.4 -0.5,0.6 -0.6,0.1 -1,0.5 -1.2,1.1 -0.1,0 -0.2,0.1 -0.2,0.2 -1,0.2 -1.6,0.9 -2,1.8 -0.1,0 -0.2,0.1 -0.2,0.2 -0.7,0 -1.1,0.4 -1.3,1 -0.1,0 -0.2,0.1 -0.3,0.2 -0.7,0 -1.1,0.4 -1.3,1 -0.1,0 -0.2,0.1 -0.2,0.1 -0.5,0 -0.7,0.2 -0.9,0.6 -0.1,0 -0.2,0.1 -0.3,0.2 -0.9,0.1 -1.6,0.6 -2,1.3 -0.1,0 -0.2,0.1 -0.3,0.1 -0.9,0.1 -1.6,0.6 -2.4,1.1 -7.9,5.1 -16.4,8.4 -26,7.6 -0.5,0 -1,0 -1.1,0.6 -0.1,0.1 -0.1,0.2 -0.1,0.3 -2,3 -2.8,6.4 -4.3,9.6 -0.1,0.1 -0.1,0.2 -0.1,0.3 -0.7,0.3 -1,0.9 -1,1.6 -0.2,0.2 -0.3,0.4 -0.5,0.7 -1.1,0.6 -1.8,1.6 -2.1,2.8 -0.1,0.1 -0.1,0.2 -0.2,0.3 -1.2,0.8 -1.9,1.9 -2.7,3 -0.1,0.1 -0.2,0.2 -0.4,0.4 -0.6,0.1 -1,0.5 -1.2,1.1 -0.2,0.2 -0.4,0.4 -0.6,0.5 -0.5,-0.1 -0.7,0.2 -0.8,0.6 -0.3,0.3 -0.7,0.6 -1,0.9 -0.7,0 -1.1,0.4 -1.3,1 -0.2,0.2 -0.4,0.3 -0.6,0.5 -3.3,1.7 -6.5,3.5 -9.8,5.1 -3.6,1.7 -7.4,2.7 -11.5,2.5 -1.1,-0.1 -2.2,-0.6 -3.3,-0.2 -0.2,0 -0.5,-0.1 -0.7,-0.1 -2.2,-1 -4.8,-0.9 -7,-2.1 -2.7,-1.5 -5.5,-2.8 -8.1,-4.5 -0.3,-0.3 -0.6,-0.7 -0.9,-1 -0.1,-0.8 -0.6,-1.3 -1.4,-1.6 0,-0.1 -0.1,-0.2 -0.2,-0.2 -0.4,-1.3 -0.7,-2.6 -1.6,-3.6 -0.2,-0.3 -0.4,-0.6 -0.6,-0.9 0,-0.8 -0.5,-1.2 -0.9,-1.8 -0.4,-0.6 -1,-0.7 -1.4,0.1 -0.2,0.2 -0.4,0.4 -0.6,0.6 -1.5,0.5 -2.4,1.6 -3.2,2.8 -0.1,0 -0.2,0.1 -0.2,0.2 -0.5,-0.1 -0.7,0.2 -0.9,0.6 -0.1,0 -0.2,0.1 -0.3,0.1 -0.5,-0.1 -0.8,0.2 -0.9,0.6 -0.1,0 -0.2,0.1 -0.3,0.2 -0.3,0.1 -0.6,0.1 -0.9,0.3 -4.6,2.4 -9.3,4.2 -14.4,5.1 -3.2,0.6 -6.5,0 -9.7,0.4 -0.2,0 -0.5,0 -0.7,0 -1.3,-0.5 -2.6,-1 -4,-1.5 -2.5,-0.8 -4.6,-2.4 -7,-3.5 -0.1,-0.1 -0.1,-0.1 -0.2,-0.2 -0.3,-0.8 -0.8,-1.3 -1.6,-1.4 -0.5,-0.5 -1,-1 -1.5,-1.5 0,-0.7 -0.4,-1 -1,-1.3 0,-0.1 -0.1,-0.2 -0.2,-0.2 -1.1,-2.3 -2.5,-4.4 -3.4,-6.9 -2.5,-7.1 -1.5,-14.1 0.6,-21.1 0.2,-0.6 0.8,-1.2 0.2,-1.7 -0.5,-0.4 -1.2,0.1 -1.7,0.4 -5.5,2.5 -11.2,4 -17.3,3.6 -3.5,-0.2 -7,-0.4 -10.5,-0.9 -5.3,-0.7 -9.9,-2.7 -13.4,-6.9 -6.6,-8 -6.1,-17 -3.2,-26.2 0.4,-1.2 1,-2.4 1.5,-3.6 -0.3,-0.1 -0.4,-0.2 -0.5,-0.1 -0.5,0.2 -0.9,0.4 -1.4,0.6 -7.2,4.3 -15,5.5 -23.2,4.8 -2.5,-0.2 -4.9,-0.5 -7.3,-1.5 -3.3,-1.4 -6.2,-3.5 -9,-5.8 0,-0.1 -0.1,-0.2 -0.2,-0.2 -1.4,-2.1 -2.9,-4.1 -3.8,-6.4 -2.7,-6.6 -3.5,-13.2 -0.3,-19.9 0.3,-0.6 0.7,-1.1 0.6,-1.7 0.1,-0.1 0.1,-0.2 0.2,-0.3 0.9,-0.7 1.4,-1.7 1.7,-2.8 0.1,-0.1 0.1,-0.2 0.2,-0.3 0.8,-0.4 1.2,-1.1 1.4,-2 0.1,-0.1 0.1,-0.1 0.2,-0.2 0.4,-0.1 0.7,-0.4 0.7,-0.9 0.1,-0.1 0.1,-0.1 0.1,-0.2 0.6,-0.5 1.4,-1.1 0.6,-1.7 -0.9,-0.7 -1.7,-1.8 -3,-2.1 -0.1,-0.1 -0.1,-0.1 -0.2,-0.2 -1.1,-1.5 -2.8,-2 -4.3,-2.8 -0.1,-0.1 -0.1,-0.1 -0.2,-0.2 -1,-1.9 -2.5,-3.5 -3.8,-5.3 -0.2,-0.7 -0.9,-0.9 -1.3,-1.4 -0.7,-2.1 -0.5,-4.2 -0.1,-6.3 0.6,-3.8 2.1,-7.3 3.5,-10.8 0.1,-0.3 0.2,-0.6 0.3,-0.9 0.9,-1 1.3,-2.3 1.5,-3.6 0.1,-0.3 0.2,-0.6 0.4,-0.9 1.7,-2 1.9,-4.6 2.7,-7 0.1,-0.3 0.2,-0.6 0.3,-0.9 2.2,-4.7 4.5,-9.3 6.6,-14 1.1,-2.4 2.7,-4.7 3.2,-7.3 0.4,-0.8 0.7,-1.6 1.1,-2.4 1.7,-2.3 2.7,-4.9 3.9,-7.4 4.1,-8.8 7.9,-17.8 12.3,-26.4 1.1,-2.1 2.5,-4 3.2,-6.4 0.1,-0.1 0.1,-0.2 0.2,-0.2 0.6,-0.2 1,-0.6 0.9,-1.3 0.2,-0.3 0.4,-0.7 0.6,-1 1.8,-2 2.4,-4.6 3.6,-6.9 0.1,-0.1 0.1,-0.2 0.1,-0.3 2.6,-3.4 4.4,-7.3 6.3,-11.1 0.1,-0.1 0.1,-0.1 0.2,-0.2 1.8,-2.1 3.5,-4.3 5.3,-6.4 0.1,0 0.2,-0.1 0.2,-0.2 2.9,-1.6 6,-2.8 9.4,-2.7 4.5,0.1 9.1,-0.1 13.6,0 3.6,0.1 7.1,-0.4 10.6,-1.5 5,-1.5 10,-3.1 14.9,-4.6 7.1,-2.2 14.2,-4.1 21.4,-5.8 4.5,-1.1 9,-2.9 13.8,-2.6 0.3,0 0.6,-0.1 0.8,-0.4 0.2,0 0.5,0 0.7,-0.1 2.8,-0.5 5.5,-0.6 8.3,-0.7 0.6,0 1.4,0.2 1.9,-0.4 0.7,0 1.5,-0.1 2.2,-0.1 2.2,0.2 4.4,0.2 6.6,0 0.2,0 0.5,0 0.7,0.1 1.6,0.8 3.5,0.9 5.2,1.5 3.5,1.1 6.6,2.9 10,4.2 0.3,0.2 0.6,0.4 1,0.6 0.6,0.9 1.4,1.5 2.4,1.7 0.3,0.3 0.6,0.4 1,0.3 4.2,-1.2 8.4,-2.4 12.5,-3.6 2.8,-1.2 5.1,-1.8 7.3,-2.4 z m -89.4,188.9 c 0,-0.4 -0.1,-0.7 -0.1,-1.1 0.1,-0.3 0.1,-0.7 0.2,-1 0.5,-0.5 0.9,-1 0.7,-1.8 0.7,-1.3 1.5,-2.5 1.9,-3.9 0.4,-0.2 0.7,-0.5 0.2,-0.9 0,-0.3 0.1,-0.7 0.1,-1 0.7,-0.6 0.7,-1.3 0.2,-2 0,-0.5 0,-1 -0.1,-1.5 0,-0.3 0,-0.5 0,-0.8 0,-1 0,-2 0,-3 0.5,-0.4 0.2,-0.7 -0.2,-0.9 -0.1,-0.8 -0.3,-1.7 -0.8,-2.4 0.2,-0.5 0,-0.8 -0.5,-0.9 -1.5,-2.7 -3.3,-5.1 -6.5,-5.9 -0.9,-0.7 -1.9,-0.6 -2.8,0.1 -0.3,0.1 -0.7,0.1 -1,0.2 -1.3,-0.4 -2.7,-0.7 -3.9,0.3 -1.1,0.3 -2,1.1 -2.8,1.7 -0.7,0 -1.3,0.3 -1.6,1 -0.3,0.2 -0.7,0.4 -1,0.5 -1.5,0.4 -2.9,0.9 -3.9,2.1 -0.9,0.4 -1.8,1 -2.5,1.6 -0.9,0.2 -1.5,0.6 -2,1.4 -0.9,0.3 -1.6,0.9 -2.2,1.6 -0.9,0.1 -1.3,0.7 -1.6,1.4 -0.1,0 -0.2,0.1 -0.3,0.1 -0.7,-0.1 -1,0.4 -1.4,0.8 -5.4,5.2 -10.5,10.7 -13.8,17.7 -1.8,3.8 -3.2,7.4 -2.9,11.6 0.2,3.1 2.8,6.8 5.9,7.4 7.4,1.3 14.7,1.8 21.7,-1.9 1.6,-0.8 3.4,-1.3 4.6,-2.7 0.7,-0.3 1.2,-0.8 1.8,-1.3 0.5,0 0.7,-0.2 0.8,-0.7 0.4,-0.3 0.7,-0.6 1.1,-0.8 0.5,0 0.7,-0.2 0.8,-0.7 1.2,-0.7 2.3,-1.5 3,-2.6 1.7,-0.9 2.6,-2.6 3.8,-4.1 0.4,-0.2 0.7,-0.4 0.7,-0.9 0.1,0 0.1,-0.1 0.1,-0.2 0.5,-0.3 1,-0.7 1,-1.3 0.2,-0.2 0.3,-0.4 0.5,-0.6 0.4,-0.2 0.7,-0.4 0.7,-0.9 0.1,0 0.1,-0.1 0.1,-0.2 0.4,-0.2 0.7,-0.4 0.7,-0.9 0.5,-0.3 0.7,-0.8 0.9,-1.4 0.7,-0.2 0.8,-0.7 0.4,-1.2 z m 174.2,-150.4 0,0 c -0.4,-0.9 -1.1,-1.3 -1.8,-1.9 -1.1,-0.8 -2.4,-1.3 -3.1,-2.4 -1.5,-2.4 -3.7,-4.1 -5.9,-5.7 -2,-1.4 -3.3,-3.6 -5.5,-4.7 -0.1,-0.1 -0.1,-0.1 -0.2,-0.1 -0.5,-0.8 -1.2,-1.1 -2.1,-0.9 -0.2,0 -0.5,-0.1 -0.7,-0.1 -0.3,-0.4 -0.8,-0.3 -1.2,-0.5 -6.7,-2.3 -13.5,-4.2 -19.9,-7.3 -4.1,-2 -8.4,-3.5 -13,-4.2 -0.3,-0.1 -0.6,-0.2 -0.9,-0.3 -0.5,-0.7 -1.3,-0.8 -2,-0.8 -6.1,-0.4 -12.2,-1 -18.3,0.2 -1.3,0.2 -2.7,-0.3 -3.8,0.7 -0.2,0 -0.4,0 -0.6,0.1 -0.3,-0.3 -0.7,-0.1 -1.1,-0.1 -5.5,0.8 -10.7,2.6 -16,4.1 -2,0.6 -4,1.3 -5.8,2.7 -0.2,0.1 -0.4,0.2 -0.5,0.3 -0.5,0 -0.7,0.2 -0.9,0.6 -0.1,0 -0.2,0.1 -0.2,0.1 -0.5,0 -0.7,0.2 -0.9,0.6 -0.1,0 -0.2,0.1 -0.2,0.1 -2.9,1 -4.6,3.4 -6.6,5.5 -0.1,0 -0.2,0.1 -0.2,0.2 -0.9,0.1 -1.3,0.7 -1.7,1.3 -0.1,0 -0.2,0.1 -0.2,0.2 -0.8,0.1 -1.3,0.7 -1.6,1.4 -0.2,0.2 -0.4,0.3 -0.6,0.5 -1.1,0.4 -2.1,1.2 -2.8,2.1 -0.6,0.6 -1.2,1.1 -1.7,1.7 -1.7,1 -3.3,2.2 -4.7,3.6 -0.1,0 -0.2,0.1 -0.2,0.1 -0.8,0.1 -1.3,0.6 -1.7,1.4 -0.1,0 -0.2,0.1 -0.2,0.1 -0.7,0 -1,0.4 -1.3,1 -0.1,0 -0.2,0.1 -0.2,0.1 -0.5,0 -0.7,0.2 -0.9,0.6 -0.5,0.3 -0.9,0.6 -1.4,1 -0.5,-0.1 -0.8,0.1 -0.9,0.6 -0.1,0 -0.2,0.1 -0.3,0.1 -0.5,-0.1 -0.8,0.1 -0.9,0.6 0,0 0,0 0,0 -0.7,0 -1,0.5 -1.5,0.8 -0.9,0.1 -1.3,0.7 -1.7,1.4 -0.2,0.2 -0.4,0.3 -0.6,0.5 -1.4,0.7 -2.7,1.6 -3.5,2.9 -0.1,0 -0.2,0.1 -0.2,0.1 -0.5,0 -0.7,0.2 -0.9,0.6 -0.2,0.2 -0.4,0.3 -0.7,0.5 -1.6,0.9 -3.2,1.7 -4.3,3.3 -0.7,0.1 -1.1,0.6 -1.4,1.2 -1.3,0.2 -2,1.3 -3,1.9 -6.7,4.6 -11.9,10.2 -15.3,17.7 -1.9,4.4 -2.8,8.8 -2.4,13.5 0.2,2.5 0.5,5 2.5,6.9 1.4,1.3 2.9,2.5 4.5,3.3 4.2,2.2 8.6,3.3 13.5,3.6 10.7,0.7 20.1,-2.8 29.3,-7.4 5,-2 9.6,-4.9 13.9,-8.1 0.3,-0.1 0.6,-0.2 0.9,-0.3 0.5,0.1 0.8,-0.2 1,-0.6 0.3,-0.2 0.6,-0.3 0.9,-0.5 0.5,0 0.8,-0.2 1,-0.6 1.1,-0.2 1.9,-0.7 2.8,-1.3 0.7,-0.1 1.3,-0.4 1.7,-1 0.1,0 0.2,0 0.2,-0.1 0.9,-0.2 1.8,-0.6 2.5,-1.3 0.8,0 1.4,-0.5 2,-0.9 1.1,-0.2 2.1,-0.5 2.8,-1.4 l 0.1,0 0.1,-0.1 c 1.1,-0.4 2.4,-0.5 3.3,-1.4 0.2,0 0.3,-0.1 0.5,-0.1 0.7,-0.1 1.3,-0.3 1.9,-0.7 0.5,-0.1 1,-0.2 1.5,-0.3 0.3,0.2 0.6,0.2 0.8,-0.1 0.4,-0.1 0.7,-0.1 1.1,-0.2 0.4,0.1 0.8,0.1 1.1,-0.3 0.3,0 0.5,0 0.8,-0.1 1.1,0.3 2.1,0.2 3.2,0.2 6.4,-0.1 12,2.2 16.6,6.4 4.2,3.8 8,7.9 12.5,11.4 6.1,4.7 11.1,10.8 16.6,16.2 1.3,1.3 2.5,2.7 4.2,3.5 0.5,1.3 1.6,2.1 2.6,2.9 4.6,3.3 8.7,7.4 13,11.1 3.6,3.1 7.6,5.6 11.8,7.7 4.7,2.4 9.4,4.8 13.8,7.6 2.6,1.7 5.1,3.6 8.3,4.3 3.2,0.7 6,-1.9 5.2,-5.1 -1.4,-5.5 -2.3,-11.1 -2.9,-16.8 -0.2,-1.5 0.5,-3 -0.2,-4.4 -0.2,-1.2 -0.3,-2.5 -0.5,-3.7 0.2,-0.4 0.2,-0.9 -0.2,-1.2 0,-0.5 -0.1,-1 -0.1,-1.5 0.2,-0.4 0.2,-0.9 -0.3,-1.2 0,-0.2 -0.1,-0.5 -0.1,-0.7 0.2,-0.4 0.2,-0.9 -0.2,-1.2 0,-0.2 -0.1,-0.5 -0.1,-0.7 0.1,-0.3 0.1,-0.6 -0.2,-0.8 0,-0.2 -0.1,-0.5 -0.1,-0.7 0.1,-0.3 0.1,-0.6 -0.2,-0.8 -0.1,-0.5 -0.1,-1 -0.2,-1.4 0.1,-0.8 -0.1,-1.5 -0.7,-2.1 0,-0.1 0,-0.1 -0.1,-0.2 -0.1,-0.7 -0.2,-1.5 -0.2,-2.2 0,-1.5 -0.4,-2.9 -1.1,-4.2 -0.8,-2.9 -1.5,-5.8 -2.5,-8.7 -4,-12 -7.8,-24 -12.4,-35.7 -1.2,-3.1 -2.3,-6.2 -4.2,-9 -0.2,-0.3 -0.5,-0.5 -0.7,-0.8 -1.1,-0.7 -2,-1.6 -3.1,-2.2 z M 200.7,343.1 c -0.2,0.1 -0.5,0.2 -0.6,0.4 -4.3,6.4 -8,12.9 -9.1,20.8 -1.2,9.1 4.9,15.4 13,14.8 3.2,-0.2 6.1,-1.3 9,-2.4 1.9,-0.8 3.7,-1.7 5.2,-3.2 2.3,-2 4.6,-4 6.9,-6 0.6,-0.5 1.2,-1 1.3,-1.8 0,-2.4 0.9,-4.6 1.1,-7 0.1,-0.2 0.1,-0.4 0.2,-0.6 0.4,-0.2 0.7,-0.5 0.6,-0.9 0.1,0 0.1,-0.1 0.1,-0.2 1.2,-1.1 1.7,-2.6 2.6,-3.9 1.5,-1.5 3.3,-2.7 4.3,-4.7 1.6,-2.5 2.6,-5.3 3.2,-8.1 0.3,-1.6 0.9,-3.3 0.1,-4.9 0,-0.3 -0.1,-0.6 -0.4,-0.7 -0.3,-1 -1,-1.8 -1.8,-2.4 -0.3,-0.9 -0.8,-1.6 -1.6,-2.1 -0.4,-1.1 -1.2,-1.8 -2.3,-2.3 -0.2,-0.1 -0.4,-0.3 -0.6,-0.4 -0.7,-0.9 -1.7,-1.2 -2.9,-1.3 -0.2,-0.1 -0.5,-0.1 -0.7,-0.2 -1.5,-0.7 -2.9,-1.4 -4.6,-1.4 -0.4,0 -0.7,-0.1 -1.1,-0.1 -1.2,-0.7 -2.4,-0.4 -3.6,0.3 -6.8,3.8 -12.6,8.7 -16.8,15.3 -0.5,0.9 -1.4,1.7 -1.5,3 z m -50.9,-54.2 c 0.2,-0.2 0.3,-0.4 0.5,-0.6 0.4,-0.1 0.7,-0.4 0.7,-0.9 0.1,-0.1 0.1,-0.1 0.1,-0.2 0.6,-0.3 1,-0.6 1,-1.3 0.1,-0.1 0.1,-0.2 0.1,-0.3 0.9,-0.7 1.4,-1.7 1.8,-2.8 0.1,-0.1 0.1,-0.1 0.2,-0.2 3,-4.3 5.1,-8.9 5,-14.3 0,-0.9 -0.2,-2 -1.3,-2.5 0,-0.1 -0.1,-0.2 -0.2,-0.2 -0.1,-0.9 -0.6,-1.3 -1.3,-1.7 -0.7,-0.8 -1.4,-1.7 -2.6,-1.9 -2.6,-1.9 -5.6,-2.4 -8.6,-2.8 -2.2,-0.3 -4.4,-1 -6.6,-0.1 -0.4,0.1 -0.8,0.2 -1.1,0.4 -0.8,0 -1.6,0.2 -2.1,1 -0.4,0.2 -0.9,0.4 -1.3,0.6 -2.3,1 -4.8,1.7 -6.6,3.6 -0.3,0.2 -0.6,0.4 -1,0.6 -0.7,0 -1,0.4 -1.3,1 -0.1,0 -0.2,0.1 -0.2,0.1 -0.5,0 -0.7,0.2 -0.8,0.7 -0.2,0.2 -0.3,0.4 -0.5,0.6 -0.3,0.1 -0.7,0.2 -1,0.5 -4.7,3.7 -9.2,7.6 -13.9,11.3 -2.5,2 -5.4,4 -5.6,7.8 0,1 -0.2,2 -0.4,3 -0.5,4.3 -1.3,8.5 -0.2,12.9 0.9,3.5 3.5,7.2 8.3,7.6 1.4,0.1 2.7,0 4.1,0.1 3.9,0.3 7.4,-0.7 10.7,-2.8 4.6,-2.1 9.2,-4.3 12.8,-8 0.5,-0.1 0.8,-0.4 1.1,-0.8 0.8,-0.1 1.3,-0.7 1.6,-1.4 0.5,-0.4 0.9,-0.8 1.4,-1.3 1.7,-0.8 2.9,-2.1 3.8,-3.8 0.1,-0.1 0.1,-0.1 0.2,-0.2 1.3,-1.2 2.6,-2.2 3.2,-3.7 z m 223.5,-1.8 c 0.2,-0.5 -0.1,-0.7 -0.5,-0.9 -0.9,-2.2 -2.7,-3.6 -4.5,-4.9 -0.1,-0.5 -0.3,-0.7 -0.8,-0.6 -0.4,-0.2 -0.9,-0.4 -1.3,-0.6 -0.4,-0.6 -0.9,-0.9 -1.7,-0.9 -0.1,-0.1 -0.2,-0.1 -0.3,-0.1 -0.5,-0.9 -1.4,-1.2 -2.4,-1.4 -1.4,-0.8 -2.6,-1.8 -4,-2.4 -0.1,-0.4 -0.4,-0.7 -0.9,-0.6 -0.3,-0.2 -0.7,-0.4 -1,-0.5 -0.1,-0.4 -0.4,-0.7 -0.9,-0.6 -1.3,-0.8 -2.5,-1.9 -4,-2.5 -0.2,-0.3 -0.3,-0.6 -0.5,-0.8 -3.9,-3.3 -7.6,-6.9 -11.4,-10.4 -4.5,-4.1 -8.2,-9 -12.4,-13.3 -4,-4 -7.5,-8.5 -11.8,-12.1 -4.1,-3.5 -8.9,-5.8 -13.6,-8.3 -6,-3.1 -11.6,-3.1 -17.4,0.8 -5.4,3.6 -11.3,6.2 -17.6,8.1 -2.1,0.6 -4.2,1.2 -6,2.5 -1.3,0.2 -2.4,0.6 -3.6,1.1 -5.4,2 -10.8,3.7 -16.4,5 -4.9,1.2 -9.9,1.7 -14.9,2 -4.7,0.2 -9.4,0.8 -14,-0.8 -3,-1 -5.9,-2 -8.9,-3.1 -0.6,-0.4 -1.2,-0.8 -2,-0.9 -0.8,-0.9 -1.8,-1.3 -2.9,-1.8 0,-0.1 -0.1,-0.1 -0.2,-0.1 -0.2,-0.4 -0.5,-0.7 -1,-0.7 0,-0.1 -0.1,-0.1 -0.2,-0.1 -0.2,-0.4 -0.5,-0.7 -0.9,-0.7 -1.8,-1.5 -3.7,-2.8 -5.2,-4.5 -0.5,-1.1 -1.4,-2 -2.2,-2.8 -0.1,-0.5 -0.4,-1 -0.8,-1.3 -1.2,-2.4 -1.8,-5 -2.7,-7.5 0,-0.6 -0.1,-1.3 -0.1,-1.9 0,-2.3 0,-4.6 0,-6.8 0,-0.2 0.1,-0.5 0.1,-0.7 0.5,-0.5 0.7,-1.2 0.6,-1.9 0.1,-0.2 0.1,-0.5 0.2,-0.7 1.4,-3.3 2.6,-6.8 3.6,-10.2 0.5,-0.9 1.1,-1.9 1.3,-3 0.3,-0.2 0.4,-0.4 0.3,-0.8 0.4,-0.7 1.1,-1.2 1.2,-2.1 0.4,-0.2 0.7,-0.5 0.6,-1 0.5,-0.8 1.1,-1.6 1.6,-2.5 0.7,-0.5 1.2,-1.2 1.5,-2 1.5,-1.6 3,-3.2 4.5,-4.9 0.7,-0.2 1.2,-0.6 1.5,-1.2 0.3,-0.2 0.5,-0.5 0.8,-0.7 0.5,-0.1 0.9,-0.3 1,-0.8 4.2,-3.1 7.9,-6.8 12.1,-9.8 4.7,-3.4 8.6,-7.6 13.1,-11.3 5.4,-4.5 10.1,-9.8 16.8,-12.5 0.4,0 0.7,-0.2 0.7,-0.6 0,-0.4 -0.4,-0.4 -0.7,-0.3 -1.2,-0.3 -2.5,-0.6 -3.7,-0.9 -0.7,-0.5 -1.5,-0.4 -2.3,-0.1 -1.5,-0.1 -3,-0.1 -4.5,-0.2 -0.2,-0.3 -0.5,-0.4 -0.8,-0.2 -2.6,-0.4 -5.2,-0.3 -7.8,0 -0.4,-0.2 -0.8,-0.3 -1.2,0.1 -1.6,0.1 -3.3,0.2 -4.9,0.3 -0.5,-0.4 -1,-0.3 -1.5,0.1 -3.2,-0.1 -6.3,0.8 -9.4,1.7 -0.3,-0.2 -0.6,-0.1 -0.8,0.2 -0.2,0.1 -0.5,0.1 -0.7,0.2 -0.3,-0.2 -0.6,-0.1 -0.8,0.2 -1.1,0.1 -2,0.5 -3,0.9 -0.4,-0.2 -0.8,0 -1,0.4 -1,0.3 -2.1,0.5 -3.1,0.8 -0.3,-0.2 -0.6,-0.1 -0.8,0.2 -0.6,0.2 -1.2,0.4 -1.8,0.5 -0.3,-0.2 -0.6,-0.1 -0.8,0.2 -0.4,0.1 -0.7,0.1 -1.1,0.2 -0.3,-0.2 -0.6,-0.1 -0.8,0.2 -0.2,0.1 -0.5,0.1 -0.7,0.2 -0.3,-0.2 -0.6,-0.1 -0.8,0.2 -2.9,0.9 -5.8,1.9 -8.6,2.8 -0.3,-0.2 -0.6,-0.1 -0.8,0.2 -0.2,0.1 -0.5,0.1 -0.7,0.2 -0.4,-0.2 -0.8,0 -1,0.3 -0.9,0.2 -1.9,0.3 -2.8,0.7 -0.3,-0.1 -0.6,-0.1 -0.8,0.3 -1,0.3 -2,0.6 -3,0.9 -0.3,-0.2 -0.6,-0.1 -0.8,0.2 -0.4,0.1 -0.7,0.1 -1.1,0.2 -0.3,-0.2 -0.6,-0.2 -0.8,0.2 -0.4,0.1 -0.7,0.1 -1.1,0.2 -0.3,-0.2 -0.6,-0.2 -0.8,0.2 -0.5,0.1 -1,0.1 -1.4,0.2 -0.3,-0.2 -0.6,-0.2 -0.8,0.2 -5,0.1 -10,0.1 -15,0.2 -1.7,-0.3 -3.4,-0.2 -5.1,0.1 -0.9,0.1 -1.5,0.6 -2,1.3 -0.8,1.2 -1.6,2.4 -2.4,3.6 -4.1,6.6 -7.3,13.6 -11.5,20.1 -4.3,6.7 -7.4,14 -11.1,21 -3.4,6.4 -6.6,13 -10.1,19.4 -2.4,4.4 -4.8,8.7 -6.9,13.2 -3.7,7.9 -5.6,16.5 -7.9,24.9 -0.8,2.8 0,4.2 2.6,5.5 1.8,0.8 3.2,2.2 4.6,3.5 1.2,1.2 2,1 3,-0.1 3.6,-4 7.5,-7.8 11.6,-11.3 5.6,-4.8 11.8,-8.8 18.8,-11.2 1,0 1.9,-0.1 2.9,-0.1 0.6,0.2 1.1,0.3 1.6,-0.1 1.1,-0.1 2.2,0 3.1,-0.3 2.7,-0.9 5.4,-1.4 8.2,-1.3 0.6,0 1.2,-0.1 1.9,-0.2 0.8,0.4 1.6,0.3 2.3,0.1 0.2,0.1 0.5,0.1 0.7,0.2 0.2,0.4 0.5,0.4 0.8,0.3 3.6,1.1 6.8,2.9 9.9,5 2.9,2 5.9,4.2 7.2,7.5 3.2,8.1 2,16.1 -1.4,24 -0.2,0.4 -0.8,0.8 -0.4,1.3 0.4,0.4 1,0.1 1.4,0.1 0.3,-0.1 0.6,-0.1 0.9,-0.3 4,-2 8.4,-1.9 12.7,-2.3 1.2,-0.1 2.5,0 3.7,0.2 4.7,0.9 8.4,3.5 11.6,7 0.1,0.4 0.3,0.7 0.8,0.9 0.1,0.4 0.4,0.8 0.8,1 0,0.5 0.3,0.8 0.7,1 0.2,0.8 0.6,1.5 1.2,2.1 0.3,1 0.6,2.1 1.4,2.9 0.2,0.7 0.5,1.3 0.7,2 -0.2,0.3 -0.1,0.6 0.2,0.8 0.1,0.4 0.1,0.7 0.2,1.1 -0.1,0.3 -0.1,0.6 0.2,0.8 0,0.2 0.1,0.5 0.1,0.7 -0.1,0.5 -0.2,1.1 0.2,1.5 0,1.2 -0.1,2.3 0,3.5 0,2.1 0.2,2.2 2.3,1.6 0.4,0.2 0.8,0.1 1.2,-0.2 0.4,0 0.7,-0.1 1.1,-0.1 0.9,0.1 1.8,0.2 2.7,-0.3 2.1,0 4.3,0 6.4,0 0.3,0.4 0.7,0.4 1.2,0.2 0.5,0.1 1,0.1 1.5,0.2 0.2,0.3 0.5,0.3 0.8,0.2 0.2,0.1 0.5,0.1 0.7,0.2 0.2,0.3 0.5,0.3 0.8,0.2 0.4,0.1 0.7,0.1 1.1,0.2 0.2,0.3 0.5,0.4 0.8,0.2 0.7,0.4 1.4,0.8 2.2,0.9 0.2,0.3 0.4,0.4 0.8,0.3 0.8,0.4 1.5,0.9 2.4,1 0.2,0.4 0.5,0.6 1,0.6 0.5,0.4 1,0.8 1.7,0.9 0.2,0.4 0.5,0.6 1,0.6 3.2,2.4 6.6,4.7 9,8 0.1,0.5 0.3,0.7 0.7,0.9 0,0.1 0,0.1 0.1,0.2 0,0.5 0.3,0.8 0.7,1 0.7,1.5 1.8,2.9 2.1,4.7 -0.1,0.3 0,0.6 0.3,0.8 0.1,0.2 0.1,0.5 0.2,0.7 -0.1,0.7 0.1,1.4 0.6,1.9 0.1,0.2 0.1,0.5 0.2,0.7 0.1,1 0.1,2.1 0.6,3 0,1.4 0,2.8 0,4.2 -0.4,0.3 -0.4,0.7 -0.3,1.1 0,0.2 -0.1,0.5 -0.1,0.7 -0.3,0.2 -0.4,0.5 -0.2,0.8 0,0.2 -0.1,0.5 -0.1,0.7 -0.3,0.2 -0.3,0.5 -0.2,0.8 -0.1,0.2 -0.1,0.5 -0.2,0.7 -0.6,0.7 -0.6,1.6 -0.9,2.4 -1.4,4.3 -2.4,8.8 -5.4,12.5 -1.7,1.4 -3.4,2.8 -4.5,4.7 -2.1,3.5 -1.1,7.8 2.5,11.6 2.8,3 6.4,4.1 10.2,5.3 4.4,1.4 8.4,2.3 12.8,-0.3 2.5,-1.5 5,-3 7.3,-4.9 1.7,-1.5 3,-3.3 4.5,-5 0.4,-0.1 0.8,-0.3 0.7,-0.8 0.2,-0.2 0.3,-0.5 0.5,-0.7 1,-0.5 1.2,-1.4 1.3,-2.4 0,-0.7 0.7,-1.1 0.9,-1.8 0.4,-0.1 0.7,-0.4 0.6,-0.9 0.1,-0.1 0.1,-0.2 0.2,-0.3 0.5,-0.1 0.7,-0.4 0.6,-0.8 0.1,-0.2 0.2,-0.4 0.3,-0.5 0.7,-0.4 0.7,-1 0.1,-1.4 -0.8,-0.4 -1.5,-1.2 -2.5,-1.3 -0.2,-0.2 -0.4,-0.3 -0.7,-0.5 -0.1,-0.5 -0.4,-0.7 -0.8,-0.6 -0.1,-0.1 -0.2,-0.1 -0.3,-0.1 -0.3,-0.8 -0.9,-1.4 -1.7,-1.8 0,-0.3 0,-0.5 0,-0.8 0.8,-1 1,-2.2 1,-3.4 0.2,-0.6 0.5,-1.2 0.7,-1.7 1.1,-0.9 1.4,-2.3 1.7,-3.6 0.3,-1.2 0.9,-1.4 1.9,-1.5 2.1,-0.3 3.7,0.8 5.4,1.6 0.1,0.1 0.2,0.1 0.3,0.1 0.1,0.4 0.4,0.7 0.8,0.7 0.1,0.1 0.2,0.1 0.3,0.1 0.1,0.4 0.4,0.7 0.9,0.6 0.1,0.1 0.2,0.1 0.3,0.1 0.3,0.7 0.9,1 1.6,1 0.3,0.2 0.7,0.3 1,0.5 1,1.1 2.2,1.9 3.8,1.9 0.5,0 1,0 1.5,0 2,0.7 4,0 5.8,-0.6 2.3,-0.7 4.9,-0.9 6.7,-2.9 0.1,0 0.2,-0.1 0.3,-0.1 2.6,-0.9 5.2,-1.7 7.3,-3.7 0.1,0 0.2,-0.1 0.3,-0.2 0.9,-0.1 1.6,-0.6 2,-1.3 0.1,0 0.2,-0.1 0.3,-0.1 0.5,0.1 0.7,-0.2 0.9,-0.6 1.2,-0.7 2.3,-1.7 3.3,-2.7 0.7,-0.1 1.1,-0.4 1.1,-1.1 0.3,-0.5 0.6,-0.9 0.9,-1.4 0.7,-0.4 0.5,-0.9 -0.1,-1.1 -2.9,-0.9 -5.6,-2.4 -8.4,-3.5 -0.1,-0.1 -0.2,-0.1 -0.3,-0.1 -0.1,-0.4 -0.4,-0.7 -0.9,-0.6 -0.3,-0.2 -0.7,-0.4 -1,-0.6 -0.3,-0.7 -0.9,-1 -1.6,-1 -0.2,-0.2 -0.5,-0.3 -0.7,-0.5 -1.1,-1.5 -2.1,-3.1 -2.8,-4.9 0,-0.8 0,-1.5 0,-2.3 0.1,-0.2 0.3,-0.4 0.4,-0.6 1.2,-3.8 3.8,-5.6 7.7,-5.6 1.6,0 2.7,1 4.1,1.2 0.1,0.1 0.2,0.1 0.3,0.1 0.3,0.7 0.9,1 1.6,1 0.7,0.4 1.4,0.8 2.2,1.3 2,1.7 4.7,2.1 7.1,3.1 1.8,0.8 3.8,1.6 5.9,1.1 1,0.3 2,0.1 3,-0.1 0.7,0.4 1.3,0.4 1.9,-0.2 0.2,0 0.5,-0.1 0.7,-0.1 0.9,0.1 1.9,0.4 2.7,-0.3 0.4,0 0.7,-0.1 1.1,-0.1 1.1,0.2 2.1,0 2.8,-0.8 0.4,-0.2 0.9,-0.4 1.3,-0.6 1.6,-0.4 3.2,-0.8 4.2,-2.1 0.4,-0.4 0.7,-0.8 1.1,-1.2 0.8,-0.2 1.3,-0.7 1.6,-1.5 0.1,0 0.2,-0.1 0.3,-0.1 0.5,0.1 0.7,-0.2 0.9,-0.6 0.9,-0.3 1.5,-1 2.1,-1.7 0.7,0 1,-0.4 1.2,-1.1 1.1,-0.9 2.2,-1.8 3.1,-3 1.6,-1.3 1.9,-3.2 2.5,-5 0.1,-0.2 0.2,-0.4 0.2,-0.6 1.1,-1.2 1.9,-2.6 1.9,-4.4 0,-0.2 0.1,-0.5 0.1,-0.7 0.4,-0.2 0.4,-0.5 0.2,-0.8 0.1,-0.4 0.1,-0.7 0.2,-1.1 0.7,-2 0.7,-4 0,-6 -0.1,-0.5 -0.3,-1 -0.4,-1.5 0.1,-0.3 0,-0.6 -0.3,-0.8 0,-0.2 -0.1,-0.5 -0.1,-0.7 0.2,-0.9 -0.1,-1.6 -0.8,-2.1 -0.8,-0.3 -1,-0.6 -1.1,-0.9 z"
     id="path4220"
     inkscape:connector-curvature="0"
     style="fill:#46b2e4;fill-opacity:1" /><path
     class="st3"
     d="m 393.6,134.1 c 0.1,0 0.2,-0.1 0.3,-0.1 2.1,-0.9 4.3,-1.5 6.2,-2.8 0.6,-0.3 1.1,-0.5 1.7,-0.8 2.8,-0.5 5.4,-1.9 8.3,-2 0.9,0 2,0.3 2.8,-0.6 0.2,-0.1 0.4,-0.2 0.6,-0.3 3.2,-1.4 6.6,-2.4 10.1,-2.6 5.3,-0.4 10.3,0.4 14.9,3.4 0.2,0.2 0.4,0.3 0.7,0.5 0.9,1 1.8,2 3,2.7 0.6,0.6 1.1,1.2 1.7,1.8 0.1,1 1,1.4 1.6,2 0.9,1 1.9,1.8 2.5,3.1 4.2,8.4 7.3,17.2 9.8,26.3 2.4,8.5 4.8,17 6.8,25.7 2.9,13.2 6.3,26.3 8.3,39.6 0.8,5.4 2.3,10.7 3.5,16 1.4,5.9 1.4,11.8 0.4,17.7 -0.6,3.6 -2.2,6.9 -3.7,10.2 -0.2,0.2 -0.3,0.4 -0.5,0.6 -0.4,0.1 -0.7,0.4 -0.6,0.9 -0.1,0.1 -0.1,0.2 -0.1,0.2 -0.7,0.4 -1.3,0.8 -1.3,1.7 -0.2,0.2 -0.4,0.4 -0.5,0.6 -1.8,1.6 -3.6,3.3 -5.3,4.9 -0.1,0 -0.2,0.1 -0.2,0.2 -0.5,-0.1 -0.8,0.3 -1.2,0.5 -2.2,1.2 -4.5,2.5 -6.9,2.8 -4.8,0.6 -9.4,2 -14.1,2.9 -1,0.2 -2.1,0.5 -3.1,0.5 -3.9,-0.2 -7.6,-1.2 -10.9,-3.5 -0.4,-0.2 -0.7,-0.6 -1.2,-0.5 -0.3,-0.3 -0.5,-0.5 -0.8,-0.8 -0.8,-2.1 -2.5,-3.7 -3.4,-5.8 -2.4,-5.5 -4.7,-11.1 -6.6,-16.8 -0.8,-2.4 -0.9,-5 -2.1,-7.3 0,-0.2 -0.1,-0.5 -0.1,-0.7 0,-2.2 -1,-4.1 -1.4,-6.2 -1.4,-8.3 -3.1,-16.5 -5,-24.7 -1.7,-7 -4.5,-13.7 -6.2,-20.7 -2.4,-9.6 -4.8,-19.1 -7.8,-28.5 -1.9,-6 -4.7,-11.6 -6,-17.8 0,-0.2 -0.1,-0.5 -0.1,-0.7 0.3,-1.6 -0.2,-2.9 -1,-4.2 0,-0.2 -0.1,-0.5 -0.1,-0.7 -0.1,-3.5 0.6,-6.8 1.9,-10 0.2,-0.6 0.6,-1.1 0.5,-1.8 0.3,-0.4 0.6,-0.7 0.8,-1.1 1.2,-0.6 2,-1.5 2.7,-2.6 0.2,-0.2 0.4,-0.3 0.7,-0.5 0,-0.1 0.3,-0.3 0.4,-0.7 z m 21.1,66 c 0.4,1.5 0.8,3 1.2,4.5 -0.2,0.5 0.1,0.8 0.4,1 0.2,0.6 0.4,1.1 0.6,1.7 -0.1,0.5 0.1,0.8 0.5,1 0.2,0.7 0.3,1.3 0.6,2 1.1,3.2 2.1,6.3 3.2,9.5 -0.2,0.3 -0.1,0.6 0.2,0.8 0.3,1 0.6,2 0.9,3 1,4.1 1.9,8.1 2.8,12.2 1,4.4 2,8.8 3,13.2 2,8.1 4.8,15.8 8.5,23.3 0.7,1.3 1.6,1.7 3.1,1.3 4,-1 8,-1.8 12.1,-2.6 1.1,-0.2 2,-0.6 2.9,-1.2 4.7,-3 7.6,-10.5 6.5,-16.4 -1.5,-7.8 -3.8,-15.4 -4.9,-23.3 -0.1,-0.6 -0.2,-1.2 -0.3,-1.8 0.2,-0.5 -0.1,-0.7 -0.5,-1 -0.1,-0.8 -0.3,-1.6 -0.4,-2.4 0.2,-0.3 0.2,-0.6 -0.1,-0.8 -0.1,-0.5 -0.2,-1 -0.2,-1.4 0.2,-0.3 0.2,-0.6 -0.2,-0.8 -0.1,-0.7 -0.1,-1.5 -0.2,-2.2 0.2,-0.3 0.2,-0.6 -0.2,-0.8 -0.2,-1 -0.3,-2 -0.5,-3 0.1,-0.3 0.1,-0.6 -0.3,-0.8 0,-0.2 -0.1,-0.5 -0.1,-0.7 0.2,-0.3 0.1,-0.6 -0.2,-0.8 -0.1,-0.9 -0.3,-1.9 -0.8,-2.7 -0.2,-1 -0.4,-2 -0.6,-2.9 -0.5,-4.4 -1.6,-8.6 -2.6,-12.8 -2.3,-9.3 -4.7,-18.5 -7.2,-27.7 -1.9,-6.8 -4.7,-13.4 -7,-20.1 -0.8,-2.4 -3,-4 -4.7,-5.8 0,-0.1 -0.1,-0.2 -0.2,-0.2 -0.7,-1.8 -2.1,-3 -3.8,-3.3 -6.1,-1.1 -12.2,-2.3 -17.9,1.5 -1.5,1 -3.3,1.3 -5.3,0.8 -1.5,-0.4 -3,0.1 -4.1,1.3 -1,0.6 -2.1,1.2 -2.6,2.4 -0.8,1.3 -1.1,2.7 -0.5,4.3 2.5,6.1 4.8,12.2 7.9,18 -0.2,0.5 0.1,0.8 0.4,1 0.1,0.4 0.2,0.9 0.3,1.3 0,0.8 0.1,1.6 0.8,2.1 0.3,1.4 0.8,2.7 1.4,4 0,0.8 0.2,1.6 0.9,2.1 0.7,2.2 1.3,4.4 2.1,6.6 1.6,4.8 2.4,9.9 4.3,14.7 -0.1,0.3 -0.1,0.6 0.3,0.8 0,0.2 0.1,0.5 0.1,0.7 0,-0.1 0.1,0.2 0.4,0.4 z"
     id="path4222"
     inkscape:connector-curvature="0"
     style="fill:#46b2ef;fill-opacity:0.94117647" /><path
     class="st3"
     d="m 86,119.5 c 3.7,-0.4 7.4,-0.2 11.1,-0.3 7.2,-0.1 14,1.8 20.6,4.7 3.7,1.6 7.6,3.1 10.8,5.6 0.3,0.2 0.7,0.2 1,0.4 0.1,0.1 0.2,0.1 0.3,0.1 0.1,0.5 0.6,0.6 1,0.8 4,2.2 4.9,6.9 2.3,10.6 -1.8,2.6 -3.1,5.5 -4.3,8.5 -0.1,0.1 -0.1,0.2 -0.1,0.3 -1.3,1.3 -1.9,3 -2.5,4.7 -0.1,0.1 -0.1,0.2 -0.2,0.3 -1.5,1.5 -2.2,3.5 -2.9,5.4 -0.1,0.1 -0.1,0.2 -0.1,0.3 -0.5,0.1 -0.7,0.4 -0.6,0.9 -0.2,0.3 -0.4,0.7 -0.5,1 -1.4,1.6 -2.4,3.4 -2.8,5.5 -0.1,0.3 -0.3,0.6 -0.4,0.9 -1.5,2.8 -3,5.6 -4.2,8.5 -0.1,0.1 -0.1,0.2 -0.2,0.3 -0.4,0.1 -0.7,0.4 -0.6,0.9 -0.4,0.8 -0.9,1.7 -1.3,2.5 -0.4,0.2 -0.6,0.5 -0.5,0.9 -0.5,0.8 -0.9,1.6 -1.4,2.5 -1.3,1.5 -1.7,3.4 -2.5,5.2 -1.8,4.2 -2.8,8.6 -4.8,12.8 -1.1,2.2 -2.4,4.4 -3,6.8 -0.1,0.2 -0.2,0.4 -0.3,0.6 -0.4,0.2 -0.6,0.5 -0.5,0.9 -0.4,0.7 -0.9,1.4 -1.3,2.1 -1.6,1.7 -2.1,4.1 -3,6.2 -1.4,3.1 -3.2,6.1 -4,9.5 0,0.1 -0.1,0.2 -0.1,0.3 -1.5,2.1 -2.6,4.4 -3.2,7 -0.1,0.3 -0.3,0.6 -0.4,0.9 -1.2,1.5 -1.7,3.3 -2.4,5.1 -0.1,0.1 -0.1,0.2 -0.1,0.3 -1.4,1.2 -2,2.9 -2.5,4.7 -0.1,0.2 -0.2,0.4 -0.2,0.6 -0.2,0.2 -0.5,0.4 -0.6,0.7 -1.8,4.2 -3.5,8.5 -5.2,12.7 -0.2,0.3 -0.3,0.7 -0.5,1 -0.7,0.3 -1,0.9 -1,1.6 -0.2,0.3 -0.4,0.7 -0.5,1 -1.2,1.2 -1.9,2.6 -2.1,4.3 -0.1,0.1 -0.1,0.2 -0.1,0.3 -0.8,0.2 -0.9,1 -1.2,1.6 -0.9,2.1 -1.8,4.2 -3.3,6 -0.1,0 -0.2,0.1 -0.2,0.2 -0.7,0 -1.1,0.4 -1.3,1 -0.1,0 -0.2,0.1 -0.3,0.1 -1.2,0.3 -2.3,0.9 -3.4,1.6 -1,0 -2,0 -3,0 -3.1,-0.3 -5.8,-1.7 -8.7,-2.7 -0.1,-0.1 -0.2,-0.1 -0.3,-0.1 -0.1,-0.4 -0.4,-0.7 -0.9,-0.6 -0.1,-0.1 -0.2,-0.1 -0.3,-0.1 -1.3,-1.4 -3,-1.9 -4.7,-2.5 -0.1,-0.1 -0.2,-0.1 -0.3,-0.1 -1.5,-1.5 -3.4,-2.2 -5.4,-2.9 -0.1,-0.1 -0.2,-0.1 -0.3,-0.2 -3,-2.4 -6.4,-4.1 -9.9,-5.6 -0.1,-0.1 -0.2,-0.1 -0.3,-0.1 -0.5,-0.8 -1.1,-1.2 -2,-1.3 -0.1,-0.1 -0.2,-0.1 -0.3,-0.2 -0.8,-1 -1.9,-1.8 -3.1,-2.1 -0.1,-0.1 -0.2,-0.1 -0.2,-0.2 -0.5,-1 -1.4,-1.5 -2.4,-1.7 -0.1,-0.1 -0.2,-0.1 -0.3,-0.1 -0.2,-0.3 -0.4,-0.6 -0.7,-0.9 -4.7,-3.5 -5.9,-9 -4.8,-14.1 1.5,-6.6 4.3,-12.7 7,-18.8 1.8,-4.1 3.9,-8 5.2,-12.3 0.1,-0.2 0.2,-0.4 0.2,-0.6 1.5,-1.6 2,-3.6 2.7,-5.5 3.5,-8.6 6.6,-17.4 11.3,-25.4 0.4,-0.7 1,-1.5 0.9,-2.4 0.1,-0.1 0.1,-0.2 0.1,-0.3 0.2,-0.1 0.5,-0.3 0.6,-0.4 3.3,-6.2 6.6,-12.4 9.1,-19 2.5,-6.4 5,-12.9 8.4,-18.9 1.6,-2.8 3.5,-5.3 4.8,-8.2 0.1,-0.1 0.1,-0.2 0.2,-0.3 0.5,-0.1 0.7,-0.4 0.6,-0.9 0.1,-0.1 0.1,-0.2 0.2,-0.3 0.8,-0.6 1.5,-1.3 1.7,-2.4 0.1,-0.1 0.1,-0.2 0.2,-0.2 0.6,-0.2 1,-0.6 1,-1.3 0.2,-0.2 0.4,-0.4 0.5,-0.6 0.6,-0.1 1,-0.5 1.2,-1.1 0.1,0 0.2,-0.1 0.2,-0.2 0.2,0 0.4,0 0.5,-0.1 3.6,-3.3 8.2,-3.7 12.6,-4.4 0.5,-0.1 1.1,0.1 1.6,-0.4 0.1,-0.9 0.3,-0.9 0.6,-0.9 z M 66.8,251.2 c 2,-3.9 4,-7.8 6,-11.8 2.3,-3.3 4.1,-6.9 5.4,-10.7 0.4,-0.2 0.6,-0.5 0.5,-1 1.3,-2.1 2.4,-4.3 3.4,-6.5 2.6,-5.4 4.8,-11 7.9,-16.2 2.1,-3.5 4.2,-7.1 5.7,-11.1 1.9,-5.3 4,-10.6 6.9,-15.4 2.1,-3.5 4.4,-6.8 6.1,-10.4 3.2,-7.1 7.2,-13.7 11.3,-20.2 0.9,-1.4 2,-2.8 2.9,-4.2 0.4,-0.5 1,-1.2 0,-1.7 -2,-1 -3.5,-2.7 -5.6,-3.4 -0.2,-0.3 -0.4,-0.4 -0.8,-0.4 -0.7,-0.5 -1.5,-0.9 -2.4,-0.9 -0.2,-0.4 -0.5,-0.6 -1,-0.5 -0.3,-0.1 -0.6,-0.2 -0.9,-0.3 -0.4,-0.6 -1,-0.9 -1.8,-0.8 -1,-0.5 -1.9,-1.1 -3,-1.3 -0.5,-0.5 -1.2,-0.7 -1.9,-0.6 -0.2,-0.1 -0.5,-0.1 -0.7,-0.2 -0.2,-0.3 -0.5,-0.3 -0.8,-0.2 -0.4,-0.1 -0.7,-0.1 -1.1,-0.2 -0.3,-0.4 -0.7,-0.3 -1.2,-0.2 -0.4,-0.1 -0.7,-0.1 -1.1,-0.2 -0.2,-0.3 -0.5,-0.3 -0.8,-0.2 -3.5,-0.3 -7,-0.4 -10.5,0 -0.3,-0.2 -0.6,-0.1 -0.8,0.2 -0.5,0.1 -1,0.1 -1.5,0.2 -0.8,-0.1 -1.6,-0.3 -2.3,0.2 -0.8,-0.1 -1.5,0.1 -2.3,0.4 -1.4,0 -2.7,0.4 -3.5,1.5 -3.6,4.7 -6.7,9.7 -9.3,15 -2.7,5.5 -4.7,11.4 -7,17.1 -3.9,9.5 -9.4,18.1 -13.7,27.5 -1.9,4.3 -4.2,8.4 -5.4,13 -0.1,0.1 -0.2,0.2 -0.3,0.3 -3.3,8.7 -7.4,17.1 -11.1,25.5 -1.6,3.7 -2.9,7.5 -4.3,11.2 -0.5,1.4 -0.2,2.5 1.2,3.5 3.9,2.7 7.8,5.2 12,7.4 5.5,2.9 10.9,6 16.3,9 0.8,0.5 1.4,0.4 1.9,-0.4 2.7,-4.3 5.2,-8.7 7.6,-13 z"
     id="path4224"
     inkscape:connector-curvature="0"
     style="fill:#46b2ef;fill-opacity:0.94117647" /><path
     class="st4"
     d="m 99.3,210.7 c -0.1,-0.5 0.1,-0.7 0.5,-0.9 0.2,0.5 0,0.8 -0.5,0.9 z"
     id="path4226"
     inkscape:connector-curvature="0"
     style="fill:#a7cbea" /><path
     class="st4"
     d="m 65.6,130.6 c 0.1,0.5 -0.2,0.8 -0.6,0.9 -0.1,-0.6 0.1,-0.9 0.6,-0.9 z"
     id="path4228"
     inkscape:connector-curvature="0"
     style="fill:#a7cbea" /><path
     class="st5"
     d="m 183.9,153.4 c 2.9,-0.9 5.8,-1.9 8.6,-2.8 0.4,0.5 0.6,0.2 0.8,-0.2 0.2,-0.1 0.5,-0.1 0.7,-0.2 0.4,0.5 0.6,0.2 0.8,-0.2 0.4,-0.1 0.7,-0.1 1.1,-0.2 0.4,0.5 0.6,0.2 0.8,-0.2 0.6,-0.2 1.2,-0.4 1.8,-0.5 0.4,0.5 0.6,0.2 0.8,-0.2 1,-0.3 2.1,-0.5 3.1,-0.8 0.5,0.3 0.8,0.2 1,-0.4 1,-0.4 1.9,-0.8 3,-0.9 0.4,0.5 0.6,0.2 0.8,-0.2 0.2,-0.1 0.5,-0.1 0.7,-0.2 0.4,0.5 0.6,0.2 0.8,-0.2 3.1,-0.8 6.1,-1.8 9.4,-1.7 0.5,0.5 1.1,0.5 1.5,-0.1 1.6,-0.1 3.3,-0.2 4.9,-0.3 0.5,0.6 0.9,0.4 1.2,-0.1 2.6,-0.3 5.2,-0.4 7.8,0 0.2,0.4 0.4,0.7 0.8,0.2 1.5,0.1 3,0.1 4.5,0.2 0.7,0.8 1.5,0.6 2.3,0.2 1.2,0.3 2.5,0.6 3.7,0.9 0,0.3 0,0.6 0,0.9 -6.6,2.8 -11.4,8.1 -16.8,12.5 -4.4,3.7 -8.3,8 -13.1,11.3 -4.2,3 -7.9,6.7 -12.1,9.8 -0.6,0 -1.1,0.1 -1,0.8 -0.3,0.2 -0.5,0.5 -0.8,0.7 -0.8,0 -1.5,0.2 -1.5,1.2 -1.5,1.6 -3,3.2 -4.5,4.9 -1.3,0.1 -1.5,1 -1.5,2 -0.5,0.8 -1.1,1.6 -1.6,2.5 -0.6,0 -0.8,0.4 -0.6,1 -0.2,0.8 -0.8,1.4 -1.2,2.1 -0.5,0.1 -1,0.2 -0.3,0.8 -0.2,1.1 -0.8,2 -1.3,3 -0.4,0.1 -0.6,0.4 -0.8,0.7 -1,2.9 -2.1,5.9 -3.1,8.8 -0.1,0.3 0,0.5 0.2,0.6 -0.1,0.2 -0.1,0.5 -0.2,0.7 -0.7,0.5 -1.1,1.1 -0.6,1.9 0,0.2 -0.1,0.5 -0.1,0.7 -1.3,1.8 -0.3,3.9 -0.6,5.8 -0.1,0.4 0.1,0.9 0.6,1 0,0.6 0.1,1.3 0.1,1.9 -0.4,0.2 -0.4,0.6 -0.3,1 0.6,1.9 1.3,3.8 2,5.6 0.2,0.5 0.4,0.9 1.1,0.9 0.4,0.3 0.7,0.8 0.8,1.3 0,1.5 0.7,2.5 2.2,2.8 1.5,1.7 3.5,3 5.2,4.5 0,0.6 0.4,0.8 0.9,0.7 0.1,0 0.2,0 0.2,0.1 0,0.6 0.4,0.8 1,0.7 0.1,0 0.1,0 0.2,0.1 0.5,1.4 1.4,2 2.9,1.8 0.8,0.1 1.4,0.5 2,0.9 0.1,1 1.1,1.1 1.6,1.8 2.6,3.5 6.6,5 10.4,6.4 4.7,1.6 9.7,2.6 14.6,3.5 3.9,0.8 7.8,1.6 11.9,1.6 7.8,-0.1 15.7,0.1 23.5,-0.6 3.9,-0.4 7.9,-1 11.6,-2.1 4.1,-1.2 8.3,-1.8 12.5,-2.1 6.9,-0.5 13.8,0.5 20.4,2.8 8.1,2.9 15,7.7 21.2,13.6 5.1,4.8 10.9,8.5 17.4,11.2 3.7,1.5 6.6,3.6 6.8,8.1 0,0.8 0.2,1.7 0.5,2.4 1.9,3.3 1.6,6.8 0.9,10.3 -1,4.5 -3.4,8 -8.1,9.3 -3.3,0.9 -6.7,1.2 -10,1.2 -4.9,-0.1 -9.7,-0.3 -14.6,-1.3 -0.8,-0.2 -1.6,-0.1 -2.4,0 -2.3,0.2 -4.5,0.8 -6.5,1.8 -2.2,1.1 -4.9,1.3 -6.9,3 -4.1,3.6 -5.3,8.3 -4.7,13.4 0.3,2 -0.1,4.4 1.6,6.1 1.6,1.7 2.8,3.7 4.8,5 1.5,1 1.5,2 0,3.2 -0.5,0.4 -1.1,0.8 -1.8,1 -5.3,2.1 -10.3,1.2 -15.2,-1.3 -3.6,-1.9 -7.1,-3.1 -11.4,-2.6 -5.7,0.7 -8.2,4.9 -8.6,10 -0.3,3.4 0.9,6.5 2.7,9.4 0.4,0.7 1,1.4 -0.3,1.9 -3.6,1.5 -7.2,2.7 -11.1,2.3 -1.6,-0.2 -3.3,-0.3 -4.6,-1.4 -4.1,-3.6 -6.5,-8 -5.4,-13.6 0.1,-0.4 0.2,-0.9 -0.3,-1.2 0.1,-0.2 0.1,-0.5 0.2,-0.7 0.5,-0.2 0.7,-0.4 0.2,-0.8 0,-0.2 0.1,-0.5 0.1,-0.7 0.5,-0.1 0.8,-0.3 0.2,-0.8 0,-0.2 0.1,-0.5 0.1,-0.7 0.7,-0.2 0.8,-0.6 0.3,-1.1 0,-1.4 0,-2.8 0,-4.2 0.8,-1.2 0.3,-2.2 -0.6,-3 -0.1,-0.2 -0.1,-0.5 -0.2,-0.7 0.5,-0.9 0.2,-1.5 -0.6,-1.9 -0.1,-0.2 -0.1,-0.5 -0.2,-0.7 0.6,-0.5 0.3,-0.7 -0.3,-0.8 -0.3,-1.7 -1.3,-3.1 -2.1,-4.7 0.2,-0.6 0,-0.9 -0.7,-1 -0.1,0 -0.1,-0.1 -0.1,-0.2 0.1,-0.6 -0.1,-0.9 -0.7,-0.9 -2.4,-3.3 -5.8,-5.6 -9,-8 -0.1,-0.6 -0.4,-0.8 -1,-0.6 -0.7,-0.1 -1.1,-0.5 -1.7,-0.9 -0.1,-0.7 -0.4,-0.8 -1,-0.6 -0.9,-0.1 -1.6,-0.6 -2.4,-1 -0.1,-0.5 -0.3,-0.9 -0.8,-0.3 -0.8,-0.1 -1.5,-0.5 -2.2,-0.9 -0.1,-0.5 -0.3,-0.8 -0.8,-0.2 -0.4,-0.1 -0.7,-0.1 -1.1,-0.2 -0.1,-0.5 -0.3,-0.8 -0.8,-0.2 -0.2,-0.1 -0.5,-0.1 -0.7,-0.2 -0.2,-0.5 -0.4,-0.7 -0.8,-0.2 -0.5,-0.1 -1,-0.1 -1.5,-0.2 -0.3,-0.7 -0.7,-0.8 -1.2,-0.2 -2.1,0 -4.3,0 -6.4,0 -1,-0.5 -1.9,-0.8 -2.7,0.3 -0.4,0 -0.7,0.1 -1.1,0.1 -0.5,-0.6 -0.9,-0.5 -1.2,0.2 -2.1,0.6 -2.2,0.5 -2.3,-1.6 0,-1.2 0,-2.3 0,-3.5 0.6,-0.6 0.7,-1.1 -0.2,-1.5 0,-0.2 -0.1,-0.5 -0.1,-0.7 0.6,-0.4 0.3,-0.6 -0.2,-0.8 -0.1,-0.4 -0.1,-0.7 -0.2,-1.1 0.5,-0.4 0.3,-0.6 -0.2,-0.8 -0.2,-0.7 -0.5,-1.3 -0.7,-2 -0.1,-1.1 0,-2.4 -1.4,-2.9 -0.6,-0.6 -1.1,-1.2 -1.2,-2.1 0.1,-0.6 0,-0.9 -0.7,-1 -0.4,-0.2 -0.7,-0.5 -0.8,-1 0.1,-0.6 -0.1,-0.9 -0.8,-0.9 -3.2,-3.4 -6.8,-6.1 -11.6,-7 -1.3,-0.2 -2.5,-0.3 -3.7,-0.2 -4.3,0.4 -8.7,0.2 -12.7,2.3 -0.3,0.1 -0.6,0.2 -0.9,0.3 -0.5,0.1 -1.1,0.3 -1.4,-0.1 -0.5,-0.5 0.2,-0.9 0.4,-1.3 3.4,-7.8 4.6,-15.8 1.4,-24 -1.3,-3.3 -4.3,-5.5 -7.2,-7.5 -3.1,-2.1 -6.3,-3.9 -9.9,-5 -0.1,-0.4 -0.3,-0.8 -0.8,-0.3 -0.2,-0.1 -0.5,-0.1 -0.7,-0.2 -0.7,-0.9 -1.5,-0.7 -2.3,-0.1 -0.6,0.1 -1.2,0.2 -1.9,0.2 -2.8,-0.1 -5.5,0.3 -8.2,1.3 -1,0.3 -2.1,0.2 -3.1,0.3 -0.6,-0.5 -1.1,-0.5 -1.6,0.1 -1,0 -1.9,0.1 -2.9,0.1 0,-2 -0.2,-4 -1.4,-5.8 -2.7,-3.9 -3.9,-8.4 -3.9,-12.9 0.1,-5.9 0.2,-11.8 0.3,-17.7 0,-0.3 0,-0.5 0.1,-0.8 1.2,-8 3.7,-15.5 6.5,-23.1 2.4,-6.5 5.1,-13 8.2,-19.2 1.9,-3.7 3.9,-7.3 6.4,-10.5 5,-0.1 10,-0.1 15,-0.2 0.4,0.5 0.6,0.2 0.8,-0.2 0.5,-0.1 1,-0.1 1.4,-0.2 0.4,0.5 0.6,0.3 0.8,-0.2 0.4,-0.1 0.7,-0.1 1.1,-0.2 0.4,0.5 0.6,0.2 0.8,-0.2 0.4,-0.1 0.7,-0.1 1.1,-0.2 0.4,0.5 0.6,0.2 0.8,-0.2 1,-0.3 2,-0.6 3,-0.9 0.5,0.5 0.7,0.2 0.8,-0.3 0.9,-0.5 1.8,-0.6 2.8,-0.7 0.5,0.3 0.8,0.1 1,-0.3 0.2,-0.1 0.5,-0.1 0.7,-0.2 1.3,0.6 1.5,0.3 1.6,-0.2 z"
     id="path4230"
     inkscape:connector-curvature="0"
     style="fill:#fefefe" /><path
     class="st5"
     d="m 391.2,231.1 c 0.1,0.7 0.2,1.5 0.2,2.2 -1.2,0 -1.9,0.8 -2.7,1.6 -2,1.9 -4.3,3.2 -7.2,3 -2.5,-0.2 -5,0 -7.6,-0.1 -2.2,-0.1 -4.5,-0.3 -6.6,-1.1 -5.5,-2.1 -10.5,-5.2 -15.9,-7.6 -3.2,-1.4 -6,-3.6 -9,-5.5 -5.4,-3.4 -10.9,-6.6 -15.3,-11.5 -1.7,-1.8 -3.9,-3.1 -6,-4.5 -4.5,-3 -9.4,-5.1 -15,-4.5 -5.1,0.6 -10.1,0.8 -15.2,0.7 -0.5,0 -0.9,0.1 -1,0.6 -0.3,0 -0.5,0 -0.8,0.1 -0.5,-0.5 -0.9,-0.4 -1.1,0.3 -0.4,0.1 -0.7,0.1 -1.1,0.2 -0.3,-0.5 -0.6,-0.4 -0.8,0.1 -0.5,0.1 -1,0.2 -1.5,0.3 -0.9,-0.4 -1.5,-0.2 -1.9,0.7 -0.2,0 -0.3,0.1 -0.5,0.1 -1.2,0.1 -2.6,0 -3.3,1.4 l -0.1,0.1 c 0,0 -0.1,0 -0.1,0 -1.1,0.1 -2.2,0.2 -2.8,1.4 -0.6,0.4 -1.2,0.9 -2,0.9 -1.1,-0.1 -2.1,0.2 -2.5,1.3 0,0.1 -0.1,0.1 -0.2,0.1 -0.8,0 -1.5,0.1 -1.7,1 -0.9,0.6 -1.7,1.2 -2.8,1.3 -0.6,-0.2 -0.9,-0.1 -1,0.6 -0.3,0.2 -0.6,0.3 -0.9,0.5 -0.5,-0.1 -0.9,0 -1,0.6 -0.3,0.1 -0.6,0.2 -0.9,0.3 -1.5,0.2 -2.9,-0.2 -4.3,-0.8 -1.4,-0.6 -2.9,-0.9 -4.3,-1.3 -3.9,-1.2 -8,-1.3 -12,-2.2 -2.5,-0.6 -5.3,-0.5 -7,-2.9 -2.6,-3.5 -4.7,-7.5 -5.3,-11.7 -0.9,-6.3 -0.3,-12.8 2.8,-18.7 0.9,-1.6 1.9,-3.3 1.9,-5.2 0,0 0,0 0,0 0.5,0.1 0.8,-0.1 0.9,-0.6 0.1,-0.1 0.2,-0.1 0.3,-0.1 0.5,0.1 0.8,-0.1 0.9,-0.6 0.5,-0.3 0.9,-0.6 1.4,-1 0.5,0.1 0.8,-0.1 0.9,-0.6 0.1,-0.1 0.1,-0.1 0.2,-0.1 0.8,0.1 1.2,-0.3 1.3,-1 0.1,-0.1 0.1,-0.1 0.2,-0.1 1,0.1 1.4,-0.5 1.7,-1.4 0.1,-0.1 0.1,-0.1 0.2,-0.1 2,-0.7 3.6,-1.7 4.7,-3.6 0.6,-0.6 1.2,-1.1 1.7,-1.7 1.3,-0.2 2.3,-0.8 2.8,-2.1 0.2,-0.2 0.4,-0.3 0.6,-0.5 1,0 1.4,-0.5 1.6,-1.4 0.1,-0.1 0.1,-0.1 0.2,-0.2 1,0.1 1.4,-0.5 1.7,-1.3 0.1,-0.1 0.1,-0.1 0.2,-0.2 2.7,-1.2 4.3,-3.8 6.6,-5.5 0.1,-0.1 0.2,-0.1 0.3,-0.1 0.5,0.1 0.8,-0.1 0.9,-0.6 0.1,-0.1 0.2,-0.1 0.2,-0.1 0.5,0.1 0.8,-0.1 0.9,-0.6 0.2,-0.1 0.4,-0.2 0.5,-0.3 0.6,0.3 1.1,0 1.6,-0.3 5.6,-2.7 11.8,-3.8 17.7,-5.5 1.2,-0.3 2.5,-0.1 3.5,-1 0.2,0 0.4,0 0.6,-0.1 0.6,0 1.2,0.1 1.9,0.1 2.3,0.2 4.4,-0.7 6.7,-0.8 5.2,-0.1 10.4,0.3 15.6,0.6 0.3,0.1 0.6,0.2 0.9,0.3 0.2,0.7 0.9,0.9 1.5,0.9 1.9,0.2 3.6,0.9 5.4,1.6 7.4,2.7 14.4,6.3 22,8.5 1.7,0.5 3.3,1.4 5.2,1 0.2,0 0.5,0.1 0.7,0.1 0.5,0.8 1.3,0.8 2.1,0.9 0.1,0 0.2,0.1 0.2,0.1 0.9,1.9 2.6,3 4,4.4 2.2,2 4.9,3.6 6.7,6.2 1.3,1.9 3.5,3 5.7,4 0,0 0,0 0,0 0.3,1.5 1.2,2.4 2.7,2.6 0.2,0.3 0.5,0.5 0.7,0.8 0,1.8 1.2,3.3 1.8,4.9 2.6,6.9 5.5,13.6 7.6,20.6 2.3,7.5 5.3,14.9 7.3,22.5 0.5,1.8 0.9,3.8 2,5.4 0.4,1.5 0.1,3.2 1.5,4.2 z"
     id="path4232"
     inkscape:connector-curvature="0"
     style="fill:#fefefe" /><path
     class="st6"
     d="m 253,344.4 c 0.4,0.3 0.4,0.8 0.3,1.2 -1.1,5.7 1.3,10 5.4,13.6 1.3,1.1 3,1.2 4.6,1.4 4,0.5 7.6,-0.8 11.1,-2.3 1.3,-0.5 0.7,-1.2 0.3,-1.9 -1.8,-2.9 -3,-6 -2.7,-9.4 0.5,-5.1 3,-9.2 8.6,-10 4.3,-0.5 7.8,0.7 11.4,2.6 4.9,2.5 9.9,3.4 15.2,1.3 0.6,-0.2 1.2,-0.6 1.8,-1 1.4,-1.1 1.5,-2.2 0,-3.2 -2,-1.3 -3.2,-3.3 -4.8,-5 -1.6,-1.7 -1.3,-4 -1.6,-6.1 -0.7,-5.2 0.5,-9.9 4.7,-13.4 2,-1.7 4.6,-1.9 6.9,-3 2,-1 4.2,-1.6 6.5,-1.8 0.8,-0.1 1.7,-0.1 2.4,0 4.8,1 9.7,1.2 14.6,1.3 3.3,0.1 6.8,-0.3 10,-1.2 4.7,-1.3 7.1,-4.8 8.1,-9.3 0.7,-3.4 1,-7 -0.9,-10.3 -0.4,-0.7 -0.5,-1.6 -0.5,-2.4 -0.2,-4.5 -3.2,-6.6 -6.8,-8.1 -6.5,-2.7 -12.3,-6.4 -17.4,-11.2 -6.2,-5.9 -13.1,-10.7 -21.2,-13.6 -6.6,-2.3 -13.4,-3.3 -20.4,-2.8 -4.2,0.3 -8.4,1 -12.5,2.1 -3.7,1.1 -7.7,1.7 -11.6,2.1 -7.8,0.8 -15.7,0.6 -23.5,0.6 -4,0 -8,-0.8 -11.9,-1.6 -4.9,-0.9 -9.9,-1.9 -14.6,-3.5 -3.8,-1.3 -7.8,-2.9 -10.4,-6.4 -0.5,-0.6 -1.5,-0.8 -1.6,-1.8 3,1 5.9,2 8.9,3.1 4.6,1.6 9.3,1.1 14,0.8 5,-0.3 10,-0.8 14.9,-2 5.6,-1.3 11,-3 16.4,-5 1.2,-0.4 2.3,-0.9 3.6,-1.1 0.2,0.3 0.5,0.3 0.8,0.2 4.1,-0.8 8.3,-0.5 12.3,0 5.5,0.6 10.8,2.6 16,4.5 6.6,2.4 13.4,4.6 20.4,5.5 0.9,0.1 1.7,0.4 2.4,1.1 4.5,4.8 9.9,8.3 15.4,11.9 3.8,2.4 7.1,5.6 11.4,7.2 3.9,1.4 7.8,2.9 12.1,3.2 1.5,0.6 2.6,1.7 4,2.5 0.1,0.5 0.4,0.7 0.9,0.6 0.3,0.2 0.7,0.4 1,0.5 0.1,0.5 0.4,0.7 0.9,0.6 1.5,0.6 2.7,1.6 4,2.4 0.5,1 1.4,1.2 2.4,1.4 0.1,0 0.2,0.1 0.3,0.1 0.3,0.8 0.9,1 1.7,0.9 0.4,0.2 0.9,0.4 1.3,0.6 0.1,0.5 0.4,0.7 0.8,0.6 1.9,1.3 3.6,2.7 4.5,4.9 -0.1,0.4 0.1,0.7 0.5,0.9 0.1,0.3 0.2,0.6 0.3,0.9 -0.1,0.8 0,1.6 0.8,2.1 0,0.2 0.1,0.5 0.1,0.7 -0.4,0.5 -0.1,0.6 0.3,0.8 0.1,0.5 0.3,1 0.4,1.5 -0.4,2 -0.4,4 0,6 -0.1,0.4 -0.1,0.7 -0.2,1.1 -0.3,0.2 -0.6,0.4 -0.2,0.8 0,0.2 -0.1,0.5 -0.1,0.7 -0.8,1.4 -1.7,2.7 -1.9,4.4 -0.1,0.2 -0.2,0.4 -0.2,0.6 -1.4,1.4 -1.8,3.3 -2.5,5 -0.8,1.2 -1.9,2.1 -3.1,3 -0.7,0 -1.1,0.4 -1.2,1.1 -0.7,0.6 -1.2,1.4 -2.1,1.7 -0.5,-0.1 -0.8,0.1 -0.9,0.6 -0.1,0.1 -0.2,0.1 -0.3,0.1 -1,0 -1.4,0.6 -1.6,1.5 -0.4,0.4 -0.7,0.8 -1.1,1.2 -1.5,0.6 -3.2,0.8 -4.2,2.1 -0.4,0.2 -0.9,0.4 -1.3,0.6 -1,0 -2.1,0 -2.8,0.8 -0.4,0 -0.7,0.1 -1.1,0.1 -0.9,-0.4 -1.9,-0.7 -2.7,0.3 -0.2,0 -0.5,0.1 -0.7,0.1 -0.7,-0.4 -1.3,-0.5 -1.9,0.2 -1,0.2 -2,0.4 -3,0.1 -0.2,-0.4 -0.5,-0.5 -0.9,-0.5 -2.5,-0.1 -4.8,-1 -7,-2 -1.6,-0.8 -3.4,-1.2 -5.1,-1.7 -0.7,-0.4 -1.4,-0.8 -2.2,-1.3 -0.2,-0.8 -0.9,-1 -1.6,-1 -0.1,0 -0.2,-0.1 -0.3,-0.1 -1.6,-2 -3.8,-2 -5.9,-1.8 -3,0.3 -6.6,3 -6.3,6.7 0,0.8 0,1.5 0,2.3 -0.2,2.2 0.9,4.1 2.8,4.9 0.2,0.2 0.5,0.3 0.7,0.5 0.2,0.8 0.9,1 1.6,1 0.3,0.2 0.7,0.4 1,0.6 0.1,0.5 0.4,0.7 0.9,0.6 0.1,0 0.2,0.1 0.3,0.1 1.2,1.4 2.7,2.1 4.3,2.7 1.4,0.5 3,0.7 4.2,1.9 -0.3,0.5 -0.6,0.9 -0.9,1.4 -0.7,0.1 -1.1,0.4 -1.1,1.1 -1,1 -2.1,2 -3.3,2.7 -0.5,-0.1 -0.8,0.1 -0.9,0.6 -0.1,0.1 -0.2,0.1 -0.3,0.1 -0.9,0.1 -1.7,0.4 -2,1.3 -0.1,0.1 -0.2,0.1 -0.3,0.2 -1.4,0.3 -2.6,1.1 -3.9,1.8 -1.1,0.6 -2.6,0.5 -3.3,1.9 -0.1,0.1 -0.2,0.1 -0.3,0.1 -3,0.9 -5.9,2.3 -9.1,2.8 -1.1,0.2 -2.4,-0.3 -3.4,0.6 -0.5,0 -1,0 -1.5,0 -1.1,-0.9 -2.4,-1.6 -3.8,-1.9 -0.3,-0.2 -0.7,-0.3 -1,-0.5 -0.2,-0.8 -0.9,-1 -1.6,-1 -0.1,0 -0.2,-0.1 -0.3,-0.1 -0.1,-0.5 -0.4,-0.7 -0.9,-0.6 -0.1,0 -0.2,-0.1 -0.3,-0.1 -0.1,-0.5 -0.3,-0.7 -0.8,-0.7 -0.1,0 -0.2,-0.1 -0.3,-0.1 -1.2,-1.9 -3,-2.2 -5,-2.2 -1.1,0 -2.5,-0.1 -2.8,1.3 -0.3,1.5 -1.2,2.9 -1.3,4.5 -0.2,0.6 -0.5,1.2 -0.7,1.7 -0.9,1 -1.2,2.1 -1,3.4 0,0.3 0,0.5 0,0.8 -0.2,1.3 0.7,1.6 1.7,1.8 0.1,0 0.2,0.1 0.3,0.1 0.1,0.5 0.4,0.7 0.8,0.6 0.2,0.2 0.4,0.3 0.7,0.5 0.2,1.5 2.4,1.2 2.5,2.7 -0.1,0.2 -0.2,0.4 -0.3,0.5 -0.5,0.1 -0.7,0.4 -0.6,0.8 0,0.1 -0.1,0.2 -0.2,0.3 -0.5,0.1 -0.7,0.4 -0.6,0.9 -0.2,0.6 -0.9,1 -0.9,1.8 -0.9,0.5 -1.2,1.4 -1.3,2.4 -0.2,0.2 -0.3,0.5 -0.5,0.7 -0.5,0.1 -0.7,0.3 -0.7,0.8 -1.5,1.7 -2.8,3.5 -4.5,5 -0.7,0 -1.1,-0.4 -1.5,-0.9 -1.7,-2 -3.9,-3.1 -6.6,-3 -1.8,0.1 -3.6,0.1 -5.5,0 -2.9,-0.1 -5.6,-1 -8,-2.8 -3.4,-2.5 -5.1,-6.1 -6.6,-9.8 2.9,-3.7 4,-8.2 5.4,-12.5 0.2,-0.7 0.2,-1.6 0.8,-2.3 z"
     id="path4234"
     inkscape:connector-curvature="0"
     style="fill:#e1edf7" /><path
     class="st7"
     d="m 153,157.6 c -2.5,3.3 -4.6,6.9 -6.4,10.5 -3.2,6.2 -5.8,12.6 -8.2,19.2 -2.8,7.5 -5.3,15.1 -6.5,23.1 0,0.2 0,0.5 -0.1,0.8 0,5.9 -0.2,11.8 -0.3,17.7 -0.1,4.6 1.2,9 3.9,12.9 1.2,1.7 1.4,3.7 1.4,5.8 -7.1,2.4 -13.2,6.4 -18.8,11.2 -4.1,3.5 -8,7.3 -11.6,11.3 -1.1,1.2 -1.8,1.4 -3,0.1 -1.4,-1.4 -2.8,-2.7 -4.6,-3.5 -2.6,-1.2 -3.4,-2.6 -2.6,-5.5 2.3,-8.4 4.2,-17 7.9,-24.9 2.1,-4.5 4.6,-8.8 6.9,-13.2 3.5,-6.4 6.7,-13 10.1,-19.4 3.7,-7 6.8,-14.3 11.1,-21 4.2,-6.5 7.4,-13.6 11.5,-20.1 0.8,-1.2 1.6,-2.4 2.4,-3.6 0.5,-0.7 1.1,-1.1 2,-1.3 1.5,-0.3 3.2,-0.4 4.9,-0.1 z"
     id="path4236"
     inkscape:connector-curvature="0"
     style="fill:#b9d5ee" /><path
     class="st6"
     d="m 290,204.5 c 0.1,-0.6 0.5,-0.7 1,-0.6 5.1,0.1 10.1,-0.2 15.2,-0.7 5.6,-0.6 10.5,1.5 15,4.5 2.1,1.4 4.3,2.7 6,4.5 4.4,4.8 9.9,8.1 15.3,11.5 3,1.9 5.7,4.1 9,5.5 5.4,2.4 10.4,5.5 15.9,7.6 2.1,0.8 4.4,1 6.6,1.1 2.5,0.1 5,-0.1 7.6,0.1 3,0.2 5.2,-1.1 7.2,-3 0.8,-0.7 1.5,-1.6 2.7,-1.6 0.1,0 0.1,0.1 0.1,0.2 -0.2,0.9 0,1.6 0.7,2.1 0.1,0.5 0.1,1 0.2,1.4 -0.6,0.4 -0.2,0.6 0.2,0.8 0,0.2 0.1,0.5 0.1,0.7 -0.5,0.5 -0.2,0.7 0.2,0.8 0,0.2 0.1,0.5 0.1,0.7 -0.6,0.5 -0.4,0.9 0.2,1.2 0,0.2 0.1,0.5 0.1,0.7 -0.5,0.5 -0.4,0.9 0.3,1.2 0,0.5 0.1,1 0.1,1.5 -0.6,0.5 -0.4,0.9 0.2,1.2 0.2,1.2 0.3,2.5 0.5,3.7 -0.6,0.2 0.1,1.5 -1.2,1.3 -2.6,-0.4 -4.9,0.2 -7,2 -0.8,0.7 -1.9,0.9 -3,0.9 -2.1,-0.1 -4.2,-0.1 -6.4,-0.4 -3.9,-0.4 -7.9,-1.1 -11.5,-2.6 -4.9,-2.1 -9.8,-4.1 -14.8,-5.9 -2.6,-0.9 -5,-2.4 -7.7,-2.8 -1.7,-0.8 -2.9,-2.2 -4.2,-3.5 -5.6,-5.4 -10.5,-11.4 -16.6,-16.2 -4.5,-3.5 -8.4,-7.6 -12.5,-11.4 -4.7,-4.2 -10.2,-6.5 -16.6,-6.4 -0.9,0.1 -1.9,0.2 -3,-0.1 z"
     id="path4238"
     inkscape:connector-curvature="0"
     style="fill:#e1edf7" /><path
     class="st4"
     d="m 351,271 c -4.2,-0.3 -8.1,-1.7 -12.1,-3.2 -4.3,-1.6 -7.6,-4.7 -11.4,-7.2 -5.5,-3.5 -11,-7.1 -15.4,-11.9 -0.6,-0.7 -1.5,-0.9 -2.4,-1.1 -7,-1 -13.8,-3.1 -20.4,-5.5 -5.2,-1.9 -10.5,-3.9 -16,-4.5 -4.1,-0.5 -8.2,-0.8 -12.3,0 -0.3,0.1 -0.6,0.1 -0.8,-0.2 1.8,-1.3 4,-1.9 6,-2.5 6.2,-1.9 12.2,-4.6 17.6,-8.1 5.8,-3.8 11.4,-3.9 17.4,-0.8 4.7,2.5 9.5,4.8 13.6,8.3 4.3,3.7 7.9,8.1 11.8,12.1 4.3,4.3 7.9,9.2 12.4,13.3 3.8,3.5 7.5,7 11.4,10.4 0.3,0.3 0.4,0.6 0.6,0.9 z"
     id="path4240"
     inkscape:connector-curvature="0"
     style="fill:#a7cbea" /><path
     class="st4"
     d="m 249.2,223.8 c -9.2,4.6 -18.7,8.1 -29.3,7.4 -4.9,-0.3 -9.3,-1.4 -13.5,-3.6 -1.7,-0.9 -3.2,-2 -4.5,-3.3 -1.9,-1.9 -2.3,-4.4 -2.5,-6.9 -0.3,-4.7 0.5,-9.1 2.4,-13.5 3.3,-7.6 8.6,-13.2 15.3,-17.7 1,-0.7 1.7,-1.7 3,-1.9 0.1,0.5 0.1,1 -0.1,1.5 -2,3.7 -2.2,7.8 -2.4,11.9 -0.2,3.5 1.2,6.9 1.7,10.3 1.2,8.1 6.4,12.3 13.6,14.5 3.2,1 6.5,1.4 10,0.5 2.1,-0.6 4.3,-0.3 6.3,0.8 z"
     id="path4242"
     inkscape:connector-curvature="0"
     style="fill:#a7cbea" /><path
     class="st5"
     d="m 235.4,348.4 c -1,2 -2.7,3.2 -4.3,4.7 -2,0.6 -2.2,2.3 -2.6,3.9 0,0.1 0,0.2 -0.1,0.2 -0.6,0.1 -0.8,0.4 -0.6,0.9 -0.1,0.2 -0.1,0.4 -0.2,0.6 -1.1,0.5 -1,1.7 -1.3,2.6 -0.7,2.4 -1.1,2.6 -3.7,2.3 -5.7,-0.8 -9.7,-4.2 -12.8,-8.7 -1.2,-1.6 -2,-3.4 -1.6,-5.8 1.1,-6.2 3.4,-11.9 6.5,-17.2 1.9,-3.2 3.9,-6.6 8,-7.5 0.4,0 0.7,0.1 1.1,0.1 1.4,0.8 2.7,1.9 4.6,1.4 0.2,0.1 0.5,0.1 0.7,0.2 0.8,0.9 1.8,1.2 2.9,1.3 0.2,0.1 0.4,0.3 0.6,0.4 0.3,1.2 1.1,2 2.3,2.3 0.8,0.5 1.3,1.3 1.6,2.1 0.1,1.2 0.5,2.1 1.8,2.4 0.3,0.2 0.4,0.4 0.4,0.7 -0.4,0.3 -0.4,0.8 -0.4,1.2 0,2.7 -0.6,5.3 -1.6,7.9 -0.5,1.3 -1.5,2.5 -1.3,4 z"
     id="path4244"
     inkscape:connector-curvature="0"
     style="fill:#fefefe" /><path
     class="st6"
     d="m 249.2,223.8 c -2,-1.1 -4.2,-1.5 -6.3,-1 -3.4,0.8 -6.7,0.4 -10,-0.5 -7.2,-2.2 -12.4,-6.4 -13.6,-14.5 -0.5,-3.4 -1.9,-6.8 -1.7,-10.3 0.2,-4.1 0.4,-8.2 2.4,-11.9 0.3,-0.5 0.2,-1 0.1,-1.5 0.3,-0.5 0.7,-1.1 1.4,-1.2 1.7,-0.7 3.4,-1.4 4.3,-3.3 0.2,-0.2 0.4,-0.3 0.7,-0.5 0.5,0.1 0.8,-0.1 0.9,-0.6 0.1,-0.1 0.1,-0.1 0.2,-0.1 1.5,-0.6 2.9,-1.3 3.5,-2.9 0.2,-0.2 0.4,-0.3 0.6,-0.5 1,0.1 1.4,-0.5 1.7,-1.4 0.4,-0.4 0.8,-0.9 1.5,-0.8 0,2 -1,3.6 -1.9,5.2 -3.1,5.9 -3.7,12.3 -2.8,18.7 0.6,4.2 2.8,8.1 5.3,11.7 1.8,2.5 4.5,2.4 7,2.9 4,0.9 8,1.1 12,2.2 1.4,0.4 2.9,0.7 4.3,1.3 1.4,0.6 2.8,1 4.3,0.8 -4.3,3.4 -8.9,6.3 -13.9,8.2 z"
     id="path4246"
     inkscape:connector-curvature="0"
     style="fill:#e1edf7" /><path
     class="st5"
     d="m 193.5,318.5 c -0.1,0.3 -0.1,0.7 -0.2,1 -0.8,0.2 -1,0.6 -0.3,1.1 0,0.4 0.1,0.8 0.1,1.3 -0.2,0.5 -0.4,1.1 -0.9,1.4 -0.6,0 -0.8,0.4 -0.7,0.9 0,0.1 0,0.2 -0.1,0.2 -0.6,0 -0.8,0.4 -0.7,0.9 -0.2,0.2 -0.3,0.4 -0.5,0.6 -0.8,0.1 -1.2,0.5 -1,1.3 0,0.1 0,0.1 -0.1,0.2 -0.6,0 -0.8,0.3 -0.7,0.9 -1.1,1.5 -2,3.2 -3.8,4.1 -1.4,-1.2 -3.2,-0.9 -4.8,-1.2 -2.4,-0.4 -4.8,-0.9 -6.6,-2.5 -4.4,-4 -5.5,-12.4 -3,-17.1 2.6,-5 6,-9.5 10.8,-12.8 1.6,-1.1 3.5,-2.3 3.8,-4.6 0,-0.1 0,-0.3 0,-0.4 0.3,-0.1 0.7,-0.1 1,-0.2 0.9,0.3 1.9,0.4 2.8,-0.1 3.2,0.8 5,3.2 6.5,5.9 -0.1,0.4 0.1,0.7 0.5,0.9 0.5,0.7 0.6,1.6 0.8,2.4 -0.2,0.4 -0.2,0.7 0.2,0.9 0,1 0,2 0,3 -0.3,0 -0.6,0.1 -0.5,0.5 0,0.1 0.3,0.2 0.5,0.3 0,0.5 0,1 0.1,1.5 -0.6,0.6 -0.4,1.3 -0.2,2 0,0.3 -0.1,0.7 -0.1,1 -0.4,0.2 -0.4,0.5 -0.2,0.9 -0.4,1.4 -1.2,2.6 -1.9,3.9 -0.8,0.4 -1.1,1 -0.8,1.8 z"
     id="path4248"
     inkscape:connector-curvature="0"
     style="fill:#fefefe" /><path
     class="st6"
     d="m 126.5,265.1 c 0.3,-0.2 0.6,-0.4 1,-0.6 1.9,-0.3 3.3,-1.9 5.2,-2.3 0.6,-0.1 1.3,-0.5 1.4,-1.3 0.4,-0.2 0.9,-0.4 1.3,-0.6 0.9,0 1.7,0.1 2.1,-1 0.4,-0.1 0.8,-0.2 1.1,-0.4 0.6,0.6 1.4,0.3 2.1,0.3 3.5,0.4 7.1,0.3 10.3,1.9 0,1.9 -1.5,2.6 -2.8,3.2 -2.9,1.3 -5.4,3.2 -7.5,5.5 -3.7,4.1 -6.8,8.6 -8.1,14 -1.4,5.9 -0.7,10.9 4.8,14.5 0.5,0.3 1.2,0.6 1.1,1.4 -3.7,3.6 -8.2,5.9 -12.8,8 -3.9,-2.1 -6.7,-5.2 -7.1,-9.7 -0.7,-9.2 0.6,-18.1 4.2,-26.6 0.5,-1.2 1.4,-2.4 0.8,-3.9 0.2,-0.2 0.3,-0.4 0.5,-0.6 0.5,0 0.8,-0.2 0.8,-0.7 0.1,-0.1 0.1,-0.1 0.2,-0.1 0.9,0.1 1.3,-0.2 1.4,-1 z"
     id="path4250"
     inkscape:connector-curvature="0"
     style="fill:#e1edf7" /><path
     class="st4"
     d="m 343.2,242.1 c 2.8,0.4 5.1,1.9 7.7,2.8 5,1.8 9.9,3.8 14.8,5.9 3.6,1.5 7.5,2.2 11.5,2.6 2.1,0.2 4.2,0.3 6.4,0.4 1.1,0 2.2,-0.2 3,-0.9 2.1,-1.7 4.4,-2.4 7,-2 1.2,0.2 0.5,-1.1 1.2,-1.3 0.7,1.4 0.1,2.9 0.2,4.4 0.7,5.7 1.5,11.3 2.9,16.8 0.8,3.2 -2,5.8 -5.2,5.1 -3.2,-0.7 -5.7,-2.7 -8.3,-4.3 -4.5,-2.8 -9.1,-5.2 -13.8,-7.6 -4.2,-2.1 -8.2,-4.7 -11.8,-7.7 -4.3,-3.7 -8.3,-7.8 -13,-11.1 -1,-0.9 -2.1,-1.8 -2.6,-3.1 z"
     id="path4252"
     inkscape:connector-curvature="0"
     style="fill:#a7cbea" /><path
     class="st8"
     d="m 138.5,299.8 c 0,-0.8 -0.6,-1 -1.1,-1.4 -5.5,-3.6 -6.2,-8.6 -4.8,-14.5 1.3,-5.4 4.4,-9.9 8.1,-14 2.1,-2.3 4.6,-4.2 7.5,-5.5 1.3,-0.6 2.8,-1.3 2.8,-3.2 1,-0.2 1.8,0.9 2.8,0.6 1.2,0.2 1.9,1.1 2.6,1.9 -0.1,1 0.5,1.4 1.3,1.7 0.1,0.1 0.1,0.1 0.2,0.2 0.3,1.4 0.9,2.7 0.7,4.2 -0.3,2 -0.7,3.9 -1.5,5.8 -1,2.3 -1.9,4.6 -2.9,6.9 0,0.1 -0.1,0.2 -0.2,0.2 -1.3,0.4 -1.5,1.6 -1.8,2.8 0,0.1 -0.1,0.2 -0.1,0.3 -0.7,0.1 -1.1,0.5 -1,1.3 0,0.1 -0.1,0.2 -0.1,0.2 -0.5,0 -0.8,0.3 -0.7,0.9 -0.2,0.2 -0.3,0.4 -0.5,0.6 -1.5,0.8 -2.8,1.8 -3.3,3.5 0,0.1 -0.1,0.2 -0.2,0.2 -1.6,0.9 -2.9,2.1 -3.8,3.8 -0.5,0.4 -0.9,0.8 -1.4,1.3 -1,-0.1 -1.4,0.5 -1.6,1.4 -0.1,0.4 -0.5,0.8 -1,0.8 z"
     id="path4254"
     inkscape:connector-curvature="0"
     style="fill:#fdfdfe" /><path
     class="st4"
     d="m 123.7,267.6 c 0.6,1.5 -0.3,2.7 -0.8,3.9 -3.6,8.5 -5,17.4 -4.2,26.6 0.4,4.5 3.2,7.6 7.1,9.7 -3.2,2.1 -6.8,3.1 -10.7,2.8 -1.4,-0.1 -2.7,0 -4.1,-0.1 -4.8,-0.3 -7.4,-4.1 -8.3,-7.6 -1.2,-4.3 -0.3,-8.6 0.2,-12.9 0.1,-1 0.3,-2 0.4,-3 0.2,-3.8 3.1,-5.8 5.6,-7.8 4.7,-3.7 9.2,-7.6 13.9,-11.3 0.1,-0.1 0.5,-0.2 0.9,-0.3 z"
     id="path4256"
     inkscape:connector-curvature="0"
     style="fill:#a7cbea" /><path
     class="st4"
     d="m 177.1,338.4 c -1.2,1.4 -3,1.9 -4.6,2.7 -6.9,3.7 -14.3,3.2 -21.7,1.9 -3.1,-0.6 -5.7,-4.3 -5.9,-7.4 -0.3,-4.2 1.1,-7.8 2.9,-11.6 3.3,-7 8.4,-12.4 13.8,-17.7 0.4,-0.4 0.7,-0.9 1.4,-0.8 -0.4,1.9 -0.7,3.8 -2.3,5.2 -0.2,0.2 -0.2,0.6 -0.4,0.8 -2,3.8 -1.7,7.9 -1.4,12 0.2,3.1 1,6.2 4.3,7.9 4.7,2.4 9.7,4 13.9,7 z"
     id="path4258"
     inkscape:connector-curvature="0"
     style="fill:#a7cbea" /><path
     class="st6"
     d="m 222.8,324.4 c -4.2,0.9 -6.1,4.3 -8,7.5 -3.2,5.3 -5.4,11.1 -6.5,17.2 -0.4,2.4 0.4,4.1 1.6,5.8 3.2,4.5 7.1,7.9 12.8,8.7 2.6,0.4 3,0.1 3.7,-2.3 0.2,-0.9 0.2,-2 1.3,-2.6 -0.2,2.4 -1.1,4.6 -1.1,7 0,0.8 -0.7,1.3 -1.3,1.8 -2.3,2 -4.6,4 -6.9,6 -0.8,0.1 -1.2,-0.3 -1.6,-1 -1.4,-2.6 -3.6,-4.1 -6.6,-4.4 -4,-0.4 -7.2,-1.6 -9.1,-5.7 -1.5,-3.2 -1.5,-6.2 -1,-9.4 0.5,-3.3 1.9,-6.5 0.8,-9.9 0.1,-1.3 1,-2.1 1.7,-3.1 4.2,-6.7 10.1,-11.5 16.8,-15.3 1,-0.7 2.1,-1 3.4,-0.3 z"
     id="path4260"
     inkscape:connector-curvature="0"
     style="fill:#e1edf7" /><path
     class="st6"
     d="m 177.1,338.4 c -4.2,-3.1 -9.2,-4.6 -13.8,-7 -3.3,-1.7 -4.1,-4.7 -4.3,-7.9 -0.3,-4 -0.6,-8.2 1.4,-12 0.1,-0.3 0.2,-0.7 0.4,-0.8 1.6,-1.4 1.9,-3.3 2.3,-5.2 0.1,-0.1 0.2,-0.1 0.3,-0.1 0.9,0 1.4,-0.6 1.6,-1.4 0.6,-0.7 1.2,-1.3 2.2,-1.6 1,-0.1 1.8,-0.3 2,-1.4 0.7,-0.7 1.6,-1.2 2.5,-1.6 1.5,-0.3 2.9,-0.8 3.9,-2.1 0.3,-0.2 0.7,-0.4 1,-0.5 0.8,0 1.4,-0.2 1.6,-1 0.9,-0.7 1.7,-1.4 2.8,-1.7 1.3,0 2.6,0.1 3.9,0.1 -0.4,2.3 -2.3,3.5 -3.8,4.6 -4.8,3.3 -8.2,7.8 -10.8,12.8 -2.5,4.7 -1.4,13.1 3,17.1 1.8,1.6 4.2,2.1 6.6,2.5 1.6,0.3 3.4,0 4.8,1.2 -0.8,1.2 -1.9,1.9 -3,2.6 -0.5,-0.1 -0.8,0.1 -0.8,0.7 -0.4,0.3 -0.7,0.6 -1.1,0.8 -0.5,0 -0.8,0.2 -0.8,0.7 -0.6,0.5 -1.1,1 -1.9,1.2 z"
     id="path4262"
     inkscape:connector-curvature="0"
     style="fill:#e1edf7" /><path
     class="st4"
     d="m 200.7,343.1 c 1.1,3.4 -0.2,6.6 -0.8,9.9 -0.5,3.3 -0.5,6.3 1,9.4 1.9,4.1 5.2,5.3 9.1,5.7 3,0.3 5.2,1.8 6.6,4.4 0.4,0.7 0.8,1 1.6,1 -1.5,1.5 -3.3,2.5 -5.2,3.2 -2.9,1.1 -5.9,2.2 -9,2.4 -8.1,0.6 -14.2,-5.7 -13,-14.8 1.1,-7.9 4.7,-14.4 9.1,-20.8 0.1,-0.2 0.4,-0.3 0.6,-0.4 z"
     id="path4264"
     inkscape:connector-curvature="0"
     style="fill:#a7cbea" /><path
     class="st4"
     d="m 246.8,359.4 c 1.5,3.8 3.1,7.3 6.6,9.8 2.4,1.8 5.1,2.7 8,2.8 1.8,0.1 3.7,0.1 5.5,0 2.7,-0.1 4.9,1 6.6,3 0.4,0.5 0.8,0.9 1.5,0.9 -2.2,1.9 -4.7,3.4 -7.3,4.9 -4.3,2.5 -8.4,1.7 -12.8,0.3 -3.7,-1.2 -7.4,-2.3 -10.2,-5.3 -3.5,-3.8 -4.5,-8 -2.5,-11.6 1.2,-2 2.9,-3.5 4.6,-4.8 z"
     id="path4266"
     inkscape:connector-curvature="0"
     style="fill:#a7cbea" /><path
     class="st7"
     d="m 389.7,226.9 c -1.1,-1.7 -1.5,-3.6 -2,-5.4 -2,-7.6 -5,-15 -7.3,-22.5 -2.2,-7 -5.1,-13.8 -7.6,-20.6 -0.6,-1.6 -1.8,-3 -1.8,-4.9 1.9,2.8 3,5.9 4.2,9 4.6,11.7 8.4,23.8 12.4,35.7 0.9,2.9 1.6,5.8 2.5,8.7 -0.2,0 -0.3,0 -0.4,0 z"
     id="path4268"
     inkscape:connector-curvature="0"
     style="fill:#b9d5ee" /><path
     class="st7"
     d="m 348.2,154.4 c -1.9,0.4 -3.5,-0.5 -5.2,-1 -7.6,-2.2 -14.6,-5.8 -22,-8.5 -1.7,-0.6 -3.5,-1.4 -5.4,-1.6 -0.6,-0.1 -1.3,-0.2 -1.5,-0.9 4.5,0.7 8.9,2.2 13,4.2 6.4,3.1 13.2,5.1 19.9,7.3 0.4,0.2 0.9,0.1 1.2,0.5 z"
     id="path4270"
     inkscape:connector-curvature="0"
     style="fill:#b9d5ee" /><path
     class="st7"
     d="m 313.2,142.1 c -5.2,-0.4 -10.4,-0.7 -15.6,-0.6 -2.3,0 -4.4,1 -6.7,0.8 -0.6,-0.1 -1.2,-0.1 -1.9,-0.1 1.1,-1 2.5,-0.4 3.8,-0.7 6.1,-1.1 12.2,-0.6 18.3,-0.2 0.8,0 1.6,0.1 2.1,0.8 z"
     id="path4272"
     inkscape:connector-curvature="0"
     style="fill:#b9d5ee" /><path
     class="st7"
     d="m 367.6,170.1 c -2.1,-1 -4.4,-2.1 -5.7,-4 -1.8,-2.6 -4.4,-4.2 -6.7,-6.2 -1.5,-1.3 -3.1,-2.5 -4,-4.4 2.3,1.1 3.5,3.3 5.5,4.7 2.3,1.6 4.4,3.3 5.9,5.7 0.7,1.1 2,1.6 3.1,2.4 0.8,0.5 1.6,0.9 1.9,1.8 z"
     id="path4274"
     inkscape:connector-curvature="0"
     style="fill:#b9d5ee" /><path
     class="st7"
     d="m 288.5,142.2 c -1,0.9 -2.4,0.6 -3.5,1 -5.9,1.7 -12.1,2.8 -17.7,5.5 -0.5,0.2 -1,0.6 -1.6,0.3 1.7,-1.3 3.7,-2.1 5.8,-2.7 5.3,-1.6 10.5,-3.3 16,-4.1 0.3,-0.1 0.7,-0.3 1,0 z"
     id="path4276"
     inkscape:connector-curvature="0"
     style="fill:#b9d5ee" /><path
     class="st7"
     d="m 154.1,282.6 c 1,-2.3 1.9,-4.6 2.9,-6.9 0.8,-1.9 1.3,-3.8 1.5,-5.8 0.2,-1.5 -0.4,-2.8 -0.7,-4.2 1.1,0.5 1.3,1.6 1.3,2.5 0.1,5.4 -2,10.1 -5,14.4 z"
     id="path4278"
     inkscape:connector-curvature="0"
     style="fill:#b9d5ee" /><path
     class="st4"
     d="m 313,323.2 c -0.3,-3.8 3.3,-6.4 6.3,-6.7 2.2,-0.2 4.4,-0.2 5.9,1.8 -1.4,-0.2 -2.6,-1.2 -4.1,-1.2 -3.9,0 -6.5,1.8 -7.7,5.6 -0.1,0.2 -0.3,0.3 -0.4,0.5 z"
     id="path4280"
     inkscape:connector-curvature="0"
     style="fill:#a7cbea" /><path
     class="st7"
     d="m 153.8,261.9 c -1,0.3 -1.8,-0.8 -2.8,-0.6 -3.3,-1.6 -6.8,-1.5 -10.3,-1.9 -0.7,-0.1 -1.5,0.3 -2.1,-0.3 2.2,-0.9 4.5,-0.2 6.6,0.1 3,0.3 6,0.8 8.6,2.7 z"
     id="path4282"
     inkscape:connector-curvature="0"
     style="fill:#b9d5ee" /><path
     class="st6"
     d="m 235.4,348.4 c -0.2,-1.5 0.8,-2.7 1.3,-4 0.9,-2.5 1.5,-5.1 1.6,-7.9 0,-0.4 0,-0.9 0.4,-1.2 0.8,1.7 0.2,3.3 -0.1,4.9 -0.6,3 -1.6,5.7 -3.2,8.2 z"
     id="path4284"
     inkscape:connector-curvature="0"
     style="fill:#e1edf7" /><path
     class="st4"
     d="m 329.2,320.7 c 1.7,0.5 3.5,0.9 5.1,1.7 2.2,1.1 4.5,1.9 7,2 0.4,0 0.7,0.1 0.9,0.5 -2.1,0.5 -4.1,-0.4 -5.9,-1.1 -2.4,-1 -5,-1.4 -7.1,-3.1 z"
     id="path4286"
     inkscape:connector-curvature="0"
     style="fill:#a7cbea" /><path
     class="st4"
     d="m 280.3,350.9 c 0.1,-1.6 1,-2.9 1.3,-4.5 0.3,-1.4 1.6,-1.3 2.8,-1.3 2,0 3.8,0.3 5,2.2 -1.7,-0.7 -3.4,-1.8 -5.4,-1.6 -1.1,0.1 -1.7,0.3 -1.9,1.5 -0.4,1.4 -0.7,2.8 -1.8,3.7 z"
     id="path4288"
     inkscape:connector-curvature="0"
     style="fill:#a7cbea" /><path
     class="st4"
     d="m 299.8,352.4 c 1,-0.9 2.3,-0.4 3.4,-0.6 3.2,-0.6 6.1,-1.9 9.1,-2.8 -1.8,1.9 -4.4,2.1 -6.7,2.9 -1.8,0.5 -3.7,1.2 -5.8,0.5 z"
     id="path4290"
     inkscape:connector-curvature="0"
     style="fill:#a7cbea" /><path
     class="st4"
     d="m 328.7,337.7 c -1.1,-1.2 -2.7,-1.4 -4.2,-1.9 -1.6,-0.6 -3.2,-1.3 -4.3,-2.7 2.8,1.2 5.5,2.6 8.4,3.5 0.7,0.3 0.8,0.7 0.1,1.1 z"
     id="path4292"
     inkscape:connector-curvature="0"
     style="fill:#a7cbea" /><path
     class="st6"
     d="m 185,209.2 c -0.2,-0.2 -0.3,-0.4 -0.2,-0.6 1,-2.9 2.1,-5.9 3.1,-8.8 0.1,-0.4 0.3,-0.7 0.8,-0.7 -1.1,3.3 -2.3,6.7 -3.7,10.1 z"
     id="path4294"
     inkscape:connector-curvature="0"
     style="fill:#e1edf7" /><path
     class="st7"
     d="m 262.8,150.6 c -2.3,1.7 -3.9,4.3 -6.6,5.5 2.1,-2 3.7,-4.5 6.6,-5.5 z"
     id="path4296"
     inkscape:connector-curvature="0"
     style="fill:#b9d5ee" /><path
     class="st4"
     d="m 312.7,348.8 c 0.7,-1.4 2.2,-1.3 3.3,-1.9 1.3,-0.7 2.5,-1.5 3.9,-1.8 -2,2 -4.7,2.9 -7.2,3.7 z"
     id="path4298"
     inkscape:connector-curvature="0"
     style="fill:#a7cbea" /><path
     class="st6"
     d="m 186.9,228.8 c -0.6,0 -0.9,-0.4 -1.1,-0.9 -0.7,-1.9 -1.3,-3.8 -2,-5.6 -0.1,-0.4 -0.1,-0.7 0.3,-1 1,2.5 1.6,5.1 2.8,7.5 z"
     id="path4300"
     inkscape:connector-curvature="0"
     style="fill:#e1edf7" /><path
     class="st7"
     d="m 134,261 c -0.1,0.8 -0.8,1.2 -1.4,1.3 -1.9,0.4 -3.2,2 -5.2,2.3 1.8,-2 4.3,-2.7 6.6,-3.6 z"
     id="path4302"
     inkscape:connector-curvature="0"
     style="fill:#b9d5ee" /><path
     class="st6"
     d="m 184.1,219.4 c -0.5,-0.1 -0.7,-0.6 -0.6,-1 0.3,-1.9 -0.7,-4 0.6,-5.8 0,2.2 0,4.5 0,6.8 z"
     id="path4304"
     inkscape:connector-curvature="0"
     style="fill:#e1edf7" /><path
     class="st4"
     d="m 375.3,299.1 c -0.4,-2 -0.4,-4 0,-6 0.7,2 0.7,4 0,6 z"
     id="path4306"
     inkscape:connector-curvature="0"
     style="fill:#a7cbea" /><path
     class="st7"
     d="m 247.4,163.5 c -1,1.9 -2.7,3 -4.7,3.6 1.3,-1.4 2.9,-2.6 4.7,-3.6 z"
     id="path4308"
     inkscape:connector-curvature="0"
     style="fill:#b9d5ee" /><path
     class="st7"
     d="m 142.7,296.4 c 0.9,-1.6 2.1,-2.9 3.8,-3.8 -0.9,1.7 -2.2,3 -3.8,3.8 z"
     id="path4310"
     inkscape:connector-curvature="0"
     style="fill:#b9d5ee" /><path
     class="st4"
     d="m 315.7,330.4 c -1.9,-0.8 -3,-2.7 -2.8,-4.9 0.8,1.8 1.8,3.4 2.8,4.9 z"
     id="path4312"
     inkscape:connector-curvature="0"
     style="fill:#a7cbea" /><path
     class="st7"
     d="m 225.8,179.7 c -0.9,1.8 -2.6,2.6 -4.3,3.3 1.1,-1.5 2.7,-2.4 4.3,-3.3 z"
     id="path4314"
     inkscape:connector-curvature="0"
     style="fill:#b9d5ee" /><path
     class="st7"
     d="m 146.6,292.4 c 0.4,-1.8 1.8,-2.7 3.3,-3.5 -0.7,1.5 -2,2.5 -3.3,3.5 z"
     id="path4316"
     inkscape:connector-curvature="0"
     style="fill:#b9d5ee" /><path
     class="st4"
     d="m 370.2,311.6 c 0.7,-1.7 1.1,-3.6 2.5,-5 -0.6,1.8 -1,3.7 -2.5,5 z"
     id="path4318"
     inkscape:connector-curvature="0"
     style="fill:#a7cbea" /><path
     class="st7"
     d="m 231.1,175.6 c -0.7,1.6 -2,2.4 -3.5,2.9 0.9,-1.3 2.1,-2.2 3.5,-2.9 z"
     id="path4320"
     inkscape:connector-curvature="0"
     style="fill:#b9d5ee" /><path
     class="st6"
     d="m 228.5,325.9 c -1.8,0.5 -3.1,-0.6 -4.6,-1.4 1.7,0 3.1,0.7 4.6,1.4 z"
     id="path4322"
     inkscape:connector-curvature="0"
     style="fill:#e1edf7" /><path
     class="st6"
     d="m 228.5,357 c 0.4,-1.6 0.6,-3.3 2.6,-3.9 -0.9,1.3 -1.4,2.8 -2.6,3.9 z"
     id="path4324"
     inkscape:connector-curvature="0"
     style="fill:#e1edf7" /><path
     class="st4"
     d="m 355.7,322.8 c 1.1,-1.4 2.8,-1.5 4.2,-2.1 -1,1.3 -2.6,1.7 -4.2,2.1 z"
     id="path4326"
     inkscape:connector-curvature="0"
     style="fill:#a7cbea" /><path
     class="st4"
     d="m 389.7,226.9 c 0.1,0 0.2,0 0.4,0 0.7,1.3 1.1,2.7 1.1,4.2 -1.4,-1 -1.1,-2.7 -1.5,-4.2 z"
     id="path4328"
     inkscape:connector-curvature="0"
     style="fill:#a7cbea" /><path
     class="st4"
     d="m 372.9,306 c 0.2,-1.7 1.1,-3 1.9,-4.4 0,1.8 -0.8,3.2 -1.9,4.4 z"
     id="path4330"
     inkscape:connector-curvature="0"
     style="fill:#a7cbea" /><path
     class="st4"
     d="m 284.5,362.7 c -0.1,-1.6 -2.3,-1.3 -2.5,-2.7 1,0.1 1.7,0.9 2.5,1.3 0.8,0.4 0.8,1 0,1.4 z"
     id="path4332"
     inkscape:connector-curvature="0"
     style="fill:#a7cbea" /><path
     class="st4"
     d="m 294.5,350.5 c 1.5,0.3 2.7,1 3.8,1.9 -1.6,0 -2.8,-0.8 -3.8,-1.9 z"
     id="path4334"
     inkscape:connector-curvature="0"
     style="fill:#a7cbea" /><path
     class="st4"
     d="m 185,294.2 c -1.3,0 -2.6,-0.1 -3.9,-0.1 1.2,-1 2.6,-0.6 3.9,-0.3 0,0.1 0,0.2 0,0.4 z"
     id="path4336"
     inkscape:connector-curvature="0"
     style="fill:#a7cbea" /><path
     class="st4"
     d="m 175.6,297.3 c -1,1.3 -2.4,1.8 -3.9,2.1 1,-1.2 2.4,-1.8 3.9,-2.1 z"
     id="path4338"
     inkscape:connector-curvature="0"
     style="fill:#a7cbea" /><path
     class="st7"
     d="m 370.3,172.8 c -1.5,-0.2 -2.3,-1.2 -2.7,-2.6 1.1,0.6 2,1.5 2.7,2.6 z"
     id="path4340"
     inkscape:connector-curvature="0"
     style="fill:#b9d5ee" /><path
     class="st4"
     d="m 278.6,356.1 c -0.2,-1.3 0,-2.5 1,-3.4 0,1.2 -0.2,2.4 -1,3.4 z"
     id="path4342"
     inkscape:connector-curvature="0"
     style="fill:#a7cbea" /><path
     class="st7"
     d="m 251.9,159.7 c -0.5,1.3 -1.5,1.9 -2.8,2.1 0.7,-0.9 1.7,-1.7 2.8,-2.1 z"
     id="path4344"
     inkscape:connector-curvature="0"
     style="fill:#b9d5ee" /><path
     class="st6"
     d="m 190,232.9 c -1.5,-0.4 -2.2,-1.3 -2.2,-2.8 0.8,0.9 1.6,1.7 2.2,2.8 z"
     id="path4346"
     inkscape:connector-curvature="0"
     style="fill:#e1edf7" /><path
     class="st6"
     d="m 200.4,240.8 c -1.5,0.2 -2.4,-0.4 -2.9,-1.8 1,0.5 2.1,0.9 2.9,1.8 z"
     id="path4348"
     inkscape:connector-curvature="0"
     style="fill:#e1edf7" /><path
     class="st6"
     d="m 234.9,330.1 c -1.2,-0.3 -2,-1.1 -2.3,-2.3 1.1,0.4 1.9,1.2 2.3,2.3 z"
     id="path4350"
     inkscape:connector-curvature="0"
     style="fill:#e1edf7" /><path
     class="st6"
     d="m 253.5,332.3 c 0.9,0.9 1.4,1.8 0.6,3 -0.5,-0.9 -0.4,-2 -0.6,-3 z"
     id="path4352"
     inkscape:connector-curvature="0"
     style="fill:#e1edf7" /><path
     class="st7"
     d="m 152.2,285.6 c 0.2,-1.2 0.4,-2.3 1.8,-2.8 -0.3,1.1 -0.8,2.1 -1.8,2.8 z"
     id="path4354"
     inkscape:connector-curvature="0"
     style="fill:#b9d5ee" /><path
     class="st4"
     d="m 347.8,324.6 c 0.8,-1 1.7,-0.6 2.7,-0.3 -0.9,0.7 -1.8,0.4 -2.7,0.3 z"
     id="path4356"
     inkscape:connector-curvature="0"
     style="fill:#a7cbea" /><path
     class="st4"
     d="m 351.5,324.2 c 0.8,-0.9 1.8,-0.9 2.8,-0.8 -0.7,0.8 -1.7,1 -2.8,0.8 z"
     id="path4358"
     inkscape:connector-curvature="0"
     style="fill:#a7cbea" /><path
     class="st6"
     d="m 238.3,334.6 c -1.3,-0.3 -1.8,-1.2 -1.8,-2.4 0.8,0.6 1.4,1.4 1.8,2.4 z"
     id="path4360"
     inkscape:connector-curvature="0"
     style="fill:#e1edf7" /><path
     class="st6"
     d="m 214.8,308 c 0.8,-1.1 1.7,-0.8 2.7,-0.3 -0.8,0.5 -1.8,0.4 -2.7,0.3 z"
     id="path4362"
     inkscape:connector-curvature="0"
     style="fill:#e1edf7" /><path
     class="st6"
     d="m 279.1,207.7 c 0.7,-1.4 2,-1.2 3.3,-1.4 -1,0.9 -2.2,1 -3.3,1.4 z"
     id="path4364"
     inkscape:connector-curvature="0"
     style="fill:#e1edf7" /><path
     class="st4"
     d="m 188.8,293.5 c -0.9,0.4 -1.8,0.3 -2.8,0.1 0.9,-0.7 1.8,-0.7 2.8,-0.1 z"
     id="path4366"
     inkscape:connector-curvature="0"
     style="fill:#a7cbea" /><path
     class="st4"
     d="m 280.3,358.7 c -1,-0.2 -1.9,-0.5 -1.7,-1.8 0.7,0.4 1.4,1 1.7,1.8 z"
     id="path4368"
     inkscape:connector-curvature="0"
     style="fill:#a7cbea" /><path
     class="st6"
     d="m 276.1,209.2 c 0.6,-1.2 1.7,-1.3 2.8,-1.4 -0.7,0.9 -1.8,1.1 -2.8,1.4 z"
     id="path4370"
     inkscape:connector-curvature="0"
     style="fill:#e1edf7" /><path
     class="st6"
     d="m 207.3,293.4 c 1.4,0.5 1.3,1.7 1.4,2.9 -0.8,-0.8 -1.1,-1.9 -1.4,-2.9 z"
     id="path4372"
     inkscape:connector-curvature="0"
     style="fill:#e1edf7" /><path
     class="st6"
     d="m 232,327.3 c -1.1,-0.1 -2.1,-0.4 -2.9,-1.3 1.2,0.1 2.2,0.4 2.9,1.3 z"
     id="path4374"
     inkscape:connector-curvature="0"
     style="fill:#e1edf7" /><path
     class="st4"
     d="m 364.1,279 c -1,-0.2 -1.9,-0.4 -2.4,-1.4 1,0.2 1.9,0.5 2.4,1.4 z"
     id="path4376"
     inkscape:connector-curvature="0"
     style="fill:#a7cbea" /><path
     class="st4"
     d="m 280.6,369.4 c 0.2,-1 0.4,-1.9 1.3,-2.4 -0.1,1 -0.3,1.9 -1.3,2.4 z"
     id="path4378"
     inkscape:connector-curvature="0"
     style="fill:#a7cbea" /><path
     class="st7"
     d="m 154.4,245.5 c 0.8,-0.6 1.6,-0.8 2.3,0.1 -0.7,0.2 -1.5,0.3 -2.3,-0.1 z"
     id="path4380"
     inkscape:connector-curvature="0"
     style="fill:#b9d5ee" /><path
     class="st7"
     d="m 241.3,144.6 c -0.8,0.5 -1.6,0.7 -2.3,-0.2 0.8,-0.2 1.5,-0.4 2.3,0.2 z"
     id="path4382"
     inkscape:connector-curvature="0"
     style="fill:#b9d5ee" /><path
     class="st6"
     d="m 271.5,211.4 c 0.5,-1.1 1.4,-1.4 2.5,-1.3 -0.6,0.7 -1.5,1.1 -2.5,1.3 z"
     id="path4384"
     inkscape:connector-curvature="0"
     style="fill:#e1edf7" /><path
     class="st4"
     d="m 169.2,301 c -0.2,1.1 -1,1.4 -2,1.4 0.4,-0.8 1.1,-1.2 2,-1.4 z"
     id="path4386"
     inkscape:connector-curvature="0"
     style="fill:#a7cbea" /><path
     class="st6"
     d="m 193.8,189.7 c 0,-1 0.2,-1.9 1.5,-2 -0.3,0.8 -0.8,1.5 -1.5,2 z"
     id="path4388"
     inkscape:connector-curvature="0"
     style="fill:#e1edf7" /><path
     class="st4"
     d="m 320.2,345 c 0.3,-1 1.1,-1.3 2,-1.3 -0.4,0.8 -1.1,1.3 -2,1.3 z"
     id="path4390"
     inkscape:connector-curvature="0"
     style="fill:#a7cbea" /><path
     class="st4"
     d="m 374.5,290.1 c -0.8,-0.5 -0.9,-1.3 -0.8,-2.1 0.7,0.5 1,1.2 0.8,2.1 z"
     id="path4392"
     inkscape:connector-curvature="0"
     style="fill:#a7cbea" /><path
     class="st7"
     d="m 351,155.4 c -0.8,0 -1.6,-0.1 -2.1,-0.9 0.9,-0.1 1.6,0.1 2.1,0.9 z"
     id="path4394"
     inkscape:connector-curvature="0"
     style="fill:#b9d5ee" /><path
     class="st7"
     d="m 233.4,173.7 c -0.2,0.9 -0.7,1.4 -1.7,1.4 0.4,-0.7 0.8,-1.3 1.7,-1.4 z"
     id="path4396"
     inkscape:connector-curvature="0"
     style="fill:#b9d5ee" /><path
     class="st7"
     d="m 139.7,299.1 c 0.2,-0.9 0.7,-1.4 1.6,-1.4 -0.3,0.7 -0.8,1.2 -1.6,1.4 z"
     id="path4398"
     inkscape:connector-curvature="0"
     style="fill:#b9d5ee" /><path
     class="st7"
     d="m 256,156.3 c -0.2,0.8 -0.7,1.5 -1.7,1.3 0.4,-0.6 0.9,-1.2 1.7,-1.3 z"
     id="path4400"
     inkscape:connector-curvature="0"
     style="fill:#b9d5ee" /><path
     class="st4"
     d="m 165,304 c -0.2,0.9 -0.7,1.4 -1.6,1.4 0.3,-0.7 0.7,-1.3 1.6,-1.4 z"
     id="path4402"
     inkscape:connector-curvature="0"
     style="fill:#a7cbea" /><path
     class="st4"
     d="m 196.5,310.9 c -0.2,-0.7 -0.4,-1.4 0.2,-2 0.5,0.7 0.5,1.4 -0.2,2 z"
     id="path4404"
     inkscape:connector-curvature="0"
     style="fill:#a7cbea" /><path
     class="st7"
     d="m 157.7,265.5 c -0.8,-0.2 -1.4,-0.7 -1.3,-1.7 0.7,0.4 1.3,0.8 1.3,1.7 z"
     id="path4406"
     inkscape:connector-curvature="0"
     style="fill:#b9d5ee" /><path
     class="st4"
     d="m 361.1,319.5 c 0.1,-0.9 0.6,-1.5 1.6,-1.5 -0.4,0.8 -0.9,1.3 -1.6,1.5 z"
     id="path4408"
     inkscape:connector-curvature="0"
     style="fill:#a7cbea" /><path
     class="st7"
     d="m 137.4,259.4 c -0.4,1 -1.2,1 -2.1,1 0.5,-0.7 1.3,-0.9 2.1,-1 z"
     id="path4410"
     inkscape:connector-curvature="0"
     style="fill:#b9d5ee" /><path
     class="st7"
     d="m 254.2,157.8 c -0.2,0.9 -0.7,1.4 -1.6,1.4 0.2,-0.7 0.7,-1.2 1.6,-1.4 z"
     id="path4412"
     inkscape:connector-curvature="0"
     style="fill:#b9d5ee" /><path
     class="st4"
     d="m 345.2,324.9 c 0.6,-0.7 1.2,-0.6 1.9,-0.2 -0.6,0.6 -1.3,0.5 -1.9,0.2 z"
     id="path4414"
     inkscape:connector-curvature="0"
     style="fill:#a7cbea" /><path
     class="st7"
     d="m 242.4,167.3 c -0.2,0.9 -0.7,1.5 -1.7,1.4 0.4,-0.8 0.9,-1.3 1.7,-1.4 z"
     id="path4416"
     inkscape:connector-curvature="0"
     style="fill:#b9d5ee" /><path
     class="st6"
     d="m 252.8,329.7 c 0.8,0.5 1.1,1.1 0.6,1.9 -0.5,-0.6 -0.7,-1.2 -0.6,-1.9 z"
     id="path4418"
     inkscape:connector-curvature="0"
     style="fill:#e1edf7" /><path
     class="st4"
     d="m 193.5,318.5 c -0.3,-0.8 0,-1.4 0.7,-1.8 0.2,0.8 -0.1,1.3 -0.7,1.8 z"
     id="path4420"
     inkscape:connector-curvature="0"
     style="fill:#a7cbea" /><path
     class="st4"
     d="m 392.2,235.7 c -0.7,-0.5 -0.9,-1.3 -0.7,-2.1 0.6,0.5 0.9,1.2 0.7,2.1 z"
     id="path4422"
     inkscape:connector-curvature="0"
     style="fill:#a7cbea" /><path
     class="st6"
     d="m 282.8,206.1 c 0.4,-0.9 1,-1.1 1.9,-0.7 -0.5,0.4 -1.1,0.7 -1.9,0.7 z"
     id="path4424"
     inkscape:connector-curvature="0"
     style="fill:#e1edf7" /><path
     class="st6"
     d="m 184.2,211.8 c -0.5,-0.8 -0.1,-1.4 0.6,-1.9 0.1,0.7 0,1.4 -0.6,1.9 z"
     id="path4426"
     inkscape:connector-curvature="0"
     style="fill:#e1edf7" /><path
     class="st6"
     d="m 269.6,212.5 c 0.2,-0.9 0.9,-1.1 1.7,-1 -0.4,0.7 -1,1 -1.7,1 z"
     id="path4428"
     inkscape:connector-curvature="0"
     style="fill:#e1edf7" /><path
     class="st4"
     d="m 325.5,318.4 c 0.7,0 1.4,0.2 1.6,1 -0.8,0 -1.3,-0.3 -1.6,-1 z"
     id="path4430"
     inkscape:connector-curvature="0"
     style="fill:#a7cbea" /><path
     class="st7"
     d="m 139.6,247.4 c 0.5,-0.6 1,-0.7 1.6,-0.1 -0.5,0.5 -1,0.4 -1.6,0.1 z"
     id="path4432"
     inkscape:connector-curvature="0"
     style="fill:#b9d5ee" /><path
     class="st4"
     d="m 178.2,295.8 c -0.2,0.8 -0.9,1 -1.6,1 0.3,-0.7 0.9,-1 1.6,-1 z"
     id="path4434"
     inkscape:connector-curvature="0"
     style="fill:#a7cbea" /><path
     class="st6"
     d="m 199.8,182.8 c 0,-1 0.6,-1.2 1.5,-1.2 -0.4,0.6 -0.8,1 -1.5,1.2 z"
     id="path4436"
     inkscape:connector-curvature="0"
     style="fill:#e1edf7" /><path
     class="st4"
     d="m 291.8,349 c 0.7,0 1.4,0.2 1.6,1 -0.7,0 -1.3,-0.3 -1.6,-1 z"
     id="path4438"
     inkscape:connector-curvature="0"
     style="fill:#a7cbea" /><path
     class="st6"
     d="m 210.1,301.7 c 0.9,0.4 0.8,0.9 0.2,1.5 -0.4,-0.4 -0.4,-1 -0.2,-1.5 z"
     id="path4440"
     inkscape:connector-curvature="0"
     style="fill:#e1edf7" /><path
     class="st7"
     d="m 219.8,144.5 c -0.5,0.7 -1,0.6 -1.5,0.1 0.4,-0.5 0.9,-0.5 1.5,-0.1 z"
     id="path4442"
     inkscape:connector-curvature="0"
     style="fill:#b9d5ee" /><path
     class="st4"
     d="m 366.1,280.1 c -0.8,0.1 -1.4,-0.1 -1.7,-0.9 0.7,-0.1 1.3,0.2 1.7,0.9 z"
     id="path4444"
     inkscape:connector-curvature="0"
     style="fill:#a7cbea" /><path
     class="st4"
     d="m 318.1,331.9 c -0.8,0 -1.4,-0.2 -1.6,-1 0.7,0 1.2,0.3 1.6,1 z"
     id="path4446"
     inkscape:connector-curvature="0"
     style="fill:#a7cbea" /><path
     class="st7"
     d="m 126.5,265.1 c -0.1,0.7 -0.5,1.1 -1.3,1 0.2,-0.5 0.6,-1 1.3,-1 z"
     id="path4448"
     inkscape:connector-curvature="0"
     style="fill:#b9d5ee" /><path
     class="st4"
     d="m 365.9,315.6 c 0.1,-0.7 0.5,-1.1 1.2,-1.1 -0.1,0.7 -0.5,1.1 -1.2,1.1 z"
     id="path4450"
     inkscape:connector-curvature="0"
     style="fill:#a7cbea" /><path
     class="st6"
     d="m 189.3,327.2 c -0.2,-0.8 0.2,-1.3 1,-1.3 -0.1,0.7 -0.5,1 -1,1.3 z"
     id="path4452"
     inkscape:connector-curvature="0"
     style="fill:#e1edf7" /><path
     class="st7"
     d="m 151.1,287.1 c -0.2,-0.8 0.2,-1.2 1,-1.3 0,0.7 -0.4,1.1 -1,1.3 z"
     id="path4454"
     inkscape:connector-curvature="0"
     style="fill:#b9d5ee" /><path
     class="st7"
     d="m 240.6,168.8 c -0.1,0.7 -0.5,1.1 -1.3,1 0.2,-0.6 0.6,-1 1.3,-1 z"
     id="path4456"
     inkscape:connector-curvature="0"
     style="fill:#b9d5ee" /><path
     class="st4"
     d="m 326.7,340.2 c 0.1,-0.7 0.4,-1.1 1.1,-1.1 -0.1,0.7 -0.5,1.1 -1.1,1.1 z"
     id="path4458"
     inkscape:connector-curvature="0"
     style="fill:#a7cbea" /><path
     class="st6"
     d="m 223.9,307.8 c 0.5,-0.6 0.9,-0.5 1.2,0.2 -0.5,0.1 -0.8,0.1 -1.2,-0.2 z"
     id="path4460"
     inkscape:connector-curvature="0"
     style="fill:#e1edf7" /><path
     class="st7"
     d="m 225.9,144 c -0.3,0.6 -0.7,0.7 -1.2,0.1 0.3,-0.3 0.7,-0.3 1.2,-0.1 z"
     id="path4462"
     inkscape:connector-curvature="0"
     style="fill:#b9d5ee" /><path
     class="st4"
     d="m 193.1,321.9 c 0,-0.4 -0.1,-0.8 -0.1,-1.3 0.1,0 0.3,0 0.4,0 0.4,0.5 0.3,1 -0.3,1.3 z"
     id="path4464"
     inkscape:connector-curvature="0"
     style="fill:#a7cbea" /><path
     class="st6"
     d="m 212.6,308.4 c 0.3,-0.7 0.6,-0.8 1.2,-0.2 -0.4,0.3 -0.8,0.3 -1.2,0.2 z"
     id="path4466"
     inkscape:connector-curvature="0"
     style="fill:#e1edf7" /><path
     class="st6"
     d="m 288.1,204.9 c 0.2,-0.7 0.6,-0.8 1.1,-0.3 -0.2,0.4 -0.6,0.4 -1.1,0.3 z"
     id="path4468"
     inkscape:connector-curvature="0"
     style="fill:#e1edf7" /><path
     class="st6"
     d="m 193.4,320.6 c -0.1,0 -0.3,0 -0.4,0 -0.6,-0.6 -0.5,-1 0.3,-1.1 0,0.3 0.1,0.7 0.1,1.1 z"
     id="path4470"
     inkscape:connector-curvature="0"
     style="fill:#e1edf7" /><path
     class="st6"
     d="m 254.1,339.5 c 0.6,0.5 0.5,0.9 -0.3,1.1 -0.1,-0.4 0,-0.8 0.3,-1.1 z"
     id="path4472"
     inkscape:connector-curvature="0"
     style="fill:#e1edf7" /><path
     class="st4"
     d="m 394.2,245.9 c -0.7,-0.3 -0.8,-0.7 -0.2,-1.2 0.3,0.3 0.3,0.7 0.2,1.2 z"
     id="path4474"
     inkscape:connector-curvature="0"
     style="fill:#a7cbea" /><path
     class="st4"
     d="m 393.8,243.2 c -0.7,-0.3 -0.8,-0.6 -0.3,-1.2 0.5,0.3 0.4,0.8 0.3,1.2 z"
     id="path4476"
     inkscape:connector-curvature="0"
     style="fill:#a7cbea" /><path
     class="st4"
     d="m 393.4,241.3 c -0.7,-0.3 -0.8,-0.7 -0.2,-1.2 0.4,0.4 0.4,0.8 0.2,1.2 z"
     id="path4478"
     inkscape:connector-curvature="0"
     style="fill:#a7cbea" /><path
     class="st6"
     d="m 202,180.9 c 0,-0.7 0.5,-0.8 1,-0.8 -0.1,0.5 -0.5,0.7 -1,0.8 z"
     id="path4480"
     inkscape:connector-curvature="0"
     style="fill:#e1edf7" /><path
     class="st7"
     d="m 245,146.4 c 0,-0.3 0,-0.6 0,-0.9 0.3,-0.1 0.7,-0.1 0.7,0.3 0.1,0.4 -0.3,0.5 -0.7,0.6 z"
     id="path4482"
     inkscape:connector-curvature="0"
     style="fill:#b9d5ee" /><path
     class="st4"
     d="m 281.4,359.5 c -0.5,0.1 -0.8,-0.1 -0.8,-0.6 0.4,-0.1 0.7,0.1 0.8,0.6 z"
     id="path4484"
     inkscape:connector-curvature="0"
     style="fill:#a7cbea" /><path
     class="st4"
     d="m 178.9,337.2 c 0.1,-0.5 0.3,-0.7 0.8,-0.7 0,0.5 -0.3,0.7 -0.8,0.7 z"
     id="path4486"
     inkscape:connector-curvature="0"
     style="fill:#a7cbea" /><path
     class="st6"
     d="m 265.8,214.4 c 0.1,-0.6 0.4,-0.8 1,-0.6 -0.2,0.5 -0.5,0.7 -1,0.6 z"
     id="path4488"
     inkscape:connector-curvature="0"
     style="fill:#e1edf7" /><path
     class="st4"
     d="m 180.8,335.7 c 0.1,-0.5 0.3,-0.7 0.8,-0.7 0,0.5 -0.3,0.7 -0.8,0.7 z"
     id="path4490"
     inkscape:connector-curvature="0"
     style="fill:#a7cbea" /><path
     class="st4"
     d="m 283.6,364.1 c 0,-0.5 0.2,-0.8 0.6,-0.8 0.1,0.4 -0.1,0.7 -0.6,0.8 z"
     id="path4492"
     inkscape:connector-curvature="0"
     style="fill:#a7cbea" /><path
     class="st4"
     d="m 282.9,365.2 c -0.1,-0.5 0.1,-0.8 0.6,-0.9 0.1,0.6 -0.2,0.8 -0.6,0.9 z"
     id="path4494"
     inkscape:connector-curvature="0"
     style="fill:#a7cbea" /><path
     class="st7"
     d="m 207.4,146.6 c -0.2,0.5 -0.4,0.8 -0.8,0.2 0.1,-0.3 0.4,-0.3 0.8,-0.2 z"
     id="path4496"
     inkscape:connector-curvature="0"
     style="fill:#b9d5ee" /><path
     class="st7"
     d="m 208.9,146.2 c -0.2,0.4 -0.4,0.7 -0.8,0.2 0.2,-0.3 0.4,-0.3 0.8,-0.2 z"
     id="path4498"
     inkscape:connector-curvature="0"
     style="fill:#b9d5ee" /><path
     class="st7"
     d="m 178.6,154.9 c -0.1,0.5 -0.3,0.8 -0.8,0.3 0.2,-0.4 0.5,-0.4 0.8,-0.3 z"
     id="path4500"
     inkscape:connector-curvature="0"
     style="fill:#b9d5ee" /><path
     class="st4"
     d="m 319.9,333 c -0.5,0.1 -0.8,-0.1 -0.9,-0.6 0.6,-0.1 0.8,0.2 0.9,0.6 z"
     id="path4502"
     inkscape:connector-curvature="0"
     style="fill:#a7cbea" /><path
     class="st4"
     d="m 279.5,370.9 c 0,-0.5 0.2,-0.7 0.7,-0.8 0,0.5 -0.3,0.6 -0.7,0.8 z"
     id="path4504"
     inkscape:connector-curvature="0"
     style="fill:#a7cbea" /><path
     class="st7"
     d="m 234.5,144.2 c -0.4,0.5 -0.6,0.2 -0.8,-0.2 0.3,-0.2 0.6,-0.1 0.8,0.2 z"
     id="path4506"
     inkscape:connector-curvature="0"
     style="fill:#b9d5ee" /><path
     class="st7"
     d="m 173,156.5 c -0.2,0.4 -0.4,0.7 -0.8,0.2 0.2,-0.4 0.5,-0.4 0.8,-0.2 z"
     id="path4508"
     inkscape:connector-curvature="0"
     style="fill:#b9d5ee" /><path
     class="st4"
     d="m 290.7,348.3 c 0.5,-0.1 0.8,0.1 0.9,0.6 -0.5,0 -0.8,-0.2 -0.9,-0.6 z"
     id="path4510"
     inkscape:connector-curvature="0"
     style="fill:#a7cbea" /><path
     class="st4"
     d="m 289.6,347.5 c 0.5,-0.1 0.8,0.1 0.8,0.7 -0.5,0 -0.7,-0.3 -0.8,-0.7 z"
     id="path4512"
     inkscape:connector-curvature="0"
     style="fill:#a7cbea" /><path
     class="st7"
     d="m 168.8,157.3 c -0.2,0.4 -0.4,0.7 -0.8,0.2 0.2,-0.4 0.5,-0.4 0.8,-0.2 z"
     id="path4514"
     inkscape:connector-curvature="0"
     style="fill:#b9d5ee" /><path
     class="st7"
     d="m 182.4,153.8 c -0.2,0.5 -0.5,0.6 -1,0.3 0.3,-0.3 0.6,-0.5 1,-0.3 z"
     id="path4516"
     inkscape:connector-curvature="0"
     style="fill:#b9d5ee" /><path
     class="st7"
     d="m 264,149.9 c -0.1,0.5 -0.4,0.7 -0.9,0.6 0.1,-0.4 0.4,-0.6 0.9,-0.6 z"
     id="path4518"
     inkscape:connector-curvature="0"
     style="fill:#b9d5ee" /><path
     class="st4"
     d="m 322.5,343.5 c 0.1,-0.5 0.4,-0.7 0.9,-0.6 -0.2,0.5 -0.4,0.7 -0.9,0.6 z"
     id="path4520"
     inkscape:connector-curvature="0"
     style="fill:#a7cbea" /><path
     class="st6"
     d="m 253.4,342.9 c 0.5,0.4 0.3,0.6 -0.2,0.8 -0.2,-0.3 -0.1,-0.6 0.2,-0.8 z"
     id="path4522"
     inkscape:connector-curvature="0"
     style="fill:#e1edf7" /><path
     class="st6"
     d="m 263.9,215.5 c 0.1,-0.6 0.4,-0.7 1,-0.6 -0.2,0.4 -0.5,0.7 -1,0.6 z"
     id="path4524"
     inkscape:connector-curvature="0"
     style="fill:#e1edf7" /><path
     class="st6"
     d="m 253.8,341.4 c 0.5,0.4 0.3,0.6 -0.2,0.8 -0.2,-0.4 -0.1,-0.6 0.2,-0.8 z"
     id="path4526"
     inkscape:connector-curvature="0"
     style="fill:#e1edf7" /><path
     class="st6"
     d="m 227.8,358.2 c -0.1,-0.5 0,-0.9 0.6,-0.9 0.1,0.4 -0.2,0.7 -0.6,0.9 z"
     id="path4528"
     inkscape:connector-curvature="0"
     style="fill:#e1edf7" /><path
     class="st7"
     d="m 174.9,156.1 c -0.2,0.4 -0.4,0.7 -0.8,0.2 0.2,-0.3 0.4,-0.4 0.8,-0.2 z"
     id="path4530"
     inkscape:connector-curvature="0"
     style="fill:#b9d5ee" /><path
     class="st7"
     d="m 183.9,153.4 c -0.2,0.4 -0.4,0.7 -0.8,0.2 0.2,-0.3 0.5,-0.3 0.8,-0.2 z"
     id="path4532"
     inkscape:connector-curvature="0"
     style="fill:#b9d5ee" /><path
     class="st7"
     d="m 193.4,150.4 c -0.2,0.4 -0.4,0.7 -0.8,0.2 0.2,-0.3 0.5,-0.3 0.8,-0.2 z"
     id="path4534"
     inkscape:connector-curvature="0"
     style="fill:#b9d5ee" /><path
     class="st7"
     d="m 171.1,156.9 c -0.2,0.4 -0.4,0.7 -0.8,0.2 0.2,-0.4 0.5,-0.4 0.8,-0.2 z"
     id="path4536"
     inkscape:connector-curvature="0"
     style="fill:#b9d5ee" /><path
     class="st6"
     d="m 197.3,238.9 c -0.6,0.1 -0.9,0 -1,-0.7 0.5,0 0.8,0.3 1,0.7 z"
     id="path4538"
     inkscape:connector-curvature="0"
     style="fill:#e1edf7" /><path
     class="st4"
     d="m 393,239.4 c -0.5,-0.2 -0.8,-0.4 -0.2,-0.8 0.3,0.2 0.4,0.5 0.2,0.8 z"
     id="path4540"
     inkscape:connector-curvature="0"
     style="fill:#a7cbea" /><path
     class="st7"
     d="m 194.9,150.1 c -0.2,0.4 -0.4,0.7 -0.8,0.2 0.2,-0.4 0.5,-0.4 0.8,-0.2 z"
     id="path4542"
     inkscape:connector-curvature="0"
     style="fill:#b9d5ee" /><path
     class="st4"
     d="m 374.9,291.6 c -0.4,-0.2 -0.7,-0.3 -0.3,-0.8 0.3,0.2 0.4,0.4 0.3,0.8 z"
     id="path4544"
     inkscape:connector-curvature="0"
     style="fill:#a7cbea" /><path
     class="st6"
     d="m 205.4,290.4 c 0.6,0 0.8,0.4 0.7,1 -0.4,-0.2 -0.7,-0.5 -0.7,-1 z"
     id="path4546"
     inkscape:connector-curvature="0"
     style="fill:#e1edf7" /><path
     class="st6"
     d="m 203.8,288.5 c 0.6,0 0.8,0.3 0.8,0.9 -0.4,-0.1 -0.7,-0.4 -0.8,-0.9 z"
     id="path4548"
     inkscape:connector-curvature="0"
     style="fill:#e1edf7" /><path
     class="st7"
     d="m 150.3,288.2 c -0.1,-0.5 0.1,-0.8 0.7,-0.9 0,0.5 -0.2,0.8 -0.7,0.9 z"
     id="path4550"
     inkscape:connector-curvature="0"
     style="fill:#b9d5ee" /><path
     class="st7"
     d="m 196.8,149.7 c -0.2,0.4 -0.4,0.7 -0.8,0.2 0.2,-0.4 0.4,-0.4 0.8,-0.2 z"
     id="path4552"
     inkscape:connector-curvature="0"
     style="fill:#b9d5ee" /><path
     class="st4"
     d="m 373.3,287.1 c -0.4,-0.1 -0.6,-0.4 -0.5,-0.9 0.5,0.1 0.7,0.4 0.5,0.9 z"
     id="path4554"
     inkscape:connector-curvature="0"
     style="fill:#a7cbea" /><path
     class="st4"
     d="m 368.3,281.3 c -0.5,0 -0.7,-0.2 -0.8,-0.6 0.4,-0.1 0.7,0.1 0.8,0.6 z"
     id="path4556"
     inkscape:connector-curvature="0"
     style="fill:#a7cbea" /><path
     class="st7"
     d="m 265.1,149.2 c -0.1,0.5 -0.4,0.7 -0.9,0.6 0.2,-0.4 0.5,-0.7 0.9,-0.6 z"
     id="path4558"
     inkscape:connector-curvature="0"
     style="fill:#b9d5ee" /><path
     class="st6"
     d="m 286.2,205.1 c 0.2,-0.4 0.5,-0.6 0.8,-0.1 -0.2,0.3 -0.5,0.4 -0.8,0.1 z"
     id="path4560"
     inkscape:connector-curvature="0"
     style="fill:#e1edf7" /><path
     class="st7"
     d="m 157.4,245.8 c 0.5,-0.5 0.7,-0.2 0.8,0.3 -0.3,0.1 -0.6,0 -0.8,-0.3 z"
     id="path4562"
     inkscape:connector-curvature="0"
     style="fill:#b9d5ee" /><path
     class="st6"
     d="m 190,196 c -0.6,-0.6 -0.2,-0.7 0.3,-0.8 0,0.3 0,0.6 -0.3,0.8 z"
     id="path4564"
     inkscape:connector-curvature="0"
     style="fill:#e1edf7" /><path
     class="st6"
     d="m 191.5,193.1 c -0.1,-0.6 0,-0.9 0.6,-1 0.1,0.5 -0.2,0.8 -0.6,1 z"
     id="path4566"
     inkscape:connector-curvature="0"
     style="fill:#e1edf7" /><path
     class="st7"
     d="m 125,266.2 c 0,0.5 -0.3,0.7 -0.8,0.7 0,-0.4 0.3,-0.7 0.8,-0.7 z"
     id="path4568"
     inkscape:connector-curvature="0"
     style="fill:#b9d5ee" /><path
     class="st7"
     d="m 199.4,148.9 c -0.2,0.4 -0.4,0.7 -0.8,0.2 0.2,-0.3 0.5,-0.4 0.8,-0.2 z"
     id="path4570"
     inkscape:connector-curvature="0"
     style="fill:#b9d5ee" /><path
     class="st4"
     d="m 355.8,274.1 c -0.5,0.1 -0.8,-0.1 -0.9,-0.6 0.5,-0.1 0.8,0.2 0.9,0.6 z"
     id="path4572"
     inkscape:connector-curvature="0"
     style="fill:#a7cbea" /><path
     class="st4"
     d="m 357.7,275.2 c -0.5,0.1 -0.8,-0.1 -0.9,-0.6 0.5,-0.1 0.8,0.2 0.9,0.6 z"
     id="path4574"
     inkscape:connector-curvature="0"
     style="fill:#a7cbea" /><path
     class="st7"
     d="m 227.3,178.6 c -0.1,0.5 -0.4,0.7 -0.9,0.6 0.2,-0.3 0.5,-0.6 0.9,-0.6 z"
     id="path4576"
     inkscape:connector-curvature="0"
     style="fill:#b9d5ee" /><path
     class="st6"
     d="m 252.3,328.2 c 0.5,0.1 0.9,0.3 0.3,0.8 -0.3,-0.2 -0.4,-0.5 -0.3,-0.8 z"
     id="path4578"
     inkscape:connector-curvature="0"
     style="fill:#e1edf7" /><path
     class="st6"
     d="m 188.5,328.3 c -0.1,-0.6 0.1,-0.9 0.7,-0.9 0,0.5 -0.3,0.7 -0.7,0.9 z"
     id="path4580"
     inkscape:connector-curvature="0"
     style="fill:#e1edf7" /><path
     class="st7"
     d="m 203.6,147.7 c -0.2,0.5 -0.5,0.7 -1,0.4 0.2,-0.4 0.5,-0.6 1,-0.4 z"
     id="path4582"
     inkscape:connector-curvature="0"
     style="fill:#b9d5ee" /><path
     class="st6"
     d="m 190.8,325.3 c -0.1,-0.5 0.1,-0.9 0.7,-0.9 -0.1,0.5 -0.3,0.7 -0.7,0.9 z"
     id="path4584"
     inkscape:connector-curvature="0"
     style="fill:#e1edf7" /><path
     class="st6"
     d="m 191.5,324.2 c -0.1,-0.6 0.1,-0.9 0.7,-0.9 0,0.4 -0.3,0.7 -0.7,0.9 z"
     id="path4586"
     inkscape:connector-curvature="0"
     style="fill:#e1edf7" /><path
     class="st6"
     d="m 249.6,322.5 c 0.6,0 0.8,0.4 0.7,1 -0.5,-0.2 -0.7,-0.5 -0.7,-1 z"
     id="path4588"
     inkscape:connector-curvature="0"
     style="fill:#e1edf7" /><path
     class="st6"
     d="m 248.8,321.4 c 0.7,0 0.9,0.3 0.7,0.9 -0.4,-0.2 -0.7,-0.4 -0.7,-0.9 z"
     id="path4590"
     inkscape:connector-curvature="0"
     style="fill:#e1edf7" /><path
     class="st7"
     d="m 239,169.9 c -0.1,0.5 -0.4,0.7 -0.9,0.6 0.2,-0.4 0.5,-0.6 0.9,-0.6 z"
     id="path4592"
     inkscape:connector-curvature="0"
     style="fill:#b9d5ee" /><path
     class="st4"
     d="m 362.9,317.9 c 0.1,-0.5 0.4,-0.7 0.9,-0.6 -0.2,0.4 -0.4,0.7 -0.9,0.6 z"
     id="path4594"
     inkscape:connector-curvature="0"
     style="fill:#a7cbea" /><path
     class="st7"
     d="m 236.8,171.5 c -0.1,0.5 -0.4,0.7 -0.9,0.6 0.2,-0.5 0.4,-0.7 0.9,-0.6 z"
     id="path4596"
     inkscape:connector-curvature="0"
     style="fill:#b9d5ee" /><path
     class="st6"
     d="m 238.8,312.8 c 0.6,-0.2 0.9,0 1,0.6 -0.5,0.1 -0.8,-0.2 -1,-0.6 z"
     id="path4598"
     inkscape:connector-curvature="0"
     style="fill:#e1edf7" /><path
     class="st4"
     d="m 196.1,312.8 c -0.2,-0.4 -0.1,-0.7 0.2,-0.9 0.5,0.5 0.2,0.7 -0.2,0.9 z"
     id="path4600"
     inkscape:connector-curvature="0"
     style="fill:#a7cbea" /><path
     class="st6"
     d="m 196.2,238.2 c -0.6,0.1 -0.9,0 -0.9,-0.7 0.4,0 0.7,0.3 0.9,0.7 z"
     id="path4602"
     inkscape:connector-curvature="0"
     style="fill:#e1edf7" /><path
     class="st6"
     d="m 209.4,298.3 c 0.5,0.2 0.7,0.4 0.2,0.8 -0.3,-0.2 -0.4,-0.5 -0.2,-0.8 z"
     id="path4604"
     inkscape:connector-curvature="0"
     style="fill:#e1edf7" /><path
     class="st4"
     d="m 195.8,300.3 c -0.4,-0.2 -0.6,-0.5 -0.5,-0.9 0.4,0.1 0.7,0.4 0.5,0.9 z"
     id="path4606"
     inkscape:connector-curvature="0"
     style="fill:#a7cbea" /><path
     class="st6"
     d="m 209.7,300.2 c 0.5,0.2 0.8,0.4 0.2,0.8 -0.3,-0.2 -0.3,-0.5 -0.2,-0.8 z"
     id="path4608"
     inkscape:connector-curvature="0"
     style="fill:#e1edf7" /><path
     class="st4"
     d="m 374.9,300.9 c -0.4,-0.4 -0.1,-0.6 0.2,-0.8 0.2,0.4 0.2,0.6 -0.2,0.8 z"
     id="path4610"
     inkscape:connector-curvature="0"
     style="fill:#a7cbea" /><path
     class="st4"
     d="m 392.6,237.9 c -0.5,-0.2 -0.8,-0.4 -0.2,-0.8 0.3,0.2 0.4,0.5 0.2,0.8 z"
     id="path4612"
     inkscape:connector-curvature="0"
     style="fill:#a7cbea" /><path
     class="st4"
     d="m 196.7,303.6 c -0.4,-0.2 -0.4,-0.5 -0.2,-0.9 0.4,0.3 0.7,0.5 0.2,0.9 z"
     id="path4614"
     inkscape:connector-curvature="0"
     style="fill:#a7cbea" /><path
     class="st6"
     d="m 196.7,307.4 c -0.2,-0.1 -0.5,-0.2 -0.5,-0.3 -0.1,-0.4 0.3,-0.4 0.5,-0.5 0,0.3 0,0.5 0,0.8 z"
     id="path4616"
     inkscape:connector-curvature="0"
     style="fill:#e1edf7" /><path
     class="st7"
     d="m 235.7,172.3 c -0.1,0.5 -0.4,0.7 -0.9,0.6 0.1,-0.5 0.4,-0.7 0.9,-0.6 z"
     id="path4618"
     inkscape:connector-curvature="0"
     style="fill:#b9d5ee" /><path
     class="st6"
     d="m 226.6,308.2 c 0.4,-0.6 0.6,-0.3 0.8,0.2 -0.4,0.1 -0.6,0 -0.8,-0.2 z"
     id="path4620"
     inkscape:connector-curvature="0"
     style="fill:#e1edf7" /><path
     class="st6"
     d="m 228.1,308.5 c 0.4,-0.5 0.6,-0.3 0.8,0.2 -0.4,0.2 -0.6,0.1 -0.8,-0.2 z"
     id="path4622"
     inkscape:connector-curvature="0"
     style="fill:#e1edf7" /><path
     class="st6"
     d="m 230,308.9 c 0.5,-0.6 0.7,-0.3 0.8,0.2 -0.4,0.2 -0.7,0.1 -0.8,-0.2 z"
     id="path4624"
     inkscape:connector-curvature="0"
     style="fill:#e1edf7" /><path
     class="st6"
     d="m 233,310 c 0.5,-0.6 0.7,-0.2 0.8,0.3 -0.4,0.1 -0.6,0 -0.8,-0.3 z"
     id="path4626"
     inkscape:connector-curvature="0"
     style="fill:#e1edf7" /><path
     class="st6"
     d="m 236.1,311.3 c 0.6,-0.2 0.9,-0.1 1,0.6 -0.4,0.1 -0.7,-0.2 -1,-0.6 z"
     id="path4628"
     inkscape:connector-curvature="0"
     style="fill:#e1edf7" /><path
     class="st5"
     d="m 396.5,143.8 c 0.5,-1.2 1.6,-1.7 2.6,-2.4 1.4,0.3 2.5,-1.1 3.8,-0.6 2.5,0.8 4.8,-0.1 6.8,-1.2 3.3,-1.7 6.6,-2.7 10.3,-1.8 1.7,0.4 3.5,0.3 5.2,0.5 2.1,0.2 3.2,2.1 4.9,2.9 0.1,0.1 0.1,0.1 0.2,0.2 0.1,1.4 1,2.3 2,3.1 1.9,1.5 2.5,3.7 3.2,5.9 0.2,0.8 0.5,1.7 0.8,2.5 1.9,4.7 3.8,9.4 5,14.3 1.6,6.6 3.7,13.1 5.3,19.7 1.5,6.1 2.9,12.1 4.2,18.3 0.2,0.9 0,2.1 1.1,2.6 0.2,1 0.4,2 0.6,2.9 -3.5,1.2 -5.6,4.2 -7.8,6.8 -1.6,2 -3.3,3.7 -5.8,4.6 -1,0.4 -1.7,0.3 -2.5,-0.5 -2,-1.8 -3.6,-4 -5.3,-6.1 -4,-4.8 -7.4,-10.1 -9.5,-16 -1.2,-3.5 -2.8,-6.8 -4.2,-10.2 -2.5,-5.7 -5,-11.4 -7.1,-17.3 -1.6,-4.5 -3.1,-9 -4.5,-13.5 -1.8,-5.8 -4.8,-10.7 -9.3,-14.7 z"
     id="path4630"
     inkscape:connector-curvature="0"
     style="fill:#fefefe" /><path
     class="st4"
     d="m 456.4,229.9 c 1.1,7.9 3.4,15.5 4.9,23.3 1.1,6 -1.8,13.4 -6.5,16.4 -0.9,0.6 -1.9,1 -2.9,1.2 -4,0.8 -8.1,1.7 -12.1,2.6 -1.5,0.4 -2.4,0 -3.1,-1.3 -3.6,-7.5 -6.5,-15.2 -8.5,-23.3 -1.1,-4.4 -2,-8.8 -3,-13.2 -0.9,-4.1 -1.9,-8.1 -2.8,-12.2 0.9,0.4 1.2,1.2 1.8,1.8 3.9,4 8.9,6.7 13.2,10.3 0.8,0.7 1.9,1.2 3,1.1 4.5,-0.3 9.1,0 12.3,-4.1 0.9,-1.1 2.5,-1.7 3.7,-2.6 z"
     id="path4632"
     inkscape:connector-curvature="0"
     style="fill:#a7cbea" /><path
     class="st6"
     d="m 456.4,229.9 c -1.2,1 -2.8,1.5 -3.8,2.7 -3.2,4.1 -7.9,3.8 -12.3,4.1 -1,0.1 -2.1,-0.4 -3,-1.1 -4.3,-3.5 -9.3,-6.2 -13.2,-10.3 -0.6,-0.6 -1,-1.5 -1.8,-1.8 -0.3,-1 -0.6,-2 -0.9,-3 0.5,-0.4 0.2,-0.6 -0.2,-0.8 -1.1,-3.2 -2.1,-6.3 -3.2,-9.5 -0.2,-0.6 -0.4,-1.3 -0.6,-2 0.2,-0.5 0,-0.8 -0.5,-1 -0.2,-0.6 -0.4,-1.1 -0.6,-1.7 0.2,-0.5 0.1,-0.8 -0.4,-1 -0.4,-1.5 -0.8,-3 -1.2,-4.5 0.5,-0.4 0.2,-0.6 -0.2,-0.8 0,-0.2 -0.1,-0.5 -0.1,-0.7 0.5,-0.5 0.2,-0.7 -0.3,-0.8 -1.9,-4.8 -2.6,-9.9 -4.3,-14.7 -0.7,-2.2 -1.4,-4.4 -2.1,-6.6 0.1,-0.8 0,-1.6 -0.9,-2.1 -0.6,-1.3 -1.1,-2.6 -1.4,-4 0.1,-0.8 0,-1.6 -0.8,-2.1 -0.1,-0.4 -0.2,-0.9 -0.3,-1.3 0.2,-0.5 0.1,-0.8 -0.4,-1 -3.1,-5.8 -5.4,-11.9 -7.9,-18 -0.6,-1.5 -0.3,-2.9 0.5,-4.3 4.5,4 7.5,8.9 9.2,14.6 1.4,4.5 2.9,9 4.5,13.5 2.1,5.9 4.7,11.6 7.1,17.3 1.5,3.4 3,6.7 4.2,10.2 2,6 5.5,11.2 9.5,16 1.7,2.1 3.3,4.3 5.3,6.1 0.8,0.7 1.5,0.8 2.5,0.5 2.5,-0.8 4.1,-2.6 5.8,-4.6 2.2,-2.7 4.2,-5.6 7.8,-6.8 0.5,0.8 0.7,1.7 0.8,2.7 -0.5,0.4 -0.2,0.6 0.2,0.8 0,0.2 0.1,0.5 0.1,0.7 -0.5,0.5 -0.1,0.7 0.3,0.8 0.2,1 0.3,2 0.5,3 -0.5,0.4 -0.2,0.6 0.2,0.8 0.1,0.7 0.1,1.5 0.2,2.2 -0.5,0.4 -0.2,0.6 0.2,0.8 0.1,0.5 0.2,1 0.2,1.4 -0.5,0.4 -0.3,0.6 0.1,0.8 0.1,0.8 0.3,1.6 0.4,2.4 -0.2,0.5 0,0.8 0.5,1 0.1,0.9 0.2,1.5 0.3,2.1 z"
     id="path4634"
     inkscape:connector-curvature="0"
     style="fill:#e1edf7" /><path
     class="st7"
     d="m 451.8,207.7 c -1.1,-0.5 -1,-1.7 -1.1,-2.6 -1.3,-6.1 -2.7,-12.2 -4.2,-18.3 -1.6,-6.6 -3.7,-13.1 -5.3,-19.7 -1.2,-4.9 -3.1,-9.6 -5,-14.3 -0.3,-0.8 -0.6,-1.6 -0.8,-2.5 -0.6,-2.2 -1.3,-4.3 -3.2,-5.9 -0.9,-0.8 -1.8,-1.7 -2,-3.1 1.7,1.8 3.8,3.3 4.7,5.8 2.3,6.7 5.2,13.2 7,20.1 2.5,9.2 4.9,18.4 7.2,27.7 1.1,4.2 2.3,8.5 2.7,12.8 z"
     id="path4636"
     inkscape:connector-curvature="0"
     style="fill:#b9d5ee" /><path
     class="st7"
     d="m 430.1,141.2 c -1.7,-0.8 -2.8,-2.7 -4.9,-2.9 -1.7,-0.2 -3.5,-0.1 -5.2,-0.5 -3.7,-0.9 -7,0.1 -10.3,1.8 -2.1,1.1 -4.3,2 -6.8,1.2 -1.4,-0.4 -2.5,0.9 -3.8,0.6 1.1,-1.2 2.6,-1.7 4.1,-1.3 1.9,0.5 3.7,0.2 5.3,-0.8 5.7,-3.8 11.8,-2.6 17.9,-1.5 1.7,0.4 3.1,1.6 3.7,3.4 z"
     id="path4638"
     inkscape:connector-curvature="0"
     style="fill:#b9d5ee" /><path
     class="st4"
     d="m 406.9,174.4 c 0.9,0.5 0.9,1.2 0.9,2.1 -0.8,-0.6 -0.9,-1.3 -0.9,-2.1 z"
     id="path4640"
     inkscape:connector-curvature="0"
     style="fill:#a7cbea" /><path
     class="st4"
     d="m 404.6,168.3 c 0.8,0.5 0.9,1.3 0.8,2.1 -0.7,-0.5 -0.8,-1.3 -0.8,-2.1 z"
     id="path4642"
     inkscape:connector-curvature="0"
     style="fill:#a7cbea" /><path
     class="st4"
     d="m 421.3,219.7 c 0.4,0.2 0.7,0.4 0.2,0.8 -0.3,-0.2 -0.4,-0.5 -0.2,-0.8 z"
     id="path4644"
     inkscape:connector-curvature="0"
     style="fill:#a7cbea" /><path
     class="st4"
     d="m 453.4,214.1 c -0.4,-0.2 -0.7,-0.4 -0.2,-0.8 0.4,0.2 0.4,0.5 0.2,0.8 z"
     id="path4646"
     inkscape:connector-curvature="0"
     style="fill:#a7cbea" /><path
     class="st4"
     d="m 454.9,222.5 c -0.4,-0.2 -0.7,-0.4 -0.2,-0.8 0.4,0.1 0.4,0.4 0.2,0.8 z"
     id="path4648"
     inkscape:connector-curvature="0"
     style="fill:#a7cbea" /><path
     class="st4"
     d="m 455.3,224.7 c -0.4,-0.2 -0.7,-0.5 -0.1,-0.8 0.2,0.2 0.3,0.5 0.1,0.8 z"
     id="path4650"
     inkscape:connector-curvature="0"
     style="fill:#a7cbea" /><path
     class="st4"
     d="m 454.5,219.4 c -0.4,-0.2 -0.7,-0.4 -0.2,-0.8 0.4,0.2 0.4,0.5 0.2,0.8 z"
     id="path4652"
     inkscape:connector-curvature="0"
     style="fill:#a7cbea" /><path
     class="st4"
     d="m 453.8,215.6 c -0.4,-0.1 -0.8,-0.3 -0.3,-0.8 0.4,0.2 0.5,0.5 0.3,0.8 z"
     id="path4654"
     inkscape:connector-curvature="0"
     style="fill:#a7cbea" /><path
     class="st4"
     d="m 416,204.6 c 0.5,0.2 0.7,0.5 0.4,1 -0.4,-0.3 -0.6,-0.5 -0.4,-1 z"
     id="path4656"
     inkscape:connector-curvature="0"
     style="fill:#a7cbea" /><path
     class="st4"
     d="m 414.5,199.3 c 0.4,0.2 0.8,0.4 0.2,0.8 -0.3,-0.2 -0.4,-0.5 -0.2,-0.8 z"
     id="path4658"
     inkscape:connector-curvature="0"
     style="fill:#a7cbea" /><path
     class="st4"
     d="m 414.1,197.8 c 0.4,0.1 0.8,0.3 0.3,0.8 -0.4,-0.2 -0.5,-0.5 -0.3,-0.8 z"
     id="path4660"
     inkscape:connector-curvature="0"
     style="fill:#a7cbea" /><path
     class="st4"
     d="m 403.9,166 c 0.5,0.2 0.6,0.5 0.4,1 -0.4,-0.2 -0.6,-0.5 -0.4,-1 z"
     id="path4662"
     inkscape:connector-curvature="0"
     style="fill:#a7cbea" /><path
     class="st4"
     d="m 456.1,228.1 c -0.5,-0.2 -0.7,-0.5 -0.5,-1 0.4,0.3 0.7,0.5 0.5,1 z"
     id="path4664"
     inkscape:connector-curvature="0"
     style="fill:#a7cbea" /><path
     class="st4"
     d="m 417,207.2 c 0.5,0.1 0.7,0.4 0.5,1 -0.3,-0.2 -0.6,-0.5 -0.5,-1 z"
     id="path4666"
     inkscape:connector-curvature="0"
     style="fill:#a7cbea" /><path
     class="st8"
     d="m 103,133.2 c 0.4,0.1 0.7,0.1 1.1,0.2 0.2,0.5 0.4,0.7 0.8,0.2 0.2,0.1 0.5,0.1 0.7,0.2 0.4,0.8 1,1.1 1.9,0.6 1.1,0.1 2.1,0.7 3,1.3 0.3,0.9 1,1.1 1.8,0.8 0.3,0.1 0.6,0.2 0.9,0.3 0.1,0.6 0.5,0.7 1,0.5 0.9,0 1.7,0.4 2.4,0.9 0.1,0.5 0.2,0.9 0.8,0.4 2.2,0.6 3.7,2.4 5.6,3.4 1,0.5 0.3,1.2 0,1.7 -1,1.4 -2,2.7 -2.9,4.2 -4.1,6.6 -8.1,13.1 -11.3,20.2 -1.6,3.6 -4,7 -6.1,10.4 -2.9,4.9 -5,10.1 -6.9,15.4 -1.4,3.9 -3.6,7.5 -5.7,11.1 -3.1,5.2 -5.3,10.8 -7.9,16.2 -1.1,2.2 -2.2,4.4 -3.4,6.5 -0.6,0.1 -0.7,0.5 -0.5,1 -1.3,3.8 -3.1,7.4 -5.4,10.7 -2.3,-0.7 -4.2,-2.5 -6.6,-3 -2.8,-0.7 -4.5,-2.7 -5.7,-5 -0.7,-1.3 -1.2,-2.8 -1.9,-4.1 -2.4,-4.1 -3.7,-8.6 -3.7,-13.2 0,-4.5 0.5,-9.1 2.1,-13.4 2.7,-7.5 5.1,-15.2 8.1,-22.6 2.5,-6.1 5.1,-12.3 8.2,-18.2 2.8,-5.3 6.2,-10.3 8.5,-15.9 0.9,-2.2 2.3,-4.1 2.1,-6.7 -0.1,-1.4 -1.3,-2.3 -1.2,-3.7 0.7,-0.3 1.5,-0.5 2.3,-0.4 0.8,0.5 1.6,0.8 2.3,-0.2 0.5,-0.1 1,-0.1 1.5,-0.2 0.4,0.6 0.6,0.4 0.8,-0.2 3.5,-0.3 7,-0.3 10.5,0 0.2,0.5 0.4,0.7 0.8,0.2 0.4,0.1 0.7,0.1 1.1,0.2 0.1,0.8 0.5,0.8 0.9,0.2 z"
     id="path4668"
     inkscape:connector-curvature="0"
     style="fill:#fdfdfe" /><path
     class="st6"
     d="m 82.6,133.6 c -0.1,1.4 1.1,2.3 1.2,3.7 0.2,2.6 -1.2,4.6 -2.1,6.7 -2.3,5.6 -5.7,10.6 -8.5,15.9 -3.1,5.9 -5.6,12 -8.2,18.2 -3,7.4 -5.4,15.1 -8.1,22.6 -1.6,4.3 -2.1,9 -2.1,13.4 0,4.6 1.3,9.1 3.7,13.2 0.7,1.3 1.2,2.7 1.9,4.1 1.3,2.4 2.9,4.4 5.7,5 2.4,0.5 4.3,2.3 6.6,3 -2,3.9 -4,7.8 -6,11.8 -1.3,0.1 -1.9,-1.1 -2.9,-1.6 -7.1,-3.9 -12.6,-9.4 -17,-16.1 -3.8,-5.7 -4.2,-12 -3.7,-18.5 0.2,-2.4 0.8,-4.8 0.5,-7.2 1.2,-4.6 3.4,-8.8 5.4,-13 4.2,-9.3 9.8,-18 13.7,-27.5 2.3,-5.7 4.3,-11.5 7,-17.1 2.6,-5.3 5.8,-10.3 9.3,-15 1,-1.2 2.3,-1.5 3.6,-1.6 z"
     id="path4670"
     inkscape:connector-curvature="0"
     style="fill:#e1edf7" /><path
     class="st4"
     d="m 43.7,207.7 c 0.3,2.4 -0.3,4.8 -0.5,7.2 -0.5,6.5 0,12.8 3.7,18.5 4.4,6.7 9.9,12.2 17,16.1 1,0.5 1.5,1.8 2.9,1.6 -2.5,4.4 -4.9,8.7 -7.4,13.1 -0.5,0.8 -1.1,0.9 -1.9,0.4 -5.4,-3 -10.8,-6.1 -16.3,-9 -4.2,-2.2 -8.1,-4.7 -12,-7.4 -1.4,-1 -1.7,-2.1 -1.2,-3.5 1.4,-3.8 2.7,-7.6 4.3,-11.2 3.8,-8.5 7.8,-16.9 11.1,-25.5 0.1,-0.2 0.2,-0.3 0.3,-0.3 z"
     id="path4672"
     inkscape:connector-curvature="0"
     style="fill:#a7cbea" /><path
     class="st6"
     d="m 87.2,133 c -0.7,1.1 -1.5,0.7 -2.3,0.2 0.7,-0.5 1.5,-0.3 2.3,-0.2 z"
     id="path4674"
     inkscape:connector-curvature="0"
     style="fill:#e1edf7" /><path
     class="st6"
     d="m 107.6,134.4 c -0.9,0.5 -1.5,0.2 -1.9,-0.6 0.7,-0.1 1.3,0.1 1.9,0.6 z"
     id="path4676"
     inkscape:connector-curvature="0"
     style="fill:#e1edf7" /><path
     class="st6"
     d="m 112.4,136.5 c -0.8,0.2 -1.5,0 -1.8,-0.8 0.7,-0.1 1.3,0.2 1.8,0.8 z"
     id="path4678"
     inkscape:connector-curvature="0"
     style="fill:#e1edf7" /><path
     class="st6"
     d="m 103,133.2 c -0.5,0.6 -0.9,0.6 -1.2,-0.2 0.5,-0.1 0.9,-0.2 1.2,0.2 z"
     id="path4680"
     inkscape:connector-curvature="0"
     style="fill:#e1edf7" /><path
     class="st6"
     d="m 100.8,132.8 c -0.4,0.5 -0.6,0.3 -0.8,-0.2 0.3,-0.1 0.6,0 0.8,0.2 z"
     id="path4682"
     inkscape:connector-curvature="0"
     style="fill:#e1edf7" /><path
     class="st6"
     d="m 104.9,133.6 c -0.4,0.6 -0.6,0.3 -0.8,-0.2 0.4,-0.1 0.6,-0.1 0.8,0.2 z"
     id="path4684"
     inkscape:connector-curvature="0"
     style="fill:#e1edf7" /><path
     class="st6"
     d="m 117.4,138.5 c -0.6,0.5 -0.7,0.1 -0.8,-0.4 0.4,0 0.6,0.1 0.8,0.4 z"
     id="path4686"
     inkscape:connector-curvature="0"
     style="fill:#e1edf7" /><path
     class="st6"
     d="m 114.2,137.2 c -0.5,0.2 -0.9,0.1 -1,-0.5 0.5,-0.1 0.8,0.1 1,0.5 z"
     id="path4688"
     inkscape:connector-curvature="0"
     style="fill:#e1edf7" /><path
     class="st6"
     d="m 78.2,228.7 c -0.2,-0.5 -0.1,-0.9 0.5,-1 0.2,0.4 -0.1,0.7 -0.5,1 z"
     id="path4690"
     inkscape:connector-curvature="0"
     style="fill:#e1edf7" /><path
     class="st6"
     d="m 89.5,132.6 c -0.2,0.6 -0.4,0.7 -0.8,0.2 0.2,-0.3 0.4,-0.3 0.8,-0.2 z"
     id="path4692"
     inkscape:connector-curvature="0"
     style="fill:#e1edf7" /></svg>