<svg xmlns:inkscape="http://www.inkscape.org/namespaces/inkscape" xmlns:rdf="http://www.w3.org/1999/02/22-rdf-syntax-ns#" style="enable-background:new 0 0 500 500" xmlns="http://www.w3.org/2000/svg" sodipodi:docname="simply-money.svg" xml:space="preserve" height="500px" viewBox="0 0 500 500" width="500px" version="1.1" y="0px" x="0px" xmlns:cc="http://creativecommons.org/ns#" xmlns:dc="http://purl.org/dc/elements/1.1/" inkscape:version="0.91 r13725" xmlns:sodipodi="http://sodipodi.sourceforge.net/DTD/sodipodi-0.dtd"><sodipodi:namedview bordercolor="#666666" inkscape:pageshadow="2" guidetolerance="10" pagecolor="#ffffff" gridtolerance="10" inkscape:window-maximized="1" inkscape:zoom="0.472" objecttolerance="10" borderopacity="1" inkscape:current-layer="Layer_1" inkscape:cx="250" inkscape:cy="250" inkscape:window-y="-8" inkscape:window-x="-8" inkscape:window-width="1920" showgrid="false" inkscape:pageopacity="0" inkscape:window-height="1017"/><style type="text/css">
	.st0{fill:#48B2E3;}
	.st1{fill:#DCF0F9;}
	.st2{fill:#FDFEFE;}
	.st3{fill:#47B2E3;}
</style><path class="st0" d="m99.1 201.7c-0.7 3.9-2.8 5.4-5.9 6.5-2.9 1-4.8 3.7-7 5.7-5.2 4.4-11.5 7-17.1 10.7-1.3 0.9-2.8 1.5-2.8 3.4 0.1 13.2-0.9 26.4 1 39.6 0.2 1.4 0.7 2.5 1.8 3.5 2.6 2.5 5.3 5 5 9.2-0.1 0.9 0.9 1.9 1.4 2.8 2.8 5.3 5.6 10.5 6.3 16.6 0.3 3-1.2 5.7-3.5 6.3-2 0.5-4.3-1.1-5.5-3.9-0.4-1-0.8-1.9-1.8-2.8 0.2 2 0.3 4.1 0.5 6.1 0.5 4.3-1.6 7.2-6 7.7-1.1 0.1-1.8 0.4-2.3 1.4-1.3 2.3-3.4 3.2-6 2.6-2.5-0.6-3.7-2.4-4.1-4.8-0.2-1.3-0.4-2.7-0.6-4.4-1.5 1.1-2.8 2.6-4.6 1.3-1.6-1.2-1.5-3.1-1.6-4.8-0.1-4 0.1-7.9-0.8-11.9-0.8-3.4 1-6.9 2-10.2s2.3-6.5 3.8-9.5c2.3-4.7 3.6-9.5 3.3-14.9-0.4-7.4-0.1-14.9 0-22.3 0-2.2-0.4-3.3-2.9-3-8.9 1.1-11.5-3.5-12.9-11.6-1.2-6.9-1.8-13.9-2.1-21-0.3-6.5 0.1-13.2-0.8-19.5-0.8-5.7 2-8.8 4.6-12.4 6.1-8.6 13.8-16 20.4-24.2 2.4-2.9 3.9-5.9 4.6-9.5 2-9.6 4.6-19 10.1-27.4 6.1-9.3 14.2-16.2 24.8-19.5 5.5-1.7 11.2-1.2 16.7 1 1.5 0.6 2.6 1.7 2.5 3.8 6.8-5.1 13.4-10 19.9-15 11.6-8.9 25-14.9 37.2-22.9 9.9-6.5 19.8-12.9 30.5-18.2 11.5-5.6 23.1-11.1 35.2-15.3 3.9-1.4 7.6-3 11.2-4.8 3.4-1.6 7.1-2.8 10.8-2.2 5.9 1 9.9 3.8 10.2 12.1 0.1 4.6-0.8 9.1-2.2 13.5-3.8 11.3-7.4 22.7-11.4 33.9-2.2 6-5.1 11.7-8.8 16.8-1 1.3-1.1 2.2 0 3.5 7.2 9 13.6 18.6 19.3 28.7 4.1 7.4 6.8 15.1 7.3 23.6 0.1 2.2 1.2 2.2 2.8 2.2 13.3 0 26.6 0 39.9 0.1 16.4 0.1 32.8 0.3 49.2 0.6 17.4 0.3 34.8 1.1 52.2 2.3 3.3 0.2 6.6 0.8 9.9 1 3.5 0.2 6.5 2.2 9.2 4.3 6.5 5.2 10.9 11.5 11.6 20.4 1.6 20.4 1.6 40.8 2.2 61.3 0.5 15.6 0.3 31.1 0.6 46.7 0.7 41.1 0.4 82.2 0.3 123.3 0 10.1-0.2 20.4-3 30.2-3.1 10.8-9.9 18.2-21.3 20.9-5.7 1.4-11.5 0.6-17.2 0.6-34.2 0-68.3 0-102.5-0.1-23.9-0.1-47.7-0.2-71.6-0.6-20.4-0.4-40.9-0.5-61.3-2-3.7-0.3-7.4 0-11-1.1-12-3.5-17.9-12.4-20.8-23.7-3.7-13.9-1.5-28.2-1.6-42.3-0.3-37.1 0-74.2 0.1-111.3 0-10 0.2-20 0.4-29.9 0-2.1-0.5-2.8-2.7-3-4.9-0.3-9.5-1.7-14-3.6-1-0.4-1.9-1.1-2.6-1.9-6.1-6.6-12.5-13-17.6-20.4-3.3-4.8-6-10.1-8.9-15.1-0.6-0.9-1.1-1.8-2-3.2zm-40.3-11.4c1.4-7.4 1.9-14.9 2.5-22.4 0.3-3.9 0.6-7.9 0.9-12.1-0.6 0.3-0.9 0.4-1.1 0.6-5.8 6.2-11.6 12.4-17.4 18.6-0.6 0.6-0.8 1.1-0.5 2 1.9 6.1 3.3 12.4 4.3 18.7 1.2 7.6 1.1 15.4 2.7 22.9 0.5 2.1 1.9 2.8 3.7 1.6 1.2-0.8 2.1-1.9 2.3-3.6 0.8-8.6 1.7-17.4 2.6-26.3zm29.3-9.6c-0.3-1.5-0.5-2.9 0.5-4.2 4.1-5.9 8-12.1 12.6-17.6 6.7-7.9 13.6-15.6 20.8-23.1 13.3-13.9 27.6-26.5 44.3-36.3 8.1-4.8 15.7-10.3 24.2-14.3 9.5-4.5 19.7-7 29.5-10.5 3.8-1.3 7.7-1.2 11.2 1.1 3.4 2.3 6.9 4.5 10.2 6.8 1.3 0.9 1.8 0.5 2.4-0.7 1.1-2.1 2.4-4.1 3.4-6.2 6.2-13.7 10.3-28.3 15.1-42.5 0.6-1.8 0.2-3.7 0.3-5.5 0-1.5-0.8-1.6-1.9-1.2-1.8 0.6-3.6 1.5-5.5 2-15.4 3.7-29.5 10.8-43.7 17.6-13.3 6.5-25.3 15.2-38 22.8-6.6 3.9-13.3 7.5-19.7 11.6-10.1 6.4-19.2 14.1-28.8 21.2-16 11.9-31.9 23.9-46.6 37.4-4 3.6-5.9 7.3-5.5 12.4v1.2c-0.2 0.9-0.4 1.7-0.5 2.6-0.5 12.3-1.6 24.5-2.7 36.7-0.5 6.2-1 12.3-1.5 18.9 5-2.3 9.2-4.8 12.8-8.3 4.3-4.1 8.8-8.6 16-5.3 0.2-1.7-0.6-3.1-1.3-4.2-2.9-4-1.9-10.2-7.6-12.4zm163.2-65c-2.3-3-4.5-6.1-6.8-9.1-5-6.8-10.7-12.9-17.3-18.2-1.6-1.3-3.2-1.8-5.1-1.1-2.4 0.9-4.8 1.8-7.2 2.5-11.4 3.3-22.2 7.7-32.4 14.1-12.5 7.9-25.1 15.5-36.4 25.1-11.1 9.4-21.2 19.9-31.7 30.1-0.8 0.7-1.6 1.4-2 2.5-5.6 4.6-9.6 10.8-15.1 15.5-1 0.8-1 1.6-0.1 2.4 4.2 4.1 7.3 9.1 10.6 13.9 6.3 9.3 12 18.9 19.7 27.2 3.3 3.5 7 6.7 9.8 10.9 1.2 1.8 3.3 1.5 4.1-0.3 2.1-4.7 6-7.9 8.7-12.1 4.5-7.1 10.4-13.2 15.5-19.8 3-3.9 7.7-6 11.2-9.4 10.9-10.5 23.3-18.9 35.8-27.4 8.7-5.9 17.9-10.8 27.3-15.2 7.2-3.3 14.4-6.6 21.6-9.7 2-0.9 1.4-2.1 0.9-3.3-2.8-6.8-6.8-12.8-11.1-18.6zm189 195.9c-0.1-8 0-14-0.6-19.9-0.8-8.8-2.5-17.3-5.9-25.5-1.3-3-2.4-5.9-3-9.2-0.6-3.2-1.4-6.4-3.5-8.9-4.6-5.6-6.6-12.6-10.2-18.7-4.4-7.5-8.7-15.1-14.8-21.4-6.8-7.1-14.9-12.6-22.8-18.4-8.2-6.1-17.8-9.6-27.6-12.4-15.2-4.4-30.4-8.7-46.2-10.4-1.5-0.2-2.9-0.1-4.4 0.3-5 1.6-10.3 2.7-15.5 3-12.7 0.8-23.7 6.9-35.6 10.2-1.1 0.3-2.1 1.1-3.1 1.6-5.6 2.5-10.4 6.7-16 9.2-8.8 3.8-15.9 9.9-23.7 15.1-1.9 1.3-3.9 2.6-5.4 4.5-8.5 10.5-16.4 21.3-22.2 33.7-5.6 12-9.4 24.3-10.9 37.5-0.7 6.1-0.5 12.3-1.5 18.4-1.9 10.8-2.2 21.6 1.5 32.1 0.3 0.9 0.5 1.9 0.7 2.9 1.4 9.5 4.3 18.6 7.9 27.6 1.3 3.2 2.1 6.5 4.3 9.3 6.8 8.7 12.6 18.1 19.2 27 6.6 8.7 14.9 15.5 24.5 20 9.8 4.6 20.5 7.1 31.1 9.2 11.6 2.3 23.3 3.5 35.1 4.9 8.2 1 16.3 1.6 24.5 1.5 2.2 0 4.5-0.5 6.7-0.5 8.1-0.1 15.9-1 23.6-3.5 14.2-4.7 28.1-9.9 41.1-17.5 11.8-6.8 21.2-15.5 27.3-27.7 1.8-3.6 3.9-7.1 6.4-10.2 7.4-9.4 11.4-20.4 14.9-31.6 3.3-11.4 4.8-22.7 4.1-32.2zm-363-184.8c1.6-0.5 2.2-1.4 3-2.2 4.6-4.2 8.8-8.9 13.7-12.7 7.4-5.7 14.9-11.4 22.4-17.1 0.4-0.3 1.3-0.6 1.1-1.2-0.1-0.3-0.9-0.6-1.5-0.6-4.9-0.5-9.7 0-14.3 2.1-9.1 4.2-15.5 11.1-20.1 19.7-2 3.7-3.6 7.5-4.3 12zm-6.4 170.6c-0.1-0.2-0.2-0.3-0.2-0.5-0.1 0.2-0.3 0.3-0.2 0.5 0 0.2 0.2 0.4 0.3 0.6 0-0.2 0.1-0.4 0.1-0.6z"/><path class="st1" d="m112.5 161.5c6.2-1.5 10.5 2.1 14.9 5.6 2.7 2.2 5.5 4.4 8.3 6.4 4.3 3.1 9.2 2.5 13.9 1.7 12.4-2.2 23.5-7.4 33.5-15.1 7.5-5.8 15.8-10.8 23.1-16.9 2.2-1.8 4.1-3.9 6.2-5.9 8.7-8.4 18.6-15.1 29.7-20 3-1.3 6.2-1.4 9.4-1.7 4.3 5.8 8.3 11.8 11.1 18.5 0.5 1.3 1.1 2.5-0.9 3.3-7.2 3.2-14.4 6.4-21.6 9.7-9.5 4.4-18.7 9.3-27.3 15.2-12.4 8.5-24.9 16.9-35.8 27.4-3.5 3.4-8.1 5.4-11.2 9.4-5.1 6.6-11 12.7-15.5 19.8-2.7 4.2-6.6 7.5-8.7 12.1-0.8 1.8-2.9 2.1-4.1 0.3-2.7-4.1-6.4-7.3-9.8-10.9-7.7-8.2-13.5-17.9-19.7-27.2-3.3-4.8-6.4-9.8-10.6-13.9-0.9-0.9-0.9-1.6 0.1-2.4 5.4-4.6 9.4-10.8 15-15.4z"/><path class="st1" d="m72.7 152.7v-1.2c-0.4-5.1 1.6-8.8 5.5-12.4 14.8-13.4 30.6-25.5 46.6-37.4 9.6-7.1 18.7-14.8 28.8-21.2 6.4-4.1 13.2-7.7 19.7-11.6 12.7-7.6 24.7-16.3 38-22.8 14.1-6.9 28.3-13.9 43.7-17.6 1.9-0.5 3.7-1.4 5.5-2 1.1-0.4 2-0.2 1.9 1.2 0 1.9 0.3 3.8-0.3 5.5-4.8 14.3-8.8 28.8-15.1 42.5-1 2.1-2.3 4.1-3.4 6.2-0.6 1.2-1.1 1.6-2.4 0.7-3.3-2.4-6.8-4.6-10.2-6.8 2-0.4 0.9-1.7 0.6-2.4-1.8-3.9-3.8-7.7-5.7-11.6-0.3-0.6-0.7-1.3-1.5-1.3-5.7 0.1-11.6-1.1-16.9 2.1-10.8 6.6-21.7 13.2-32.6 19.5-12 7-22.9 15.6-34.5 23-7.2 4.6-13.6 10.5-20.8 15-10.9 6.9-21.3 14.4-31.7 22-4.8 3.8-9.8 7.5-15.2 10.6z"/><path class="st1" d="m58.8 190.3c-0.9 8.8-1.7 17.7-2.5 26.5-0.1 1.7-1.1 2.7-2.3 3.6-1.8 1.2-3.2 0.5-3.7-1.6-1.6-7.6-1.5-15.3-2.7-22.9-1-6.3-2.4-12.6-4.3-18.7-0.3-0.9-0.1-1.4 0.5-2 5.8-6.2 11.6-12.4 17.4-18.6 0.2-0.2 0.5-0.3 1.1-0.6-0.3 4.2-0.6 8.2-0.9 12.1-1 0.3-1.1 1.2-1.5 2-1.9 4.6-3.1 9.3-4.3 14.1-0.9 3.4-0.3 4.7 3.2 6.1z"/><path class="st1" d="m69.5 192c6-1.8 12.3-3.1 16.1-8.9 0.6-1 2.1-1.1 2.5-2.3 5.7 2.2 4.7 8.4 7.4 12.4 0.7 1.1 1.5 2.5 1.3 4.2-7.1-3.3-11.6 1.2-16 5.3-3.7 3.5-7.8 5.9-12.8 8.3 0.5-6.7 1-12.9 1.5-19z"/><path class="st2" d="m70.9 297.4c-0.1 0.2-0.1 0.3-0.2 0.5-0.1-0.2-0.3-0.4-0.3-0.6 0-0.1 0.2-0.3 0.2-0.5 0.2 0.3 0.2 0.5 0.3 0.6z"/><path class="st3" d="m299.5 192.3c6-0.2 12.1-1.1 18.1-0.4 6.8 0.7 13.7 0.2 20.2 2.7 5.2 2 10.1 4.6 15.3 6.6 5.1 2 9.6 5.2 14.4 7.8 2.3 1.3 3.6 3.5 5.2 5.5 4.4 5.5 9.9 10 14 15.7 4.7 6.6 9.3 13.4 12.5 20.8 4 9 7.8 18.1 10.3 27.6 2.1 7.8 3.3 15.8 3.8 23.9 0.3 5.1 0.3 10.3 0.1 15.4-0.2 4.4-2.2 8.1-3.3 12.1-2.1 7.3-4.6 14.5-6.5 21.9-2.1 8.1-6 15.4-10.7 22.4-4.3 6.4-9.4 12.1-15.4 16.8-4.9 3.9-10.3 7.5-16.1 10-4.4 1.9-8.3 4.4-12.2 6.9-9.6 6.1-20.1 8.3-31.4 8.7-12.7 0.5-25.2-1-37.7-2.4-8.2-1-16.4-3.7-24.1-7.1-4.3-1.9-8.8-3.4-12.7-6-5.8-4-11.6-8-16.1-13.5-5.3-6.4-10.9-12.6-16-19.1-9.8-12.6-18.4-26-20.3-42.2-1-8.4-1-16.9-0.2-25.4 0.7-6.8 1.3-13.6 3-20.2 1.7-6.7 4.2-13.2 7.4-19.4 5.4-10.5 11.5-20.7 19.3-29.7 10.6-12.1 22.3-22.6 37.2-29.4 11.1-5.1 22.5-9 34.7-10.1 2.5-0.1 4.9 0.1 7.2 0.1zm-1.3 187.3c7.5-0.2 13.6-1.1 19.8-2.2 8.5-1.5 16.1-4.5 23.4-9.3 7.9-5.2 12-12.7 15.7-20.7 2.4-5.3 1.7-11.1 1.7-16.8 0-6.5-1.8-12.6-5.1-18.1-5.3-8.9-14.2-13.3-23.2-17.1-7.6-3.1-15.9-3.7-24.1-4.3-9.8-0.7-18.5-4.6-26.2-10.7-4.1-3.3-4.9-7.4-3.5-12.4 1.9-6.5 6.1-10.7 12.2-13.3 8.6-3.6 17.3-2.7 25.8-0.1 4.8 1.5 9 4.2 11.6 8.9 2.4 4.4 3.8 4.9 8.8 4 0.7-0.1 1.3-0.3 2-0.4 8.3-0.9 14.8-11.1 12.1-19-4-11.7-13.4-16.4-24.3-19.2-2.4-0.6-5-0.8-7.5-1.2-4.9-0.8-9.7-2.3-14.8-1.3-5 1-9.9 2.1-14.7 3.7-8.3 2.6-15.7 6.4-20.7 13.9-1.4 2.1-2.6 4.3-4.1 6.4-6.2 9-10.7 18.6-10.1 30 0.2 3.6 1.7 6.8 2.4 10.2 1.5 7.4 6.2 12.1 12.8 15.3 7.5 3.6 15.3 3.3 23.3 2.7 12.8-1 24.7 1.5 34.2 11.2 5 5.1 5.1 13.6-0.1 18.4-4.1 3.8-9.3 6.1-14.1 8.9-0.3 0.2-0.7 0.2-1.1 0.3-5 1.8-10.1 1.7-15.3 1.8-8.5 0.2-15.6-2.9-22.2-7.8-4.8-3.6-9.2-7.6-16-7.3-6.1 0.3-10.3 3.1-10.6 8.9-0.7 13.8 9.6 26.4 22.1 29.2 1.8 0.4 3.5 1.2 5.3 1.8 8.2 2.9 16.5 6.1 24.5 5.6z"/></svg>
